G75*
%MOIN*%
%OFA0B0*%
%FSLAX25Y25*%
%IPPOS*%
%LPD*%
%AMOC8*
5,1,8,0,0,1.08239X$1,22.5*
%
%ADD10C,0.01600*%
%ADD11C,0.79000*%
%ADD12R,0.07500X0.24000*%
%ADD13R,0.15000X0.05000*%
%ADD14C,0.00400*%
%ADD15C,0.00500*%
%ADD16C,0.00800*%
%ADD17C,0.00600*%
D10*
X0075619Y0051013D02*
X0075619Y0063316D01*
X0063316Y0063316D01*
X0063316Y0075619D01*
X0051013Y0075619D01*
X0051013Y0087922D01*
X0038709Y0087922D01*
X0038709Y0112528D01*
X0026406Y0112528D01*
X0026406Y0161741D01*
X0038709Y0161741D01*
X0038709Y0174044D01*
X0051013Y0174044D01*
X0051013Y0186347D01*
X0100225Y0186347D01*
X0100225Y0174044D01*
X0112528Y0174044D01*
X0112528Y0161741D01*
X0137135Y0161741D01*
X0137135Y0174044D01*
X0149438Y0174044D01*
X0149438Y0186347D01*
X0198650Y0186347D01*
X0198650Y0174044D01*
X0210954Y0174044D01*
X0210954Y0161741D01*
X0223257Y0161741D01*
X0223257Y0112528D01*
X0210954Y0112528D01*
X0210954Y0087922D01*
X0198650Y0087922D01*
X0198650Y0075619D01*
X0186347Y0075619D01*
X0186347Y0063316D01*
X0174044Y0063316D01*
X0174044Y0051013D01*
X0161741Y0051013D01*
X0161741Y0038709D01*
X0149438Y0038709D01*
X0149438Y0026406D01*
X0137135Y0026406D01*
X0137135Y0014103D01*
X0112528Y0014103D01*
X0112528Y0026406D01*
X0100225Y0026406D01*
X0100225Y0038709D01*
X0087922Y0038709D01*
X0087922Y0051013D01*
X0075619Y0051013D01*
D11*
X0124921Y0093242D03*
D12*
X0161171Y0093242D03*
X0088671Y0093242D03*
D13*
X0124921Y0133242D03*
D14*
X0109689Y0138959D02*
X0109172Y0138442D01*
X0108138Y0138442D01*
X0107621Y0138959D01*
X0107621Y0139993D02*
X0108655Y0140511D01*
X0109172Y0140511D01*
X0109689Y0139993D01*
X0109689Y0138959D01*
X0107621Y0139993D02*
X0107621Y0141545D01*
X0109689Y0141545D01*
X0044101Y0118725D02*
X0044101Y0116656D01*
X0044101Y0117690D02*
X0040998Y0117690D01*
X0042033Y0116656D01*
X0115146Y0051862D02*
X0115663Y0052379D01*
X0116697Y0052379D01*
X0117214Y0051862D01*
X0117214Y0051345D01*
X0116697Y0050828D01*
X0117214Y0050311D01*
X0117214Y0049794D01*
X0116697Y0049277D01*
X0115663Y0049277D01*
X0115146Y0049794D01*
X0116180Y0050828D02*
X0116697Y0050828D01*
X0179447Y0116821D02*
X0178930Y0117338D01*
X0178930Y0118373D01*
X0179447Y0118890D01*
X0179964Y0118890D01*
X0182032Y0116821D01*
X0182032Y0118890D01*
D15*
X0188232Y0131621D02*
X0188050Y0131460D01*
X0187872Y0131294D01*
X0187698Y0131123D01*
X0187529Y0130949D01*
X0187363Y0130770D01*
X0187203Y0130587D01*
X0187046Y0130401D01*
X0186895Y0130210D01*
X0186748Y0130016D01*
X0186606Y0129819D01*
X0186468Y0129618D01*
X0186336Y0129414D01*
X0186209Y0129206D01*
X0186087Y0128996D01*
X0185970Y0128782D01*
X0185858Y0128566D01*
X0185752Y0128347D01*
X0185651Y0128126D01*
X0185555Y0127902D01*
X0185465Y0127676D01*
X0185381Y0127448D01*
X0185302Y0127217D01*
X0185229Y0126985D01*
X0185162Y0126751D01*
X0185100Y0126516D01*
X0185044Y0126279D01*
X0184994Y0126041D01*
X0184950Y0125801D01*
X0184912Y0125561D01*
X0184880Y0125320D01*
X0184853Y0125078D01*
X0184833Y0124836D01*
X0184818Y0124593D01*
X0184810Y0124349D01*
X0184807Y0124106D01*
X0184810Y0123863D01*
X0184820Y0123620D01*
X0184835Y0123377D01*
X0184856Y0123134D01*
X0184883Y0122892D01*
X0184916Y0122651D01*
X0184955Y0122411D01*
X0185000Y0122172D01*
X0185051Y0121934D01*
X0185108Y0121697D01*
X0185170Y0121462D01*
X0185238Y0121228D01*
X0185312Y0120996D01*
X0185391Y0120766D01*
X0185476Y0120538D01*
X0185567Y0120313D01*
X0185663Y0120089D01*
X0185764Y0119868D01*
X0185871Y0119649D01*
X0185984Y0119433D01*
X0186101Y0119220D01*
X0186224Y0119010D01*
X0186352Y0118803D01*
X0186485Y0118599D01*
X0186623Y0118399D01*
X0186765Y0118202D01*
X0186913Y0118008D01*
X0187065Y0117818D01*
X0187222Y0117632D01*
X0187383Y0117450D01*
X0187549Y0117272D01*
X0187719Y0117098D01*
X0187894Y0116928D01*
X0188072Y0116762D01*
X0188254Y0116601D01*
X0188441Y0116445D01*
X0188631Y0116293D01*
X0188825Y0116146D01*
X0189022Y0116003D01*
X0189223Y0115866D01*
X0189427Y0115733D01*
X0189634Y0115605D01*
X0189844Y0115483D01*
X0190057Y0115366D01*
X0190274Y0115254D01*
X0190492Y0115147D01*
X0190714Y0115046D01*
X0190937Y0114950D01*
X0191163Y0114860D01*
X0191391Y0114775D01*
X0191622Y0114696D01*
X0191854Y0114623D01*
X0192087Y0114555D01*
X0192323Y0114493D01*
X0192559Y0114437D01*
X0192798Y0114386D01*
X0193037Y0114342D01*
X0193277Y0114303D01*
X0193518Y0114270D01*
X0193760Y0114244D01*
X0194003Y0114223D01*
X0194245Y0114208D01*
X0194489Y0114199D01*
X0194732Y0114196D01*
X0194975Y0114199D01*
X0195219Y0114208D01*
X0195461Y0114223D01*
X0195704Y0114244D01*
X0195946Y0114270D01*
X0196187Y0114303D01*
X0196427Y0114342D01*
X0196666Y0114386D01*
X0196905Y0114437D01*
X0197141Y0114493D01*
X0197377Y0114555D01*
X0197610Y0114623D01*
X0197842Y0114696D01*
X0198073Y0114775D01*
X0198301Y0114860D01*
X0198527Y0114950D01*
X0198750Y0115046D01*
X0198972Y0115147D01*
X0199190Y0115254D01*
X0199407Y0115366D01*
X0199620Y0115483D01*
X0199830Y0115605D01*
X0200037Y0115733D01*
X0200241Y0115866D01*
X0200442Y0116003D01*
X0200639Y0116146D01*
X0200833Y0116293D01*
X0201023Y0116445D01*
X0201210Y0116601D01*
X0201392Y0116762D01*
X0201570Y0116928D01*
X0201745Y0117098D01*
X0201915Y0117272D01*
X0202081Y0117450D01*
X0202242Y0117632D01*
X0202399Y0117818D01*
X0202551Y0118008D01*
X0202699Y0118202D01*
X0202841Y0118399D01*
X0202979Y0118599D01*
X0203112Y0118803D01*
X0203240Y0119010D01*
X0203363Y0119220D01*
X0203480Y0119433D01*
X0203593Y0119649D01*
X0203700Y0119868D01*
X0203801Y0120089D01*
X0203897Y0120313D01*
X0203988Y0120538D01*
X0204073Y0120766D01*
X0204152Y0120996D01*
X0204226Y0121228D01*
X0204294Y0121462D01*
X0204356Y0121697D01*
X0204413Y0121934D01*
X0204464Y0122172D01*
X0204509Y0122411D01*
X0204548Y0122651D01*
X0204581Y0122892D01*
X0204608Y0123134D01*
X0204629Y0123377D01*
X0204644Y0123620D01*
X0204654Y0123863D01*
X0204657Y0124106D01*
X0204654Y0124349D01*
X0204646Y0124593D01*
X0204631Y0124836D01*
X0204611Y0125078D01*
X0204584Y0125320D01*
X0204552Y0125561D01*
X0204514Y0125801D01*
X0204470Y0126041D01*
X0204420Y0126279D01*
X0204364Y0126516D01*
X0204302Y0126751D01*
X0204235Y0126985D01*
X0204162Y0127217D01*
X0204083Y0127448D01*
X0203999Y0127676D01*
X0203909Y0127902D01*
X0203813Y0128126D01*
X0203712Y0128347D01*
X0203606Y0128566D01*
X0203494Y0128782D01*
X0203377Y0128996D01*
X0203255Y0129206D01*
X0203128Y0129414D01*
X0202996Y0129618D01*
X0202858Y0129819D01*
X0202716Y0130016D01*
X0202569Y0130210D01*
X0202418Y0130401D01*
X0202261Y0130587D01*
X0202101Y0130770D01*
X0201935Y0130949D01*
X0201766Y0131123D01*
X0201592Y0131294D01*
X0201414Y0131460D01*
X0201232Y0131621D01*
X0188232Y0131621D01*
X0194732Y0111621D02*
X0194732Y0109121D01*
X0197232Y0109121D01*
X0194732Y0109121D02*
X0194732Y0106621D01*
X0194732Y0109121D02*
X0192232Y0109121D01*
X0119934Y0155876D02*
X0119934Y0160380D01*
X0117682Y0158128D01*
X0120685Y0158128D01*
X0096856Y0155258D02*
X0096856Y0154357D01*
X0096406Y0153907D01*
X0095956Y0153907D01*
X0095505Y0154357D01*
X0095505Y0155258D01*
X0095956Y0155708D01*
X0096406Y0155708D01*
X0096856Y0155258D01*
X0095505Y0155258D02*
X0095055Y0155708D01*
X0094604Y0155708D01*
X0094154Y0155258D01*
X0094154Y0154357D01*
X0094604Y0153907D01*
X0095055Y0153907D01*
X0095505Y0154357D01*
X0095055Y0152762D02*
X0094604Y0152762D01*
X0094154Y0152311D01*
X0094154Y0151410D01*
X0094604Y0150960D01*
X0094604Y0149815D02*
X0095055Y0149815D01*
X0095505Y0149365D01*
X0095505Y0148464D01*
X0095055Y0148014D01*
X0094604Y0148014D01*
X0094154Y0148464D01*
X0094154Y0149365D01*
X0094604Y0149815D01*
X0095505Y0149365D02*
X0095956Y0149815D01*
X0096406Y0149815D01*
X0096856Y0149365D01*
X0096856Y0148464D01*
X0096406Y0148014D01*
X0095956Y0148014D01*
X0095505Y0148464D01*
X0094604Y0146869D02*
X0096406Y0145067D01*
X0096856Y0145517D01*
X0096856Y0146418D01*
X0096406Y0146869D01*
X0094604Y0146869D01*
X0094154Y0146418D01*
X0094154Y0145517D01*
X0094604Y0145067D01*
X0096406Y0145067D01*
X0096406Y0143922D02*
X0096856Y0143472D01*
X0096856Y0142571D01*
X0096406Y0142121D01*
X0095505Y0142121D02*
X0095055Y0143021D01*
X0095055Y0143472D01*
X0095505Y0143922D01*
X0096406Y0143922D01*
X0095505Y0142121D02*
X0094154Y0142121D01*
X0094154Y0143922D01*
X0096856Y0140976D02*
X0096856Y0139174D01*
X0096856Y0140075D02*
X0094154Y0140075D01*
X0095055Y0139174D01*
X0094604Y0138029D02*
X0096406Y0136228D01*
X0096856Y0136678D01*
X0096856Y0137579D01*
X0096406Y0138029D01*
X0094604Y0138029D01*
X0094154Y0137579D01*
X0094154Y0136678D01*
X0094604Y0136228D01*
X0096406Y0136228D01*
X0096856Y0135083D02*
X0096856Y0133281D01*
X0095055Y0135083D01*
X0094604Y0135083D01*
X0094154Y0134632D01*
X0094154Y0133731D01*
X0094604Y0133281D01*
X0086856Y0133772D02*
X0084154Y0133772D01*
X0084154Y0135123D01*
X0084604Y0135574D01*
X0085505Y0135574D01*
X0085956Y0135123D01*
X0085956Y0133772D01*
X0085956Y0134673D02*
X0086856Y0135574D01*
X0086856Y0136719D02*
X0084154Y0136719D01*
X0084154Y0138070D01*
X0084604Y0138520D01*
X0086406Y0138520D01*
X0086856Y0138070D01*
X0086856Y0136719D01*
X0086406Y0139665D02*
X0084604Y0139665D01*
X0084154Y0140116D01*
X0084154Y0141016D01*
X0084604Y0141467D01*
X0085505Y0141467D01*
X0085956Y0141016D01*
X0085055Y0141016D01*
X0085055Y0140116D01*
X0085956Y0140116D01*
X0085956Y0141016D01*
X0086406Y0141467D02*
X0086856Y0141016D01*
X0086856Y0140116D01*
X0086406Y0139665D01*
X0086856Y0142612D02*
X0086856Y0143512D01*
X0086856Y0143062D02*
X0084154Y0143062D01*
X0084154Y0142612D02*
X0084154Y0143512D01*
X0084154Y0144576D02*
X0084154Y0145477D01*
X0084154Y0145026D02*
X0086856Y0145026D01*
X0086856Y0144576D02*
X0086856Y0145477D01*
X0086406Y0146540D02*
X0086856Y0146991D01*
X0086856Y0147891D01*
X0086406Y0148342D01*
X0085956Y0148342D01*
X0085505Y0147891D01*
X0085505Y0146991D01*
X0085055Y0146540D01*
X0084604Y0146540D01*
X0084154Y0146991D01*
X0084154Y0147891D01*
X0084604Y0148342D01*
X0086406Y0149487D02*
X0086406Y0149937D01*
X0086856Y0149937D01*
X0086856Y0149487D01*
X0086406Y0149487D01*
X0086406Y0150960D02*
X0086856Y0151410D01*
X0086856Y0152311D01*
X0086406Y0152762D01*
X0085956Y0152762D01*
X0085505Y0152311D01*
X0085505Y0151410D01*
X0085055Y0150960D01*
X0084604Y0150960D01*
X0084154Y0151410D01*
X0084154Y0152311D01*
X0084604Y0152762D01*
X0084154Y0153907D02*
X0086856Y0153907D01*
X0086856Y0155708D01*
X0085505Y0154807D02*
X0085505Y0153907D01*
X0084154Y0153907D02*
X0084154Y0155708D01*
X0095055Y0152762D02*
X0096856Y0150960D01*
X0096856Y0152762D01*
X0063301Y0131456D02*
X0050301Y0131456D01*
X0050119Y0131295D01*
X0049941Y0131129D01*
X0049767Y0130958D01*
X0049598Y0130784D01*
X0049432Y0130605D01*
X0049272Y0130422D01*
X0049115Y0130236D01*
X0048964Y0130045D01*
X0048817Y0129851D01*
X0048675Y0129654D01*
X0048537Y0129453D01*
X0048405Y0129249D01*
X0048278Y0129041D01*
X0048156Y0128831D01*
X0048039Y0128617D01*
X0047927Y0128401D01*
X0047821Y0128182D01*
X0047720Y0127961D01*
X0047624Y0127737D01*
X0047534Y0127511D01*
X0047450Y0127283D01*
X0047371Y0127052D01*
X0047298Y0126820D01*
X0047231Y0126586D01*
X0047169Y0126351D01*
X0047113Y0126114D01*
X0047063Y0125876D01*
X0047019Y0125636D01*
X0046981Y0125396D01*
X0046949Y0125155D01*
X0046922Y0124913D01*
X0046902Y0124671D01*
X0046887Y0124428D01*
X0046879Y0124184D01*
X0046876Y0123941D01*
X0046879Y0123698D01*
X0046889Y0123455D01*
X0046904Y0123212D01*
X0046925Y0122969D01*
X0046952Y0122727D01*
X0046985Y0122486D01*
X0047024Y0122246D01*
X0047069Y0122007D01*
X0047120Y0121769D01*
X0047177Y0121532D01*
X0047239Y0121297D01*
X0047307Y0121063D01*
X0047381Y0120831D01*
X0047460Y0120601D01*
X0047545Y0120373D01*
X0047636Y0120148D01*
X0047732Y0119924D01*
X0047833Y0119703D01*
X0047940Y0119484D01*
X0048053Y0119268D01*
X0048170Y0119055D01*
X0048293Y0118845D01*
X0048421Y0118638D01*
X0048554Y0118434D01*
X0048692Y0118234D01*
X0048834Y0118037D01*
X0048982Y0117843D01*
X0049134Y0117653D01*
X0049291Y0117467D01*
X0049452Y0117285D01*
X0049618Y0117107D01*
X0049788Y0116933D01*
X0049963Y0116763D01*
X0050141Y0116597D01*
X0050323Y0116436D01*
X0050510Y0116280D01*
X0050700Y0116128D01*
X0050894Y0115981D01*
X0051091Y0115838D01*
X0051292Y0115701D01*
X0051496Y0115568D01*
X0051703Y0115440D01*
X0051913Y0115318D01*
X0052126Y0115201D01*
X0052343Y0115089D01*
X0052561Y0114982D01*
X0052783Y0114881D01*
X0053006Y0114785D01*
X0053232Y0114695D01*
X0053460Y0114610D01*
X0053691Y0114531D01*
X0053923Y0114458D01*
X0054156Y0114390D01*
X0054392Y0114328D01*
X0054628Y0114272D01*
X0054867Y0114221D01*
X0055106Y0114177D01*
X0055346Y0114138D01*
X0055587Y0114105D01*
X0055829Y0114079D01*
X0056072Y0114058D01*
X0056314Y0114043D01*
X0056558Y0114034D01*
X0056801Y0114031D01*
X0057044Y0114034D01*
X0057288Y0114043D01*
X0057530Y0114058D01*
X0057773Y0114079D01*
X0058015Y0114105D01*
X0058256Y0114138D01*
X0058496Y0114177D01*
X0058735Y0114221D01*
X0058974Y0114272D01*
X0059210Y0114328D01*
X0059446Y0114390D01*
X0059679Y0114458D01*
X0059911Y0114531D01*
X0060142Y0114610D01*
X0060370Y0114695D01*
X0060596Y0114785D01*
X0060819Y0114881D01*
X0061041Y0114982D01*
X0061259Y0115089D01*
X0061476Y0115201D01*
X0061689Y0115318D01*
X0061899Y0115440D01*
X0062106Y0115568D01*
X0062310Y0115701D01*
X0062511Y0115838D01*
X0062708Y0115981D01*
X0062902Y0116128D01*
X0063092Y0116280D01*
X0063279Y0116436D01*
X0063461Y0116597D01*
X0063639Y0116763D01*
X0063814Y0116933D01*
X0063984Y0117107D01*
X0064150Y0117285D01*
X0064311Y0117467D01*
X0064468Y0117653D01*
X0064620Y0117843D01*
X0064768Y0118037D01*
X0064910Y0118234D01*
X0065048Y0118434D01*
X0065181Y0118638D01*
X0065309Y0118845D01*
X0065432Y0119055D01*
X0065549Y0119268D01*
X0065662Y0119484D01*
X0065769Y0119703D01*
X0065870Y0119924D01*
X0065966Y0120148D01*
X0066057Y0120373D01*
X0066142Y0120601D01*
X0066221Y0120831D01*
X0066295Y0121063D01*
X0066363Y0121297D01*
X0066425Y0121532D01*
X0066482Y0121769D01*
X0066533Y0122007D01*
X0066578Y0122246D01*
X0066617Y0122486D01*
X0066650Y0122727D01*
X0066677Y0122969D01*
X0066698Y0123212D01*
X0066713Y0123455D01*
X0066723Y0123698D01*
X0066726Y0123941D01*
X0066723Y0124184D01*
X0066715Y0124428D01*
X0066700Y0124671D01*
X0066680Y0124913D01*
X0066653Y0125155D01*
X0066621Y0125396D01*
X0066583Y0125636D01*
X0066539Y0125876D01*
X0066489Y0126114D01*
X0066433Y0126351D01*
X0066371Y0126586D01*
X0066304Y0126820D01*
X0066231Y0127052D01*
X0066152Y0127283D01*
X0066068Y0127511D01*
X0065978Y0127737D01*
X0065882Y0127961D01*
X0065781Y0128182D01*
X0065675Y0128401D01*
X0065563Y0128617D01*
X0065446Y0128831D01*
X0065324Y0129041D01*
X0065197Y0129249D01*
X0065065Y0129453D01*
X0064927Y0129654D01*
X0064785Y0129851D01*
X0064638Y0130045D01*
X0064487Y0130236D01*
X0064330Y0130422D01*
X0064170Y0130605D01*
X0064004Y0130784D01*
X0063835Y0130958D01*
X0063661Y0131129D01*
X0063483Y0131295D01*
X0063301Y0131456D01*
X0056801Y0111456D02*
X0056801Y0108956D01*
X0059301Y0108956D01*
X0056801Y0108956D02*
X0056801Y0106456D01*
X0056801Y0108956D02*
X0054301Y0108956D01*
X0107032Y0045966D02*
X0111954Y0045966D01*
X0107032Y0045966D02*
X0107032Y0032187D01*
X0107229Y0032187D02*
X0111954Y0032187D01*
X0117859Y0032187D02*
X0122190Y0032187D01*
X0121993Y0032187D02*
X0121993Y0019588D01*
X0127899Y0019588D01*
X0127899Y0032187D01*
X0127702Y0032187D02*
X0132426Y0032187D01*
X0137938Y0032187D02*
X0142662Y0032187D01*
X0142859Y0032187D02*
X0142859Y0045966D01*
X0142662Y0045966D02*
X0137938Y0045966D01*
X0132032Y0045966D02*
X0127702Y0045966D01*
X0121796Y0045966D02*
X0117859Y0045966D01*
X0090481Y0180727D02*
X0090481Y0185231D01*
X0088980Y0185231D02*
X0091982Y0185231D01*
X0087378Y0184480D02*
X0087378Y0182979D01*
X0086628Y0182228D01*
X0084376Y0182228D01*
X0085877Y0182228D02*
X0087378Y0180727D01*
X0084376Y0180727D02*
X0084376Y0185231D01*
X0086628Y0185231D01*
X0087378Y0184480D01*
X0082775Y0184480D02*
X0082775Y0182979D01*
X0082024Y0182228D01*
X0079772Y0182228D01*
X0079772Y0180727D02*
X0079772Y0185231D01*
X0082024Y0185231D01*
X0082775Y0184480D01*
X0078171Y0185231D02*
X0075168Y0182228D01*
X0075919Y0182979D02*
X0078171Y0180727D01*
X0075168Y0180727D02*
X0075168Y0185231D01*
X0073567Y0185231D02*
X0070564Y0185231D01*
X0070564Y0180727D01*
X0073567Y0180727D01*
X0072065Y0182979D02*
X0070564Y0182979D01*
X0068963Y0185231D02*
X0065960Y0185231D01*
X0065960Y0180727D01*
X0068963Y0180727D01*
X0067462Y0182979D02*
X0065960Y0182979D01*
X0064359Y0182979D02*
X0064359Y0181477D01*
X0063608Y0180727D01*
X0062107Y0180727D01*
X0061356Y0181477D01*
X0061356Y0184480D01*
X0062107Y0185231D01*
X0063608Y0185231D01*
X0064359Y0184480D01*
X0064359Y0182979D02*
X0062858Y0182979D01*
D16*
X0063906Y0178277D02*
X0061406Y0175777D01*
X0061406Y0170777D01*
X0063906Y0168277D01*
X0068906Y0168277D01*
X0071406Y0170777D01*
X0073906Y0168277D01*
X0078906Y0168277D01*
X0081406Y0170777D01*
X0083906Y0168277D01*
X0088906Y0168277D01*
X0091406Y0170777D01*
X0091406Y0175777D01*
X0088906Y0178277D01*
X0083906Y0178277D01*
X0081406Y0175777D01*
X0078906Y0178277D01*
X0073906Y0178277D01*
X0071406Y0175777D01*
X0068906Y0178277D01*
X0063906Y0178277D01*
X0071682Y0156505D02*
X0071682Y0131702D01*
X0081131Y0131702D01*
X0081131Y0156505D01*
X0071682Y0156505D01*
X0081682Y0156505D02*
X0081682Y0131702D01*
X0091131Y0131702D01*
X0091131Y0156505D01*
X0081682Y0156505D01*
D17*
X0117432Y0154126D02*
X0117432Y0151626D01*
X0117432Y0154126D02*
X0119932Y0154126D01*
X0129932Y0154126D02*
X0132432Y0154126D01*
X0132432Y0151626D01*
X0132432Y0141626D02*
X0132432Y0139126D01*
X0129932Y0139126D01*
X0119932Y0139126D02*
X0117432Y0139126D01*
X0117432Y0141626D01*
M02*
