G75*
%MOIN*%
%OFA0B0*%
%FSLAX25Y25*%
%IPPOS*%
%LPD*%
%AMOC8*
5,1,8,0,0,1.08239X$1,22.5*
%
%ADD10C,0.01600*%
%ADD11C,0.60000*%
%ADD12C,0.12000*%
%ADD13R,0.06500X0.06500*%
%ADD14C,0.06500*%
%ADD15C,0.07400*%
%ADD16OC8,0.15000*%
%ADD17OC8,0.05200*%
%ADD18C,0.05200*%
%ADD19C,0.00500*%
D10*
X0075619Y0051013D02*
X0075619Y0063316D01*
X0063316Y0063316D01*
X0063316Y0075619D01*
X0051013Y0075619D01*
X0051013Y0087922D01*
X0038709Y0087922D01*
X0038709Y0112528D01*
X0026406Y0112528D01*
X0026406Y0161741D01*
X0038709Y0161741D01*
X0038709Y0174044D01*
X0051013Y0174044D01*
X0051013Y0186347D01*
X0100225Y0186347D01*
X0100225Y0174044D01*
X0112528Y0174044D01*
X0112528Y0161741D01*
X0137135Y0161741D01*
X0137135Y0174044D01*
X0149438Y0174044D01*
X0149438Y0186347D01*
X0198650Y0186347D01*
X0198650Y0174044D01*
X0210954Y0174044D01*
X0210954Y0161741D01*
X0223257Y0161741D01*
X0223257Y0112528D01*
X0210954Y0112528D01*
X0210954Y0087922D01*
X0198650Y0087922D01*
X0198650Y0075619D01*
X0186347Y0075619D01*
X0186347Y0063316D01*
X0174044Y0063316D01*
X0174044Y0051013D01*
X0161741Y0051013D01*
X0161741Y0038709D01*
X0149438Y0038709D01*
X0149438Y0026406D01*
X0137135Y0026406D01*
X0137135Y0014103D01*
X0112528Y0014103D01*
X0112528Y0026406D01*
X0100225Y0026406D01*
X0100225Y0038709D01*
X0087922Y0038709D01*
X0087922Y0051013D01*
X0075619Y0051013D01*
X0078219Y0053613D02*
X0078219Y0063833D01*
X0077823Y0064789D01*
X0077092Y0065520D01*
X0076136Y0065916D01*
X0065916Y0065916D01*
X0065916Y0076136D01*
X0065520Y0077092D01*
X0064789Y0077823D01*
X0063833Y0078219D01*
X0053613Y0078219D01*
X0053613Y0088439D01*
X0053217Y0089395D01*
X0052485Y0090126D01*
X0051530Y0090522D01*
X0041309Y0090522D01*
X0041309Y0113046D01*
X0040914Y0114001D01*
X0040182Y0114733D01*
X0039227Y0115128D01*
X0029006Y0115128D01*
X0029006Y0159141D01*
X0039227Y0159141D01*
X0040182Y0159537D01*
X0040914Y0160268D01*
X0041309Y0161224D01*
X0041309Y0171444D01*
X0051530Y0171444D01*
X0052485Y0171840D01*
X0053217Y0172571D01*
X0053613Y0173527D01*
X0053613Y0183747D01*
X0097625Y0183747D01*
X0097625Y0173527D01*
X0098021Y0172571D01*
X0098752Y0171840D01*
X0099708Y0171444D01*
X0109928Y0171444D01*
X0109928Y0161224D01*
X0110324Y0160268D01*
X0111056Y0159537D01*
X0112011Y0159141D01*
X0137652Y0159141D01*
X0138607Y0159537D01*
X0139339Y0160268D01*
X0139735Y0161224D01*
X0139735Y0171444D01*
X0149955Y0171444D01*
X0150911Y0171840D01*
X0151642Y0172571D01*
X0152038Y0173527D01*
X0152038Y0183747D01*
X0196050Y0183747D01*
X0196050Y0173527D01*
X0196446Y0172571D01*
X0197178Y0171840D01*
X0198133Y0171444D01*
X0208354Y0171444D01*
X0208354Y0161224D01*
X0208749Y0160268D01*
X0209481Y0159537D01*
X0210436Y0159141D01*
X0220657Y0159141D01*
X0220657Y0115128D01*
X0210436Y0115128D01*
X0209481Y0114733D01*
X0208749Y0114001D01*
X0208354Y0113046D01*
X0208354Y0090522D01*
X0198133Y0090522D01*
X0197178Y0090126D01*
X0196446Y0089395D01*
X0196050Y0088439D01*
X0196050Y0078219D01*
X0185830Y0078219D01*
X0184874Y0077823D01*
X0184143Y0077092D01*
X0183747Y0076136D01*
X0183747Y0065916D01*
X0173527Y0065916D01*
X0172571Y0065520D01*
X0171840Y0064789D01*
X0171444Y0063833D01*
X0171444Y0053613D01*
X0161224Y0053613D01*
X0160268Y0053217D01*
X0159537Y0052485D01*
X0159141Y0051530D01*
X0159141Y0041309D01*
X0148921Y0041309D01*
X0147965Y0040914D01*
X0147234Y0040182D01*
X0146838Y0039227D01*
X0146838Y0029006D01*
X0137594Y0029006D01*
X0138676Y0030088D01*
X0139346Y0031705D01*
X0139346Y0033456D01*
X0138676Y0035073D01*
X0137438Y0036311D01*
X0135821Y0036981D01*
X0134183Y0036981D01*
X0195255Y0098053D01*
X0196456Y0099254D01*
X0196456Y0114072D01*
X0198728Y0114072D01*
X0199782Y0115126D01*
X0199782Y0123118D01*
X0198728Y0124172D01*
X0195771Y0124172D01*
X0195915Y0124195D01*
X0196671Y0124440D01*
X0197379Y0124801D01*
X0198022Y0125269D01*
X0198584Y0125831D01*
X0199051Y0126474D01*
X0199412Y0127182D01*
X0199658Y0127938D01*
X0199782Y0128723D01*
X0199782Y0129045D01*
X0194807Y0129045D01*
X0194807Y0129195D01*
X0199782Y0129195D01*
X0199782Y0129518D01*
X0199658Y0130303D01*
X0199412Y0131059D01*
X0199051Y0131767D01*
X0198584Y0132410D01*
X0198022Y0132972D01*
X0197379Y0133440D01*
X0196671Y0133800D01*
X0195915Y0134046D01*
X0195130Y0134170D01*
X0194807Y0134170D01*
X0194807Y0129196D01*
X0194657Y0129196D01*
X0194657Y0134170D01*
X0194335Y0134170D01*
X0193550Y0134046D01*
X0192794Y0133800D01*
X0192085Y0133440D01*
X0191442Y0132972D01*
X0190880Y0132410D01*
X0190413Y0131767D01*
X0190052Y0131059D01*
X0189807Y0130303D01*
X0189682Y0129518D01*
X0189682Y0129195D01*
X0194657Y0129195D01*
X0194657Y0129045D01*
X0189682Y0129045D01*
X0189682Y0128723D01*
X0189807Y0127938D01*
X0190052Y0127182D01*
X0190413Y0126474D01*
X0190880Y0125831D01*
X0191442Y0125269D01*
X0192085Y0124801D01*
X0192794Y0124440D01*
X0193550Y0124195D01*
X0193694Y0124172D01*
X0190737Y0124172D01*
X0189682Y0123118D01*
X0189682Y0115126D01*
X0190737Y0114072D01*
X0192356Y0114072D01*
X0192356Y0100952D01*
X0138908Y0047504D01*
X0138676Y0048065D01*
X0137438Y0049303D01*
X0135821Y0049973D01*
X0134071Y0049973D01*
X0132453Y0049303D01*
X0131216Y0048065D01*
X0131045Y0047653D01*
X0130755Y0047653D01*
X0115577Y0062832D01*
X0115685Y0062795D01*
X0117696Y0062256D01*
X0119738Y0061850D01*
X0121802Y0061578D01*
X0123880Y0061442D01*
X0124121Y0061442D01*
X0124121Y0092442D01*
X0125721Y0092442D01*
X0125721Y0061442D01*
X0125962Y0061442D01*
X0128040Y0061578D01*
X0130104Y0061850D01*
X0132146Y0062256D01*
X0134157Y0062795D01*
X0136129Y0063464D01*
X0138052Y0064261D01*
X0139920Y0065182D01*
X0141723Y0066223D01*
X0143454Y0067380D01*
X0145106Y0068647D01*
X0146671Y0070020D01*
X0148143Y0071492D01*
X0149516Y0073058D01*
X0150783Y0074709D01*
X0151940Y0076441D01*
X0152981Y0078244D01*
X0153902Y0080111D01*
X0154699Y0082035D01*
X0155368Y0084006D01*
X0155907Y0086017D01*
X0156313Y0088059D01*
X0156585Y0090123D01*
X0156721Y0092201D01*
X0156721Y0092442D01*
X0125721Y0092442D01*
X0125721Y0094042D01*
X0156721Y0094042D01*
X0156721Y0094283D01*
X0156585Y0096361D01*
X0156313Y0098425D01*
X0155907Y0100467D01*
X0155368Y0102478D01*
X0154699Y0104450D01*
X0153902Y0106373D01*
X0152981Y0108241D01*
X0151940Y0110044D01*
X0150783Y0111775D01*
X0149516Y0113427D01*
X0148143Y0114992D01*
X0146671Y0116464D01*
X0145106Y0117837D01*
X0143454Y0119104D01*
X0141723Y0120261D01*
X0139920Y0121302D01*
X0138052Y0122223D01*
X0136129Y0123020D01*
X0134157Y0123689D01*
X0132146Y0124228D01*
X0130104Y0124634D01*
X0128040Y0124906D01*
X0125962Y0125042D01*
X0125721Y0125042D01*
X0125721Y0094042D01*
X0124121Y0094042D01*
X0124121Y0125042D01*
X0123880Y0125042D01*
X0121802Y0124906D01*
X0119738Y0124634D01*
X0117696Y0124228D01*
X0115685Y0123689D01*
X0113714Y0123020D01*
X0111790Y0122223D01*
X0109923Y0121302D01*
X0108120Y0120261D01*
X0106388Y0119104D01*
X0104737Y0117837D01*
X0103171Y0116464D01*
X0101699Y0114992D01*
X0100326Y0113427D01*
X0099059Y0111775D01*
X0097902Y0110044D01*
X0096861Y0108241D01*
X0095940Y0106373D01*
X0095143Y0104450D01*
X0094474Y0102478D01*
X0093956Y0100546D01*
X0093956Y0109452D01*
X0084447Y0118962D01*
X0085312Y0118603D01*
X0087500Y0118603D01*
X0089522Y0119440D01*
X0091069Y0120988D01*
X0091906Y0123009D01*
X0091906Y0125197D01*
X0091069Y0127219D01*
X0089522Y0128766D01*
X0087500Y0129603D01*
X0085312Y0129603D01*
X0083291Y0128766D01*
X0081744Y0127219D01*
X0081406Y0126404D01*
X0081069Y0127219D01*
X0079522Y0128766D01*
X0077500Y0129603D01*
X0075312Y0129603D01*
X0073291Y0128766D01*
X0071744Y0127219D01*
X0070906Y0125197D01*
X0070906Y0123009D01*
X0071744Y0120988D01*
X0073291Y0119440D01*
X0075312Y0118603D01*
X0077500Y0118603D01*
X0078566Y0119045D01*
X0089856Y0107754D01*
X0089856Y0105338D01*
X0089339Y0105855D01*
X0086473Y0107042D01*
X0083370Y0107042D01*
X0080503Y0105855D01*
X0078309Y0103660D01*
X0077121Y0100794D01*
X0077121Y0088287D01*
X0058956Y0106452D01*
X0058956Y0113907D01*
X0060797Y0113907D01*
X0061851Y0114961D01*
X0061851Y0122952D01*
X0060797Y0124007D01*
X0057840Y0124007D01*
X0057984Y0124030D01*
X0058739Y0124275D01*
X0059448Y0124636D01*
X0060091Y0125103D01*
X0060653Y0125665D01*
X0061120Y0126309D01*
X0061481Y0127017D01*
X0061727Y0127773D01*
X0061851Y0128558D01*
X0061851Y0128880D01*
X0056876Y0128880D01*
X0056876Y0129030D01*
X0061851Y0129030D01*
X0061851Y0129353D01*
X0061727Y0130138D01*
X0061481Y0130894D01*
X0061120Y0131602D01*
X0060653Y0132245D01*
X0060091Y0132807D01*
X0059448Y0133274D01*
X0058739Y0133635D01*
X0057984Y0133881D01*
X0057198Y0134005D01*
X0056876Y0134005D01*
X0056876Y0129030D01*
X0056726Y0129030D01*
X0056726Y0128880D01*
X0051751Y0128880D01*
X0051751Y0128558D01*
X0051875Y0127773D01*
X0052121Y0127017D01*
X0052482Y0126309D01*
X0052949Y0125665D01*
X0053511Y0125103D01*
X0054154Y0124636D01*
X0054862Y0124275D01*
X0055618Y0124030D01*
X0055762Y0124007D01*
X0052805Y0124007D01*
X0051751Y0122952D01*
X0051751Y0114961D01*
X0052805Y0113907D01*
X0054856Y0113907D01*
X0054856Y0104754D01*
X0056057Y0103553D01*
X0081557Y0078053D01*
X0084557Y0078053D01*
X0113057Y0049553D01*
X0112453Y0049303D01*
X0111216Y0048065D01*
X0110546Y0046448D01*
X0110546Y0044698D01*
X0111216Y0043080D01*
X0112453Y0041843D01*
X0112856Y0041676D01*
X0112856Y0036478D01*
X0112453Y0036311D01*
X0111216Y0035073D01*
X0110546Y0033456D01*
X0110546Y0031705D01*
X0111216Y0030088D01*
X0112298Y0029006D01*
X0102825Y0029006D01*
X0102825Y0039227D01*
X0102429Y0040182D01*
X0101698Y0040914D01*
X0100742Y0041309D01*
X0090522Y0041309D01*
X0090522Y0051530D01*
X0090126Y0052485D01*
X0089395Y0053217D01*
X0088439Y0053613D01*
X0078219Y0053613D01*
X0078219Y0054066D02*
X0108544Y0054066D01*
X0106946Y0055664D02*
X0078219Y0055664D01*
X0078219Y0057263D02*
X0105347Y0057263D01*
X0103749Y0058861D02*
X0078219Y0058861D01*
X0078219Y0060460D02*
X0102150Y0060460D01*
X0100552Y0062058D02*
X0078219Y0062058D01*
X0078219Y0063657D02*
X0098953Y0063657D01*
X0097355Y0065256D02*
X0077356Y0065256D01*
X0065916Y0066854D02*
X0095756Y0066854D01*
X0094158Y0068453D02*
X0065916Y0068453D01*
X0065916Y0070051D02*
X0092559Y0070051D01*
X0090961Y0071650D02*
X0065916Y0071650D01*
X0065916Y0073248D02*
X0089362Y0073248D01*
X0087764Y0074847D02*
X0065916Y0074847D01*
X0065788Y0076445D02*
X0086165Y0076445D01*
X0084567Y0078044D02*
X0064256Y0078044D01*
X0053613Y0079642D02*
X0079968Y0079642D01*
X0078370Y0081241D02*
X0053613Y0081241D01*
X0053613Y0082839D02*
X0076771Y0082839D01*
X0075173Y0084438D02*
X0053613Y0084438D01*
X0053613Y0086036D02*
X0073574Y0086036D01*
X0071976Y0087635D02*
X0053613Y0087635D01*
X0053284Y0089233D02*
X0070377Y0089233D01*
X0068779Y0090832D02*
X0041309Y0090832D01*
X0041309Y0092430D02*
X0067180Y0092430D01*
X0065582Y0094029D02*
X0041309Y0094029D01*
X0041309Y0095627D02*
X0063983Y0095627D01*
X0062385Y0097226D02*
X0041309Y0097226D01*
X0041309Y0098824D02*
X0060786Y0098824D01*
X0059188Y0100423D02*
X0041309Y0100423D01*
X0041309Y0102021D02*
X0057589Y0102021D01*
X0055991Y0103620D02*
X0041309Y0103620D01*
X0041309Y0105218D02*
X0054856Y0105218D01*
X0054856Y0106817D02*
X0041309Y0106817D01*
X0041309Y0108415D02*
X0054856Y0108415D01*
X0054856Y0110014D02*
X0041309Y0110014D01*
X0041309Y0111612D02*
X0054856Y0111612D01*
X0054856Y0113211D02*
X0041241Y0113211D01*
X0039997Y0114809D02*
X0051903Y0114809D01*
X0051751Y0116408D02*
X0029006Y0116408D01*
X0029006Y0118006D02*
X0051751Y0118006D01*
X0051751Y0119605D02*
X0029006Y0119605D01*
X0029006Y0121203D02*
X0051751Y0121203D01*
X0051751Y0122802D02*
X0029006Y0122802D01*
X0029006Y0124400D02*
X0054617Y0124400D01*
X0052707Y0125999D02*
X0029006Y0125999D01*
X0029006Y0127597D02*
X0051932Y0127597D01*
X0051751Y0129030D02*
X0056726Y0129030D01*
X0056726Y0134005D01*
X0056404Y0134005D01*
X0055618Y0133881D01*
X0054862Y0133635D01*
X0054154Y0133274D01*
X0053511Y0132807D01*
X0052949Y0132245D01*
X0052482Y0131602D01*
X0052121Y0130894D01*
X0051875Y0130138D01*
X0051751Y0129353D01*
X0051751Y0129030D01*
X0051751Y0129196D02*
X0029006Y0129196D01*
X0029006Y0130794D02*
X0052089Y0130794D01*
X0053097Y0132393D02*
X0029006Y0132393D01*
X0029006Y0133991D02*
X0056316Y0133991D01*
X0056726Y0133991D02*
X0056876Y0133991D01*
X0057285Y0133991D02*
X0193382Y0133991D01*
X0194657Y0133991D02*
X0194807Y0133991D01*
X0196083Y0133991D02*
X0220657Y0133991D01*
X0220657Y0132393D02*
X0198597Y0132393D01*
X0199498Y0130794D02*
X0220657Y0130794D01*
X0220657Y0129196D02*
X0199782Y0129196D01*
X0199547Y0127597D02*
X0220657Y0127597D01*
X0220657Y0125999D02*
X0198706Y0125999D01*
X0196548Y0124400D02*
X0220657Y0124400D01*
X0220657Y0122802D02*
X0199782Y0122802D01*
X0199782Y0121203D02*
X0220657Y0121203D01*
X0220657Y0119605D02*
X0199782Y0119605D01*
X0199782Y0118006D02*
X0220657Y0118006D01*
X0220657Y0116408D02*
X0199782Y0116408D01*
X0199465Y0114809D02*
X0209666Y0114809D01*
X0208422Y0113211D02*
X0196456Y0113211D01*
X0196456Y0111612D02*
X0208354Y0111612D01*
X0208354Y0110014D02*
X0196456Y0110014D01*
X0196456Y0108415D02*
X0208354Y0108415D01*
X0208354Y0106817D02*
X0196456Y0106817D01*
X0196456Y0105218D02*
X0208354Y0105218D01*
X0208354Y0103620D02*
X0196456Y0103620D01*
X0196456Y0102021D02*
X0208354Y0102021D01*
X0208354Y0100423D02*
X0196456Y0100423D01*
X0196027Y0098824D02*
X0208354Y0098824D01*
X0208354Y0097226D02*
X0194428Y0097226D01*
X0192830Y0095627D02*
X0208354Y0095627D01*
X0208354Y0094029D02*
X0191231Y0094029D01*
X0189632Y0092430D02*
X0208354Y0092430D01*
X0208354Y0090832D02*
X0188034Y0090832D01*
X0186435Y0089233D02*
X0196379Y0089233D01*
X0196050Y0087635D02*
X0184837Y0087635D01*
X0183238Y0086036D02*
X0196050Y0086036D01*
X0196050Y0084438D02*
X0181640Y0084438D01*
X0180041Y0082839D02*
X0196050Y0082839D01*
X0196050Y0081241D02*
X0178443Y0081241D01*
X0176844Y0079642D02*
X0196050Y0079642D01*
X0185407Y0078044D02*
X0175246Y0078044D01*
X0173647Y0076445D02*
X0183875Y0076445D01*
X0183747Y0074847D02*
X0172049Y0074847D01*
X0170450Y0073248D02*
X0183747Y0073248D01*
X0183747Y0071650D02*
X0168852Y0071650D01*
X0167253Y0070051D02*
X0183747Y0070051D01*
X0183747Y0068453D02*
X0165655Y0068453D01*
X0164056Y0066854D02*
X0183747Y0066854D01*
X0172307Y0065256D02*
X0162458Y0065256D01*
X0160859Y0063657D02*
X0171444Y0063657D01*
X0171444Y0062058D02*
X0159261Y0062058D01*
X0157662Y0060460D02*
X0171444Y0060460D01*
X0171444Y0058861D02*
X0156064Y0058861D01*
X0154465Y0057263D02*
X0171444Y0057263D01*
X0171444Y0055664D02*
X0152867Y0055664D01*
X0151268Y0054066D02*
X0171444Y0054066D01*
X0159529Y0052467D02*
X0149670Y0052467D01*
X0148071Y0050869D02*
X0159141Y0050869D01*
X0159141Y0049270D02*
X0146473Y0049270D01*
X0144874Y0047672D02*
X0159141Y0047672D01*
X0159141Y0046073D02*
X0143276Y0046073D01*
X0141677Y0044475D02*
X0159141Y0044475D01*
X0159141Y0042876D02*
X0140079Y0042876D01*
X0138480Y0041278D02*
X0148844Y0041278D01*
X0147025Y0039679D02*
X0136882Y0039679D01*
X0135283Y0038081D02*
X0146838Y0038081D01*
X0146838Y0036482D02*
X0137024Y0036482D01*
X0138754Y0034884D02*
X0146838Y0034884D01*
X0146838Y0033285D02*
X0139346Y0033285D01*
X0139338Y0031687D02*
X0146838Y0031687D01*
X0146838Y0030088D02*
X0138676Y0030088D01*
X0138839Y0047672D02*
X0139076Y0047672D01*
X0140674Y0049270D02*
X0137471Y0049270D01*
X0142273Y0050869D02*
X0127540Y0050869D01*
X0129138Y0049270D02*
X0132421Y0049270D01*
X0131053Y0047672D02*
X0130737Y0047672D01*
X0125941Y0052467D02*
X0143871Y0052467D01*
X0145470Y0054066D02*
X0124343Y0054066D01*
X0122744Y0055664D02*
X0147068Y0055664D01*
X0148667Y0057263D02*
X0121146Y0057263D01*
X0119547Y0058861D02*
X0150265Y0058861D01*
X0151864Y0060460D02*
X0117949Y0060460D01*
X0118690Y0062058D02*
X0116350Y0062058D01*
X0124121Y0062058D02*
X0125721Y0062058D01*
X0125721Y0063657D02*
X0124121Y0063657D01*
X0124121Y0065256D02*
X0125721Y0065256D01*
X0125721Y0066854D02*
X0124121Y0066854D01*
X0124121Y0068453D02*
X0125721Y0068453D01*
X0125721Y0070051D02*
X0124121Y0070051D01*
X0124121Y0071650D02*
X0125721Y0071650D01*
X0125721Y0073248D02*
X0124121Y0073248D01*
X0124121Y0074847D02*
X0125721Y0074847D01*
X0125721Y0076445D02*
X0124121Y0076445D01*
X0124121Y0078044D02*
X0125721Y0078044D01*
X0125721Y0079642D02*
X0124121Y0079642D01*
X0124121Y0081241D02*
X0125721Y0081241D01*
X0125721Y0082839D02*
X0124121Y0082839D01*
X0124121Y0084438D02*
X0125721Y0084438D01*
X0125721Y0086036D02*
X0124121Y0086036D01*
X0124121Y0087635D02*
X0125721Y0087635D01*
X0125721Y0089233D02*
X0124121Y0089233D01*
X0124121Y0090832D02*
X0125721Y0090832D01*
X0125721Y0092430D02*
X0124121Y0092430D01*
X0125721Y0094029D02*
X0157121Y0094029D01*
X0157121Y0095627D02*
X0156633Y0095627D01*
X0156471Y0097226D02*
X0157121Y0097226D01*
X0157121Y0098824D02*
X0156234Y0098824D01*
X0155916Y0100423D02*
X0157121Y0100423D01*
X0157121Y0100794D02*
X0158309Y0103660D01*
X0160503Y0105855D01*
X0163370Y0107042D01*
X0166473Y0107042D01*
X0169339Y0105855D01*
X0171534Y0103660D01*
X0172721Y0100794D01*
X0172721Y0085691D01*
X0171534Y0082824D01*
X0169339Y0080630D01*
X0166473Y0079442D01*
X0163370Y0079442D01*
X0160503Y0080630D01*
X0158309Y0082824D01*
X0157121Y0085691D01*
X0157121Y0100794D01*
X0157630Y0102021D02*
X0155490Y0102021D01*
X0154981Y0103620D02*
X0158292Y0103620D01*
X0159866Y0105218D02*
X0154380Y0105218D01*
X0153683Y0106817D02*
X0162826Y0106817D01*
X0167016Y0106817D02*
X0192356Y0106817D01*
X0192356Y0108415D02*
X0152880Y0108415D01*
X0151957Y0110014D02*
X0192356Y0110014D01*
X0192356Y0111612D02*
X0150892Y0111612D01*
X0149682Y0113211D02*
X0192356Y0113211D01*
X0189999Y0114809D02*
X0148303Y0114809D01*
X0146727Y0116408D02*
X0189682Y0116408D01*
X0189682Y0118006D02*
X0144885Y0118006D01*
X0142705Y0119605D02*
X0189682Y0119605D01*
X0189682Y0121203D02*
X0140091Y0121203D01*
X0136655Y0122802D02*
X0189682Y0122802D01*
X0190758Y0125999D02*
X0091574Y0125999D01*
X0091906Y0124400D02*
X0118563Y0124400D01*
X0124121Y0124400D02*
X0125721Y0124400D01*
X0125721Y0122802D02*
X0124121Y0122802D01*
X0124121Y0121203D02*
X0125721Y0121203D01*
X0125721Y0119605D02*
X0124121Y0119605D01*
X0124121Y0118006D02*
X0125721Y0118006D01*
X0125721Y0116408D02*
X0124121Y0116408D01*
X0124121Y0114809D02*
X0125721Y0114809D01*
X0125721Y0113211D02*
X0124121Y0113211D01*
X0124121Y0111612D02*
X0125721Y0111612D01*
X0125721Y0110014D02*
X0124121Y0110014D01*
X0124121Y0108415D02*
X0125721Y0108415D01*
X0125721Y0106817D02*
X0124121Y0106817D01*
X0124121Y0105218D02*
X0125721Y0105218D01*
X0125721Y0103620D02*
X0124121Y0103620D01*
X0124121Y0102021D02*
X0125721Y0102021D01*
X0125721Y0100423D02*
X0124121Y0100423D01*
X0124121Y0098824D02*
X0125721Y0098824D01*
X0125721Y0097226D02*
X0124121Y0097226D01*
X0124121Y0095627D02*
X0125721Y0095627D01*
X0101539Y0114809D02*
X0088599Y0114809D01*
X0090198Y0113211D02*
X0100161Y0113211D01*
X0098950Y0111612D02*
X0091796Y0111612D01*
X0093395Y0110014D02*
X0097885Y0110014D01*
X0096962Y0108415D02*
X0093956Y0108415D01*
X0093956Y0106817D02*
X0096159Y0106817D01*
X0095462Y0105218D02*
X0093956Y0105218D01*
X0093956Y0103620D02*
X0094862Y0103620D01*
X0094352Y0102021D02*
X0093956Y0102021D01*
X0089856Y0106817D02*
X0087016Y0106817D01*
X0089195Y0108415D02*
X0058956Y0108415D01*
X0058956Y0106817D02*
X0082826Y0106817D01*
X0079866Y0105218D02*
X0060190Y0105218D01*
X0061789Y0103620D02*
X0078292Y0103620D01*
X0077630Y0102021D02*
X0063387Y0102021D01*
X0064986Y0100423D02*
X0077121Y0100423D01*
X0077121Y0098824D02*
X0066584Y0098824D01*
X0068183Y0097226D02*
X0077121Y0097226D01*
X0077121Y0095627D02*
X0069781Y0095627D01*
X0071380Y0094029D02*
X0077121Y0094029D01*
X0077121Y0092430D02*
X0072978Y0092430D01*
X0074577Y0090832D02*
X0077121Y0090832D01*
X0077121Y0089233D02*
X0076175Y0089233D01*
X0087596Y0110014D02*
X0058956Y0110014D01*
X0058956Y0111612D02*
X0085998Y0111612D01*
X0084399Y0113211D02*
X0058956Y0113211D01*
X0061699Y0114809D02*
X0082801Y0114809D01*
X0081202Y0116408D02*
X0061851Y0116408D01*
X0061851Y0118006D02*
X0079604Y0118006D01*
X0073126Y0119605D02*
X0061851Y0119605D01*
X0061851Y0121203D02*
X0071654Y0121203D01*
X0070992Y0122802D02*
X0061851Y0122802D01*
X0058985Y0124400D02*
X0070906Y0124400D01*
X0071238Y0125999D02*
X0060895Y0125999D01*
X0061670Y0127597D02*
X0072122Y0127597D01*
X0074329Y0129196D02*
X0061851Y0129196D01*
X0061513Y0130794D02*
X0189966Y0130794D01*
X0189682Y0129196D02*
X0088483Y0129196D01*
X0090690Y0127597D02*
X0189917Y0127597D01*
X0192917Y0124400D02*
X0131279Y0124400D01*
X0128784Y0137326D02*
X0121080Y0137326D01*
X0115632Y0142774D01*
X0115632Y0150478D01*
X0121080Y0155926D01*
X0128784Y0155926D01*
X0134232Y0150478D01*
X0134232Y0142774D01*
X0128784Y0137326D01*
X0130245Y0138787D02*
X0220657Y0138787D01*
X0220657Y0137189D02*
X0029006Y0137189D01*
X0029006Y0138787D02*
X0119619Y0138787D01*
X0118021Y0140386D02*
X0029006Y0140386D01*
X0029006Y0141984D02*
X0116422Y0141984D01*
X0115632Y0143583D02*
X0029006Y0143583D01*
X0029006Y0145181D02*
X0115632Y0145181D01*
X0115632Y0146780D02*
X0029006Y0146780D01*
X0029006Y0148378D02*
X0115632Y0148378D01*
X0115632Y0149977D02*
X0029006Y0149977D01*
X0029006Y0151575D02*
X0116729Y0151575D01*
X0118327Y0153174D02*
X0029006Y0153174D01*
X0029006Y0154772D02*
X0119926Y0154772D01*
X0129938Y0154772D02*
X0220657Y0154772D01*
X0220657Y0153174D02*
X0131537Y0153174D01*
X0133135Y0151575D02*
X0220657Y0151575D01*
X0220657Y0149977D02*
X0134232Y0149977D01*
X0134232Y0148378D02*
X0220657Y0148378D01*
X0220657Y0146780D02*
X0134232Y0146780D01*
X0134232Y0145181D02*
X0220657Y0145181D01*
X0220657Y0143583D02*
X0134232Y0143583D01*
X0133442Y0141984D02*
X0220657Y0141984D01*
X0220657Y0140386D02*
X0131844Y0140386D01*
X0138638Y0159568D02*
X0209450Y0159568D01*
X0208377Y0161166D02*
X0139711Y0161166D01*
X0139735Y0162765D02*
X0208354Y0162765D01*
X0208354Y0164363D02*
X0139735Y0164363D01*
X0139735Y0165962D02*
X0208354Y0165962D01*
X0208354Y0167560D02*
X0139735Y0167560D01*
X0139735Y0169159D02*
X0208354Y0169159D01*
X0208354Y0170757D02*
X0139735Y0170757D01*
X0151426Y0172356D02*
X0196662Y0172356D01*
X0196050Y0173954D02*
X0152038Y0173954D01*
X0152038Y0175553D02*
X0196050Y0175553D01*
X0196050Y0177151D02*
X0152038Y0177151D01*
X0152038Y0178750D02*
X0196050Y0178750D01*
X0196050Y0180348D02*
X0152038Y0180348D01*
X0152038Y0181947D02*
X0196050Y0181947D01*
X0196050Y0183545D02*
X0152038Y0183545D01*
X0109928Y0170757D02*
X0091109Y0170757D01*
X0091069Y0170661D02*
X0091906Y0172683D01*
X0091906Y0174871D01*
X0091069Y0176892D01*
X0089522Y0178439D01*
X0087500Y0179277D01*
X0085312Y0179277D01*
X0083291Y0178439D01*
X0081744Y0176892D01*
X0081199Y0175578D01*
X0081069Y0175892D01*
X0079522Y0177439D01*
X0077500Y0178277D01*
X0075312Y0178277D01*
X0073291Y0177439D01*
X0071744Y0175892D01*
X0071608Y0175565D01*
X0071503Y0175888D01*
X0071110Y0176659D01*
X0070601Y0177360D01*
X0069989Y0177972D01*
X0069289Y0178481D01*
X0068518Y0178874D01*
X0067694Y0179141D01*
X0066839Y0179277D01*
X0066606Y0179277D01*
X0066606Y0173977D01*
X0066206Y0173977D01*
X0066206Y0173577D01*
X0060906Y0173577D01*
X0060906Y0173344D01*
X0061042Y0172489D01*
X0061309Y0171666D01*
X0061702Y0170894D01*
X0062211Y0170194D01*
X0062823Y0169582D01*
X0063524Y0169073D01*
X0064295Y0168680D01*
X0065118Y0168412D01*
X0065973Y0168277D01*
X0066206Y0168277D01*
X0066206Y0173577D01*
X0066606Y0173577D01*
X0066606Y0168277D01*
X0066839Y0168277D01*
X0067694Y0168412D01*
X0068518Y0168680D01*
X0069289Y0169073D01*
X0069989Y0169582D01*
X0070601Y0170194D01*
X0071110Y0170894D01*
X0071178Y0171027D01*
X0071744Y0169661D01*
X0072965Y0168440D01*
X0071744Y0167219D01*
X0070906Y0165197D01*
X0070906Y0163009D01*
X0071744Y0160988D01*
X0073291Y0159440D01*
X0075312Y0158603D01*
X0077500Y0158603D01*
X0079522Y0159440D01*
X0081069Y0160988D01*
X0081406Y0161802D01*
X0081744Y0160988D01*
X0083291Y0159440D01*
X0085312Y0158603D01*
X0087500Y0158603D01*
X0089522Y0159440D01*
X0091069Y0160988D01*
X0091906Y0163009D01*
X0091906Y0165197D01*
X0091069Y0167219D01*
X0089522Y0168766D01*
X0089101Y0168940D01*
X0089522Y0169114D01*
X0091069Y0170661D01*
X0091771Y0172356D02*
X0098237Y0172356D01*
X0097625Y0173954D02*
X0091906Y0173954D01*
X0091624Y0175553D02*
X0097625Y0175553D01*
X0097625Y0177151D02*
X0090810Y0177151D01*
X0088772Y0178750D02*
X0097625Y0178750D01*
X0097625Y0180348D02*
X0053613Y0180348D01*
X0053613Y0178750D02*
X0064052Y0178750D01*
X0064295Y0178874D02*
X0063524Y0178481D01*
X0062823Y0177972D01*
X0062211Y0177360D01*
X0061702Y0176659D01*
X0061309Y0175888D01*
X0061042Y0175065D01*
X0060906Y0174210D01*
X0060906Y0173977D01*
X0066206Y0173977D01*
X0066206Y0179277D01*
X0065973Y0179277D01*
X0065118Y0179141D01*
X0064295Y0178874D01*
X0066206Y0178750D02*
X0066606Y0178750D01*
X0066606Y0177151D02*
X0066206Y0177151D01*
X0066206Y0175553D02*
X0066606Y0175553D01*
X0066206Y0173954D02*
X0053613Y0173954D01*
X0053613Y0175553D02*
X0061200Y0175553D01*
X0062060Y0177151D02*
X0053613Y0177151D01*
X0053613Y0181947D02*
X0097625Y0181947D01*
X0097625Y0183545D02*
X0053613Y0183545D01*
X0053001Y0172356D02*
X0061085Y0172356D01*
X0061802Y0170757D02*
X0041309Y0170757D01*
X0041309Y0169159D02*
X0063405Y0169159D01*
X0066206Y0169159D02*
X0066606Y0169159D01*
X0066606Y0170757D02*
X0066206Y0170757D01*
X0066206Y0172356D02*
X0066606Y0172356D01*
X0069407Y0169159D02*
X0072246Y0169159D01*
X0072085Y0167560D02*
X0041309Y0167560D01*
X0041309Y0165962D02*
X0071223Y0165962D01*
X0070906Y0164363D02*
X0041309Y0164363D01*
X0041309Y0162765D02*
X0071008Y0162765D01*
X0071670Y0161166D02*
X0041286Y0161166D01*
X0040213Y0159568D02*
X0073164Y0159568D01*
X0079649Y0159568D02*
X0083164Y0159568D01*
X0081670Y0161166D02*
X0081143Y0161166D01*
X0089649Y0159568D02*
X0111025Y0159568D01*
X0109952Y0161166D02*
X0091143Y0161166D01*
X0091805Y0162765D02*
X0109928Y0162765D01*
X0109928Y0164363D02*
X0091906Y0164363D01*
X0091590Y0165962D02*
X0109928Y0165962D01*
X0109928Y0167560D02*
X0090727Y0167560D01*
X0089566Y0169159D02*
X0109928Y0169159D01*
X0084040Y0178750D02*
X0068761Y0178750D01*
X0070753Y0177151D02*
X0073003Y0177151D01*
X0079810Y0177151D02*
X0082003Y0177151D01*
X0071290Y0170757D02*
X0071011Y0170757D01*
X0029006Y0157969D02*
X0220657Y0157969D01*
X0220657Y0156371D02*
X0029006Y0156371D01*
X0029006Y0135590D02*
X0220657Y0135590D01*
X0194807Y0132393D02*
X0194657Y0132393D01*
X0194657Y0130794D02*
X0194807Y0130794D01*
X0194807Y0129196D02*
X0194657Y0129196D01*
X0190868Y0132393D02*
X0060505Y0132393D01*
X0056876Y0132393D02*
X0056726Y0132393D01*
X0056726Y0130794D02*
X0056876Y0130794D01*
X0056876Y0129196D02*
X0056726Y0129196D01*
X0078483Y0129196D02*
X0084329Y0129196D01*
X0082122Y0127597D02*
X0080690Y0127597D01*
X0089686Y0119605D02*
X0107137Y0119605D01*
X0104957Y0118006D02*
X0085402Y0118006D01*
X0087001Y0116408D02*
X0103115Y0116408D01*
X0109751Y0121203D02*
X0091158Y0121203D01*
X0091820Y0122802D02*
X0113187Y0122802D01*
X0156721Y0092430D02*
X0157121Y0092430D01*
X0157121Y0090832D02*
X0156631Y0090832D01*
X0156468Y0089233D02*
X0157121Y0089233D01*
X0157121Y0087635D02*
X0156229Y0087635D01*
X0155911Y0086036D02*
X0157121Y0086036D01*
X0157640Y0084438D02*
X0155484Y0084438D01*
X0154972Y0082839D02*
X0158302Y0082839D01*
X0159892Y0081241D02*
X0154370Y0081241D01*
X0153671Y0079642D02*
X0162887Y0079642D01*
X0166955Y0079642D02*
X0171046Y0079642D01*
X0169950Y0081241D02*
X0172645Y0081241D01*
X0171540Y0082839D02*
X0174243Y0082839D01*
X0175842Y0084438D02*
X0172202Y0084438D01*
X0172721Y0086036D02*
X0177440Y0086036D01*
X0179039Y0087635D02*
X0172721Y0087635D01*
X0172721Y0089233D02*
X0180637Y0089233D01*
X0182236Y0090832D02*
X0172721Y0090832D01*
X0172721Y0092430D02*
X0183834Y0092430D01*
X0185433Y0094029D02*
X0172721Y0094029D01*
X0172721Y0095627D02*
X0187031Y0095627D01*
X0188630Y0097226D02*
X0172721Y0097226D01*
X0172721Y0098824D02*
X0190228Y0098824D01*
X0191827Y0100423D02*
X0172721Y0100423D01*
X0172213Y0102021D02*
X0192356Y0102021D01*
X0192356Y0103620D02*
X0171550Y0103620D01*
X0169976Y0105218D02*
X0192356Y0105218D01*
X0169448Y0078044D02*
X0152866Y0078044D01*
X0151943Y0076445D02*
X0167849Y0076445D01*
X0166251Y0074847D02*
X0150875Y0074847D01*
X0149662Y0073248D02*
X0164652Y0073248D01*
X0163054Y0071650D02*
X0148281Y0071650D01*
X0146702Y0070051D02*
X0161455Y0070051D01*
X0159857Y0068453D02*
X0144852Y0068453D01*
X0142667Y0066854D02*
X0158258Y0066854D01*
X0156660Y0065256D02*
X0140047Y0065256D01*
X0136594Y0063657D02*
X0155061Y0063657D01*
X0153463Y0062058D02*
X0131152Y0062058D01*
X0112421Y0049270D02*
X0090522Y0049270D01*
X0090522Y0047672D02*
X0111053Y0047672D01*
X0110546Y0046073D02*
X0090522Y0046073D01*
X0090522Y0044475D02*
X0110638Y0044475D01*
X0111420Y0042876D02*
X0090522Y0042876D01*
X0090522Y0050869D02*
X0111741Y0050869D01*
X0110143Y0052467D02*
X0090134Y0052467D01*
X0100819Y0041278D02*
X0112856Y0041278D01*
X0112856Y0039679D02*
X0102638Y0039679D01*
X0102825Y0038081D02*
X0112856Y0038081D01*
X0112856Y0036482D02*
X0102825Y0036482D01*
X0102825Y0034884D02*
X0111137Y0034884D01*
X0110546Y0033285D02*
X0102825Y0033285D01*
X0102825Y0031687D02*
X0110553Y0031687D01*
X0111216Y0030088D02*
X0102825Y0030088D01*
D11*
X0124921Y0093242D03*
D12*
X0084921Y0087242D02*
X0084921Y0099242D01*
X0164921Y0099242D02*
X0164921Y0087242D01*
D13*
X0194732Y0119122D03*
X0056801Y0118957D03*
D14*
X0056801Y0128955D03*
X0194732Y0129120D03*
D15*
X0086406Y0124103D03*
X0076406Y0124103D03*
X0076406Y0164103D03*
X0086406Y0164103D03*
X0086406Y0173777D03*
X0076406Y0172777D03*
X0066406Y0173777D03*
D16*
X0124932Y0146626D03*
D17*
X0124946Y0045573D03*
X0124946Y0032581D03*
D18*
X0134946Y0032581D03*
X0134946Y0045573D03*
X0114946Y0045573D03*
X0114946Y0032581D03*
D19*
X0114906Y0032603D01*
X0114906Y0045103D01*
X0114946Y0045573D01*
X0119906Y0045603D02*
X0085406Y0080103D01*
X0082406Y0080103D01*
X0056906Y0105603D01*
X0056906Y0118603D01*
X0056801Y0118957D01*
X0056906Y0128603D02*
X0056801Y0128955D01*
X0056906Y0129103D01*
X0056906Y0164103D01*
X0066406Y0173603D01*
X0066406Y0173777D01*
X0076406Y0172777D02*
X0076406Y0164103D01*
X0086406Y0164103D02*
X0086406Y0173777D01*
X0089906Y0128603D02*
X0056906Y0128603D01*
X0076406Y0124103D02*
X0091906Y0108603D01*
X0091906Y0082603D01*
X0106906Y0067603D01*
X0107906Y0067603D01*
X0129906Y0045603D01*
X0134906Y0045603D01*
X0134946Y0045573D01*
X0124946Y0045573D02*
X0124906Y0045603D01*
X0119906Y0045603D01*
X0124946Y0032581D02*
X0125406Y0032603D01*
X0126906Y0032603D01*
X0194406Y0100103D01*
X0194406Y0119103D01*
X0194732Y0119122D01*
X0194406Y0129103D02*
X0194732Y0129120D01*
X0194406Y0129103D02*
X0160906Y0129103D01*
X0125406Y0093603D01*
X0124921Y0093242D01*
X0124906Y0093603D01*
X0089906Y0128603D01*
M02*
