%
M48
M72
T01C0.03000
T02C0.03200
T03C0.03500
T04C0.03543
T05C0.04000
T06C0.05500
%
T01
X84921Y93242
X164921Y93242
T02
X114946Y45573
X124946Y45573
X134946Y45573
X134946Y32581
X124946Y32581
X114946Y32581
T03
X56801Y118957
X56801Y128955
X194732Y129120
X194732Y119122
T04
X76406Y124103
X86406Y124103
X86406Y164103
X76406Y164103
T05
X76406Y172777
X66406Y173777
X86406Y173777
T06
X124932Y146626
M30
