G75*
%MOIN*%
%OFA0B0*%
%FSLAX25Y25*%
%IPPOS*%
%LPD*%
%AMOC8*
5,1,8,0,0,1.08239X$1,22.5*
%
%ADD10C,0.01600*%
%ADD11C,0.12400*%
%ADD12R,0.06900X0.06900*%
%ADD13C,0.06900*%
%ADD14C,0.07800*%
%ADD15OC8,0.15400*%
%ADD16OC8,0.05600*%
%ADD17C,0.05600*%
D10*
X0075619Y0051013D02*
X0075619Y0063316D01*
X0063316Y0063316D01*
X0063316Y0075619D01*
X0051013Y0075619D01*
X0051013Y0087922D01*
X0038709Y0087922D01*
X0038709Y0112528D01*
X0026406Y0112528D01*
X0026406Y0161741D01*
X0038709Y0161741D01*
X0038709Y0174044D01*
X0051013Y0174044D01*
X0051013Y0186347D01*
X0100225Y0186347D01*
X0100225Y0174044D01*
X0112528Y0174044D01*
X0112528Y0161741D01*
X0137135Y0161741D01*
X0137135Y0174044D01*
X0149438Y0174044D01*
X0149438Y0186347D01*
X0198650Y0186347D01*
X0198650Y0174044D01*
X0210954Y0174044D01*
X0210954Y0161741D01*
X0223257Y0161741D01*
X0223257Y0112528D01*
X0210954Y0112528D01*
X0210954Y0087922D01*
X0198650Y0087922D01*
X0198650Y0075619D01*
X0186347Y0075619D01*
X0186347Y0063316D01*
X0174044Y0063316D01*
X0174044Y0051013D01*
X0161741Y0051013D01*
X0161741Y0038709D01*
X0149438Y0038709D01*
X0149438Y0026406D01*
X0137135Y0026406D01*
X0137135Y0014103D01*
X0112528Y0014103D01*
X0112528Y0026406D01*
X0100225Y0026406D01*
X0100225Y0038709D01*
X0087922Y0038709D01*
X0087922Y0051013D01*
X0075619Y0051013D01*
D11*
X0084921Y0087242D02*
X0084921Y0099242D01*
X0164921Y0099242D02*
X0164921Y0087242D01*
D12*
X0194732Y0119122D03*
X0056801Y0118957D03*
D13*
X0056801Y0128955D03*
X0194732Y0129120D03*
D14*
X0086406Y0124103D03*
X0076406Y0124103D03*
X0076406Y0164103D03*
X0086406Y0164103D03*
X0086406Y0173777D03*
X0076406Y0172777D03*
X0066406Y0173777D03*
D15*
X0124932Y0146626D03*
D16*
X0124946Y0045573D03*
X0124946Y0032581D03*
D17*
X0134946Y0032581D03*
X0134946Y0045573D03*
X0114946Y0045573D03*
X0114946Y0032581D03*
M02*
