G75*
%MOIN*%
%OFA0B0*%
%FSLAX25Y25*%
%IPPOS*%
%LPD*%
%AMOC8*
5,1,8,0,0,1.08239X$1,22.5*
%
%ADD10C,0.01600*%
%ADD11C,0.00100*%
%ADD12C,0.01000*%
D10*
X0075619Y0051013D02*
X0075619Y0063316D01*
X0063316Y0063316D01*
X0063316Y0075619D01*
X0051013Y0075619D01*
X0051013Y0087922D01*
X0038709Y0087922D01*
X0038709Y0112528D01*
X0026406Y0112528D01*
X0026406Y0161741D01*
X0038709Y0161741D01*
X0038709Y0174044D01*
X0051013Y0174044D01*
X0051013Y0186347D01*
X0100225Y0186347D01*
X0100225Y0174044D01*
X0112528Y0174044D01*
X0112528Y0161741D01*
X0137135Y0161741D01*
X0137135Y0174044D01*
X0149438Y0174044D01*
X0149438Y0186347D01*
X0198650Y0186347D01*
X0198650Y0174044D01*
X0210954Y0174044D01*
X0210954Y0161741D01*
X0223257Y0161741D01*
X0223257Y0112528D01*
X0210954Y0112528D01*
X0210954Y0087922D01*
X0198650Y0087922D01*
X0198650Y0075619D01*
X0186347Y0075619D01*
X0186347Y0063316D01*
X0174044Y0063316D01*
X0174044Y0051013D01*
X0161741Y0051013D01*
X0161741Y0038709D01*
X0149438Y0038709D01*
X0149438Y0026406D01*
X0137135Y0026406D01*
X0137135Y0014103D01*
X0112528Y0014103D01*
X0112528Y0026406D01*
X0100225Y0026406D01*
X0100225Y0038709D01*
X0087922Y0038709D01*
X0087922Y0051013D01*
X0075619Y0051013D01*
D11*
X0154475Y0140837D02*
X0158647Y0137148D01*
X0169551Y0137148D01*
X0173623Y0140773D01*
X0173623Y0146421D01*
X0173604Y0146694D01*
X0173586Y0146840D01*
X0166681Y0146840D01*
X0166681Y0144745D01*
X0165616Y0143515D01*
X0162427Y0143515D01*
X0161453Y0144572D01*
X0161453Y0147596D01*
X0162746Y0148388D01*
X0165242Y0149372D01*
X0168913Y0150766D01*
X0173213Y0152451D01*
X0173213Y0162991D01*
X0169214Y0166598D01*
X0158793Y0166598D01*
X0154839Y0163036D01*
X0154839Y0157744D01*
X0154858Y0157489D01*
X0154876Y0157325D01*
X0161580Y0157325D01*
X0161580Y0159456D01*
X0162619Y0160540D01*
X0165534Y0160540D01*
X0166517Y0159538D01*
X0166517Y0156714D01*
X0165297Y0155976D01*
X0162500Y0154974D01*
X0173213Y0154974D01*
X0173213Y0154876D02*
X0162225Y0154876D01*
X0161951Y0154777D02*
X0173213Y0154777D01*
X0173213Y0154679D02*
X0161677Y0154679D01*
X0161402Y0154580D02*
X0173213Y0154580D01*
X0173213Y0154482D02*
X0161128Y0154482D01*
X0160854Y0154383D02*
X0173213Y0154383D01*
X0173213Y0154285D02*
X0160579Y0154285D01*
X0160305Y0154186D02*
X0173213Y0154186D01*
X0173213Y0154088D02*
X0160030Y0154088D01*
X0159756Y0153989D02*
X0173213Y0153989D01*
X0173213Y0153891D02*
X0159482Y0153891D01*
X0159207Y0153792D02*
X0173213Y0153792D01*
X0173213Y0153694D02*
X0158933Y0153694D01*
X0158720Y0153617D02*
X0162500Y0154974D01*
X0162775Y0155073D02*
X0173213Y0155073D01*
X0173213Y0155171D02*
X0163050Y0155171D01*
X0163325Y0155270D02*
X0173213Y0155270D01*
X0173213Y0155368D02*
X0163600Y0155368D01*
X0163874Y0155467D02*
X0173213Y0155467D01*
X0173213Y0155565D02*
X0164149Y0155565D01*
X0164424Y0155664D02*
X0173213Y0155664D01*
X0173213Y0155762D02*
X0164699Y0155762D01*
X0164974Y0155861D02*
X0173213Y0155861D01*
X0173213Y0155959D02*
X0165249Y0155959D01*
X0165431Y0156058D02*
X0173213Y0156058D01*
X0173213Y0156156D02*
X0165594Y0156156D01*
X0165757Y0156255D02*
X0173213Y0156255D01*
X0173213Y0156353D02*
X0165920Y0156353D01*
X0166083Y0156452D02*
X0173213Y0156452D01*
X0173213Y0156551D02*
X0166246Y0156551D01*
X0166409Y0156649D02*
X0173213Y0156649D01*
X0173213Y0156748D02*
X0166517Y0156748D01*
X0166517Y0156846D02*
X0173213Y0156846D01*
X0173213Y0156945D02*
X0166517Y0156945D01*
X0166517Y0157043D02*
X0173213Y0157043D01*
X0173213Y0157142D02*
X0166517Y0157142D01*
X0166517Y0157240D02*
X0173213Y0157240D01*
X0173213Y0157339D02*
X0166517Y0157339D01*
X0166517Y0157437D02*
X0173213Y0157437D01*
X0173213Y0157536D02*
X0166517Y0157536D01*
X0166517Y0157634D02*
X0173213Y0157634D01*
X0173213Y0157733D02*
X0166517Y0157733D01*
X0166517Y0157831D02*
X0173213Y0157831D01*
X0173213Y0157930D02*
X0166517Y0157930D01*
X0166517Y0158028D02*
X0173213Y0158028D01*
X0173213Y0158127D02*
X0166517Y0158127D01*
X0166517Y0158225D02*
X0173213Y0158225D01*
X0173213Y0158324D02*
X0166517Y0158324D01*
X0166517Y0158422D02*
X0173213Y0158422D01*
X0173213Y0158521D02*
X0166517Y0158521D01*
X0166517Y0158619D02*
X0173213Y0158619D01*
X0173213Y0158718D02*
X0166517Y0158718D01*
X0166517Y0158816D02*
X0173213Y0158816D01*
X0173213Y0158915D02*
X0166517Y0158915D01*
X0166517Y0159013D02*
X0173213Y0159013D01*
X0173213Y0159112D02*
X0166517Y0159112D01*
X0166517Y0159210D02*
X0173213Y0159210D01*
X0173213Y0159309D02*
X0166517Y0159309D01*
X0166517Y0159407D02*
X0173213Y0159407D01*
X0173213Y0159506D02*
X0166517Y0159506D01*
X0166452Y0159604D02*
X0173213Y0159604D01*
X0173213Y0159703D02*
X0166356Y0159703D01*
X0166259Y0159801D02*
X0173213Y0159801D01*
X0173213Y0159900D02*
X0166162Y0159900D01*
X0166065Y0159998D02*
X0173213Y0159998D01*
X0173213Y0160097D02*
X0165969Y0160097D01*
X0165872Y0160195D02*
X0173213Y0160195D01*
X0173213Y0160294D02*
X0165775Y0160294D01*
X0165679Y0160392D02*
X0173213Y0160392D01*
X0173213Y0160491D02*
X0165582Y0160491D01*
X0162571Y0160491D02*
X0154839Y0160491D01*
X0154839Y0160589D02*
X0173213Y0160589D01*
X0173213Y0160688D02*
X0154839Y0160688D01*
X0154839Y0160787D02*
X0173213Y0160787D01*
X0173213Y0160885D02*
X0154839Y0160885D01*
X0154839Y0160984D02*
X0173213Y0160984D01*
X0173213Y0161082D02*
X0154839Y0161082D01*
X0154839Y0161181D02*
X0173213Y0161181D01*
X0173213Y0161279D02*
X0154839Y0161279D01*
X0154839Y0161378D02*
X0173213Y0161378D01*
X0173213Y0161476D02*
X0154839Y0161476D01*
X0154839Y0161575D02*
X0173213Y0161575D01*
X0173213Y0161673D02*
X0154839Y0161673D01*
X0154839Y0161772D02*
X0173213Y0161772D01*
X0173213Y0161870D02*
X0154839Y0161870D01*
X0154839Y0161969D02*
X0173213Y0161969D01*
X0173213Y0162067D02*
X0154839Y0162067D01*
X0154839Y0162166D02*
X0173213Y0162166D01*
X0173213Y0162264D02*
X0154839Y0162264D01*
X0154839Y0162363D02*
X0173213Y0162363D01*
X0173213Y0162461D02*
X0154839Y0162461D01*
X0154839Y0162560D02*
X0173213Y0162560D01*
X0173213Y0162658D02*
X0154839Y0162658D01*
X0154839Y0162757D02*
X0173213Y0162757D01*
X0173213Y0162855D02*
X0154839Y0162855D01*
X0154839Y0162954D02*
X0173213Y0162954D01*
X0173144Y0163052D02*
X0154857Y0163052D01*
X0154967Y0163151D02*
X0173035Y0163151D01*
X0172926Y0163249D02*
X0155076Y0163249D01*
X0155185Y0163348D02*
X0172817Y0163348D01*
X0172707Y0163446D02*
X0155295Y0163446D01*
X0155404Y0163545D02*
X0172598Y0163545D01*
X0172489Y0163643D02*
X0155513Y0163643D01*
X0155623Y0163742D02*
X0172380Y0163742D01*
X0172271Y0163840D02*
X0155732Y0163840D01*
X0155841Y0163939D02*
X0172161Y0163939D01*
X0172052Y0164037D02*
X0155951Y0164037D01*
X0156060Y0164136D02*
X0171943Y0164136D01*
X0171834Y0164234D02*
X0156169Y0164234D01*
X0156279Y0164333D02*
X0171725Y0164333D01*
X0171615Y0164431D02*
X0156388Y0164431D01*
X0156497Y0164530D02*
X0171506Y0164530D01*
X0171397Y0164628D02*
X0156607Y0164628D01*
X0156716Y0164727D02*
X0171288Y0164727D01*
X0171178Y0164825D02*
X0156825Y0164825D01*
X0156935Y0164924D02*
X0171069Y0164924D01*
X0170960Y0165022D02*
X0157044Y0165022D01*
X0157153Y0165121D02*
X0170851Y0165121D01*
X0170742Y0165220D02*
X0157263Y0165220D01*
X0157372Y0165318D02*
X0170632Y0165318D01*
X0170523Y0165417D02*
X0157481Y0165417D01*
X0157591Y0165515D02*
X0170414Y0165515D01*
X0170305Y0165614D02*
X0157700Y0165614D01*
X0157810Y0165712D02*
X0170196Y0165712D01*
X0170086Y0165811D02*
X0157919Y0165811D01*
X0158028Y0165909D02*
X0169977Y0165909D01*
X0169868Y0166008D02*
X0158138Y0166008D01*
X0158247Y0166106D02*
X0169759Y0166106D01*
X0169650Y0166205D02*
X0158356Y0166205D01*
X0158466Y0166303D02*
X0169540Y0166303D01*
X0169431Y0166402D02*
X0158575Y0166402D01*
X0158684Y0166500D02*
X0169322Y0166500D01*
X0175809Y0166352D02*
X0183023Y0166352D01*
X0183023Y0157316D01*
X0175809Y0157316D01*
X0175809Y0166352D01*
X0175809Y0166303D02*
X0183023Y0166303D01*
X0183023Y0166205D02*
X0175809Y0166205D01*
X0175809Y0166106D02*
X0183023Y0166106D01*
X0183023Y0166008D02*
X0175809Y0166008D01*
X0175809Y0165909D02*
X0183023Y0165909D01*
X0183023Y0165811D02*
X0175809Y0165811D01*
X0175809Y0165712D02*
X0183023Y0165712D01*
X0183023Y0165614D02*
X0175809Y0165614D01*
X0175809Y0165515D02*
X0183023Y0165515D01*
X0183023Y0165417D02*
X0175809Y0165417D01*
X0175809Y0165318D02*
X0183023Y0165318D01*
X0183023Y0165220D02*
X0175809Y0165220D01*
X0175809Y0165121D02*
X0183023Y0165121D01*
X0183023Y0165022D02*
X0175809Y0165022D01*
X0175809Y0164924D02*
X0183023Y0164924D01*
X0183023Y0164825D02*
X0175809Y0164825D01*
X0175809Y0164727D02*
X0183023Y0164727D01*
X0183023Y0164628D02*
X0175809Y0164628D01*
X0175809Y0164530D02*
X0183023Y0164530D01*
X0183023Y0164431D02*
X0175809Y0164431D01*
X0175809Y0164333D02*
X0183023Y0164333D01*
X0183023Y0164234D02*
X0175809Y0164234D01*
X0175809Y0164136D02*
X0183023Y0164136D01*
X0183023Y0164037D02*
X0175809Y0164037D01*
X0175809Y0163939D02*
X0183023Y0163939D01*
X0183023Y0163840D02*
X0175809Y0163840D01*
X0175809Y0163742D02*
X0183023Y0163742D01*
X0183023Y0163643D02*
X0175809Y0163643D01*
X0175809Y0163545D02*
X0183023Y0163545D01*
X0183023Y0163446D02*
X0175809Y0163446D01*
X0175809Y0163348D02*
X0183023Y0163348D01*
X0183023Y0163249D02*
X0175809Y0163249D01*
X0175809Y0163151D02*
X0183023Y0163151D01*
X0183023Y0163052D02*
X0175809Y0163052D01*
X0175809Y0162954D02*
X0183023Y0162954D01*
X0183023Y0162855D02*
X0175809Y0162855D01*
X0175809Y0162757D02*
X0183023Y0162757D01*
X0183023Y0162658D02*
X0175809Y0162658D01*
X0175809Y0162560D02*
X0183023Y0162560D01*
X0183023Y0162461D02*
X0175809Y0162461D01*
X0175809Y0162363D02*
X0183023Y0162363D01*
X0183023Y0162264D02*
X0175809Y0162264D01*
X0175809Y0162166D02*
X0183023Y0162166D01*
X0183023Y0162067D02*
X0175809Y0162067D01*
X0175809Y0161969D02*
X0183023Y0161969D01*
X0183023Y0161870D02*
X0175809Y0161870D01*
X0175809Y0161772D02*
X0183023Y0161772D01*
X0183023Y0161673D02*
X0175809Y0161673D01*
X0175809Y0161575D02*
X0183023Y0161575D01*
X0183023Y0161476D02*
X0175809Y0161476D01*
X0175809Y0161378D02*
X0183023Y0161378D01*
X0183023Y0161279D02*
X0175809Y0161279D01*
X0175809Y0161181D02*
X0183023Y0161181D01*
X0183023Y0161082D02*
X0175809Y0161082D01*
X0175809Y0160984D02*
X0183023Y0160984D01*
X0183023Y0160885D02*
X0175809Y0160885D01*
X0175809Y0160787D02*
X0183023Y0160787D01*
X0183023Y0160688D02*
X0175809Y0160688D01*
X0175809Y0160589D02*
X0183023Y0160589D01*
X0183023Y0160491D02*
X0175809Y0160491D01*
X0175809Y0160392D02*
X0183023Y0160392D01*
X0183023Y0160294D02*
X0175809Y0160294D01*
X0175809Y0160195D02*
X0183023Y0160195D01*
X0183023Y0160097D02*
X0175809Y0160097D01*
X0175809Y0159998D02*
X0183023Y0159998D01*
X0183023Y0159900D02*
X0175809Y0159900D01*
X0175809Y0159801D02*
X0183023Y0159801D01*
X0183023Y0159703D02*
X0175809Y0159703D01*
X0175809Y0159604D02*
X0183023Y0159604D01*
X0183023Y0159506D02*
X0175809Y0159506D01*
X0175809Y0159407D02*
X0183023Y0159407D01*
X0183023Y0159309D02*
X0175809Y0159309D01*
X0175809Y0159210D02*
X0183023Y0159210D01*
X0183023Y0159112D02*
X0175809Y0159112D01*
X0175809Y0159013D02*
X0183023Y0159013D01*
X0183023Y0158915D02*
X0175809Y0158915D01*
X0175809Y0158816D02*
X0183023Y0158816D01*
X0183023Y0158718D02*
X0175809Y0158718D01*
X0175809Y0158619D02*
X0183023Y0158619D01*
X0183023Y0158521D02*
X0175809Y0158521D01*
X0175809Y0158422D02*
X0183023Y0158422D01*
X0183023Y0158324D02*
X0175809Y0158324D01*
X0175809Y0158225D02*
X0183023Y0158225D01*
X0183023Y0158127D02*
X0175809Y0158127D01*
X0175809Y0158028D02*
X0183023Y0158028D01*
X0183023Y0157930D02*
X0175809Y0157930D01*
X0175809Y0157831D02*
X0183023Y0157831D01*
X0183023Y0157733D02*
X0175809Y0157733D01*
X0175809Y0157634D02*
X0183023Y0157634D01*
X0183023Y0157536D02*
X0175809Y0157536D01*
X0175809Y0157437D02*
X0183023Y0157437D01*
X0183023Y0157339D02*
X0175809Y0157339D01*
X0175809Y0153708D02*
X0183023Y0153708D01*
X0183023Y0137457D01*
X0175809Y0137457D01*
X0175809Y0153708D01*
X0175809Y0153694D02*
X0183023Y0153694D01*
X0183023Y0153595D02*
X0175809Y0153595D01*
X0175809Y0153497D02*
X0183023Y0153497D01*
X0183023Y0153398D02*
X0175809Y0153398D01*
X0175809Y0153300D02*
X0183023Y0153300D01*
X0183023Y0153201D02*
X0175809Y0153201D01*
X0175809Y0153103D02*
X0183023Y0153103D01*
X0183023Y0153004D02*
X0175809Y0153004D01*
X0175809Y0152906D02*
X0183023Y0152906D01*
X0183023Y0152807D02*
X0175809Y0152807D01*
X0175809Y0152709D02*
X0183023Y0152709D01*
X0183023Y0152610D02*
X0175809Y0152610D01*
X0175809Y0152512D02*
X0183023Y0152512D01*
X0183023Y0152413D02*
X0175809Y0152413D01*
X0175809Y0152315D02*
X0183023Y0152315D01*
X0183023Y0152216D02*
X0175809Y0152216D01*
X0175809Y0152118D02*
X0183023Y0152118D01*
X0183023Y0152019D02*
X0175809Y0152019D01*
X0175809Y0151920D02*
X0183023Y0151920D01*
X0183023Y0151822D02*
X0175809Y0151822D01*
X0175809Y0151723D02*
X0183023Y0151723D01*
X0183023Y0151625D02*
X0175809Y0151625D01*
X0175809Y0151526D02*
X0183023Y0151526D01*
X0183023Y0151428D02*
X0175809Y0151428D01*
X0175809Y0151329D02*
X0183023Y0151329D01*
X0183023Y0151231D02*
X0175809Y0151231D01*
X0175809Y0151132D02*
X0183023Y0151132D01*
X0183023Y0151034D02*
X0175809Y0151034D01*
X0175809Y0150935D02*
X0183023Y0150935D01*
X0183023Y0150837D02*
X0175809Y0150837D01*
X0175809Y0150738D02*
X0183023Y0150738D01*
X0183023Y0150640D02*
X0175809Y0150640D01*
X0175809Y0150541D02*
X0183023Y0150541D01*
X0183023Y0150443D02*
X0175809Y0150443D01*
X0175809Y0150344D02*
X0183023Y0150344D01*
X0183023Y0150246D02*
X0175809Y0150246D01*
X0175809Y0150147D02*
X0183023Y0150147D01*
X0183023Y0150049D02*
X0175809Y0150049D01*
X0175809Y0149950D02*
X0183023Y0149950D01*
X0183023Y0149852D02*
X0175809Y0149852D01*
X0175809Y0149753D02*
X0183023Y0149753D01*
X0183023Y0149655D02*
X0175809Y0149655D01*
X0175809Y0149556D02*
X0183023Y0149556D01*
X0183023Y0149458D02*
X0175809Y0149458D01*
X0175809Y0149359D02*
X0183023Y0149359D01*
X0183023Y0149261D02*
X0175809Y0149261D01*
X0175809Y0149162D02*
X0183023Y0149162D01*
X0183023Y0149064D02*
X0175809Y0149064D01*
X0175809Y0148965D02*
X0183023Y0148965D01*
X0183023Y0148867D02*
X0175809Y0148867D01*
X0175809Y0148768D02*
X0183023Y0148768D01*
X0183023Y0148670D02*
X0175809Y0148670D01*
X0175809Y0148571D02*
X0183023Y0148571D01*
X0183023Y0148473D02*
X0175809Y0148473D01*
X0175809Y0148374D02*
X0183023Y0148374D01*
X0183023Y0148276D02*
X0175809Y0148276D01*
X0175809Y0148177D02*
X0183023Y0148177D01*
X0183023Y0148079D02*
X0175809Y0148079D01*
X0175809Y0147980D02*
X0183023Y0147980D01*
X0183023Y0147882D02*
X0175809Y0147882D01*
X0175809Y0147783D02*
X0183023Y0147783D01*
X0183023Y0147684D02*
X0175809Y0147684D01*
X0175809Y0147586D02*
X0183023Y0147586D01*
X0183023Y0147487D02*
X0175809Y0147487D01*
X0175809Y0147389D02*
X0183023Y0147389D01*
X0183023Y0147290D02*
X0175809Y0147290D01*
X0175809Y0147192D02*
X0183023Y0147192D01*
X0183023Y0147093D02*
X0175809Y0147093D01*
X0175809Y0146995D02*
X0183023Y0146995D01*
X0183023Y0146896D02*
X0175809Y0146896D01*
X0175809Y0146798D02*
X0183023Y0146798D01*
X0183023Y0146699D02*
X0175809Y0146699D01*
X0175809Y0146601D02*
X0183023Y0146601D01*
X0183023Y0146502D02*
X0175809Y0146502D01*
X0175809Y0146404D02*
X0183023Y0146404D01*
X0183023Y0146305D02*
X0175809Y0146305D01*
X0175809Y0146207D02*
X0183023Y0146207D01*
X0183023Y0146108D02*
X0175809Y0146108D01*
X0175809Y0146010D02*
X0183023Y0146010D01*
X0183023Y0145911D02*
X0175809Y0145911D01*
X0175809Y0145813D02*
X0183023Y0145813D01*
X0183023Y0145714D02*
X0175809Y0145714D01*
X0175809Y0145616D02*
X0183023Y0145616D01*
X0183023Y0145517D02*
X0175809Y0145517D01*
X0175809Y0145419D02*
X0183023Y0145419D01*
X0183023Y0145320D02*
X0175809Y0145320D01*
X0175809Y0145222D02*
X0183023Y0145222D01*
X0183023Y0145123D02*
X0175809Y0145123D01*
X0175809Y0145025D02*
X0183023Y0145025D01*
X0183023Y0144926D02*
X0175809Y0144926D01*
X0175809Y0144828D02*
X0183023Y0144828D01*
X0183023Y0144729D02*
X0175809Y0144729D01*
X0175809Y0144631D02*
X0183023Y0144631D01*
X0183023Y0144532D02*
X0175809Y0144532D01*
X0175809Y0144434D02*
X0183023Y0144434D01*
X0183023Y0144335D02*
X0175809Y0144335D01*
X0175809Y0144237D02*
X0183023Y0144237D01*
X0183023Y0144138D02*
X0175809Y0144138D01*
X0175809Y0144040D02*
X0183023Y0144040D01*
X0183023Y0143941D02*
X0175809Y0143941D01*
X0175809Y0143843D02*
X0183023Y0143843D01*
X0183023Y0143744D02*
X0175809Y0143744D01*
X0175809Y0143646D02*
X0183023Y0143646D01*
X0183023Y0143547D02*
X0175809Y0143547D01*
X0175809Y0143449D02*
X0183023Y0143449D01*
X0183023Y0143350D02*
X0175809Y0143350D01*
X0175809Y0143251D02*
X0183023Y0143251D01*
X0183023Y0143153D02*
X0175809Y0143153D01*
X0175809Y0143054D02*
X0183023Y0143054D01*
X0183023Y0142956D02*
X0175809Y0142956D01*
X0175809Y0142857D02*
X0183023Y0142857D01*
X0183023Y0142759D02*
X0175809Y0142759D01*
X0175809Y0142660D02*
X0183023Y0142660D01*
X0183023Y0142562D02*
X0175809Y0142562D01*
X0175809Y0142463D02*
X0183023Y0142463D01*
X0183023Y0142365D02*
X0175809Y0142365D01*
X0175809Y0142266D02*
X0183023Y0142266D01*
X0183023Y0142168D02*
X0175809Y0142168D01*
X0175809Y0142069D02*
X0183023Y0142069D01*
X0183023Y0141971D02*
X0175809Y0141971D01*
X0175809Y0141872D02*
X0183023Y0141872D01*
X0183023Y0141774D02*
X0175809Y0141774D01*
X0175809Y0141675D02*
X0183023Y0141675D01*
X0183023Y0141577D02*
X0175809Y0141577D01*
X0175809Y0141478D02*
X0183023Y0141478D01*
X0183023Y0141380D02*
X0175809Y0141380D01*
X0175809Y0141281D02*
X0183023Y0141281D01*
X0183023Y0141183D02*
X0175809Y0141183D01*
X0175809Y0141084D02*
X0183023Y0141084D01*
X0183023Y0140986D02*
X0175809Y0140986D01*
X0175809Y0140887D02*
X0183023Y0140887D01*
X0183023Y0140789D02*
X0175809Y0140789D01*
X0175809Y0140690D02*
X0183023Y0140690D01*
X0183023Y0140592D02*
X0175809Y0140592D01*
X0175809Y0140493D02*
X0183023Y0140493D01*
X0183023Y0140395D02*
X0175809Y0140395D01*
X0175809Y0140296D02*
X0183023Y0140296D01*
X0183023Y0140198D02*
X0175809Y0140198D01*
X0175809Y0140099D02*
X0183023Y0140099D01*
X0183023Y0140001D02*
X0175809Y0140001D01*
X0175809Y0139902D02*
X0183023Y0139902D01*
X0183023Y0139804D02*
X0175809Y0139804D01*
X0175809Y0139705D02*
X0183023Y0139705D01*
X0183023Y0139607D02*
X0175809Y0139607D01*
X0175809Y0139508D02*
X0183023Y0139508D01*
X0183023Y0139410D02*
X0175809Y0139410D01*
X0175809Y0139311D02*
X0183023Y0139311D01*
X0183023Y0139213D02*
X0175809Y0139213D01*
X0175809Y0139114D02*
X0183023Y0139114D01*
X0183023Y0139016D02*
X0175809Y0139016D01*
X0175809Y0138917D02*
X0183023Y0138917D01*
X0183023Y0138818D02*
X0175809Y0138818D01*
X0175809Y0138720D02*
X0183023Y0138720D01*
X0183023Y0138621D02*
X0175809Y0138621D01*
X0175809Y0138523D02*
X0183023Y0138523D01*
X0183023Y0138424D02*
X0175809Y0138424D01*
X0175809Y0138326D02*
X0183023Y0138326D01*
X0183023Y0138227D02*
X0175809Y0138227D01*
X0175809Y0138129D02*
X0183023Y0138129D01*
X0183023Y0138030D02*
X0175809Y0138030D01*
X0175809Y0137932D02*
X0183023Y0137932D01*
X0183023Y0137833D02*
X0175809Y0137833D01*
X0175809Y0137735D02*
X0183023Y0137735D01*
X0183023Y0137636D02*
X0175809Y0137636D01*
X0175809Y0137538D02*
X0183023Y0137538D01*
X0186630Y0137538D02*
X0193845Y0137538D01*
X0193845Y0137457D02*
X0193845Y0153708D01*
X0186630Y0153708D01*
X0186630Y0137457D01*
X0193845Y0137457D01*
X0193845Y0137636D02*
X0186630Y0137636D01*
X0186630Y0137735D02*
X0193845Y0137735D01*
X0193845Y0137833D02*
X0186630Y0137833D01*
X0186630Y0137932D02*
X0193845Y0137932D01*
X0193845Y0138030D02*
X0186630Y0138030D01*
X0186630Y0138129D02*
X0193845Y0138129D01*
X0193845Y0138227D02*
X0186630Y0138227D01*
X0186630Y0138326D02*
X0193845Y0138326D01*
X0193845Y0138424D02*
X0186630Y0138424D01*
X0186630Y0138523D02*
X0193845Y0138523D01*
X0193845Y0138621D02*
X0186630Y0138621D01*
X0186630Y0138720D02*
X0193845Y0138720D01*
X0193845Y0138818D02*
X0186630Y0138818D01*
X0186630Y0138917D02*
X0193845Y0138917D01*
X0193845Y0139016D02*
X0186630Y0139016D01*
X0186630Y0139114D02*
X0193845Y0139114D01*
X0193845Y0139213D02*
X0186630Y0139213D01*
X0186630Y0139311D02*
X0193845Y0139311D01*
X0193845Y0139410D02*
X0186630Y0139410D01*
X0186630Y0139508D02*
X0193845Y0139508D01*
X0193845Y0139607D02*
X0186630Y0139607D01*
X0186630Y0139705D02*
X0193845Y0139705D01*
X0193845Y0139804D02*
X0186630Y0139804D01*
X0186630Y0139902D02*
X0193845Y0139902D01*
X0193845Y0140001D02*
X0186630Y0140001D01*
X0186630Y0140099D02*
X0193845Y0140099D01*
X0193845Y0140198D02*
X0186630Y0140198D01*
X0186630Y0140296D02*
X0193845Y0140296D01*
X0193845Y0140395D02*
X0186630Y0140395D01*
X0186630Y0140493D02*
X0193845Y0140493D01*
X0193845Y0140592D02*
X0186630Y0140592D01*
X0186630Y0140690D02*
X0193845Y0140690D01*
X0193845Y0140789D02*
X0186630Y0140789D01*
X0186630Y0140887D02*
X0193845Y0140887D01*
X0193845Y0140986D02*
X0186630Y0140986D01*
X0186630Y0141084D02*
X0193845Y0141084D01*
X0193845Y0141183D02*
X0186630Y0141183D01*
X0186630Y0141281D02*
X0193845Y0141281D01*
X0193845Y0141380D02*
X0186630Y0141380D01*
X0186630Y0141478D02*
X0193845Y0141478D01*
X0193845Y0141577D02*
X0186630Y0141577D01*
X0186630Y0141675D02*
X0193845Y0141675D01*
X0193845Y0141774D02*
X0186630Y0141774D01*
X0186630Y0141872D02*
X0193845Y0141872D01*
X0193845Y0141971D02*
X0186630Y0141971D01*
X0186630Y0142069D02*
X0193845Y0142069D01*
X0193845Y0142168D02*
X0186630Y0142168D01*
X0186630Y0142266D02*
X0193845Y0142266D01*
X0193845Y0142365D02*
X0186630Y0142365D01*
X0186630Y0142463D02*
X0193845Y0142463D01*
X0193845Y0142562D02*
X0186630Y0142562D01*
X0186630Y0142660D02*
X0193845Y0142660D01*
X0193845Y0142759D02*
X0186630Y0142759D01*
X0186630Y0142857D02*
X0193845Y0142857D01*
X0193845Y0142956D02*
X0186630Y0142956D01*
X0186630Y0143054D02*
X0193845Y0143054D01*
X0193845Y0143153D02*
X0186630Y0143153D01*
X0186630Y0143251D02*
X0193845Y0143251D01*
X0193845Y0143350D02*
X0186630Y0143350D01*
X0186630Y0143449D02*
X0193845Y0143449D01*
X0193845Y0143547D02*
X0186630Y0143547D01*
X0186630Y0143646D02*
X0193845Y0143646D01*
X0193845Y0143744D02*
X0186630Y0143744D01*
X0186630Y0143843D02*
X0193845Y0143843D01*
X0193845Y0143941D02*
X0186630Y0143941D01*
X0186630Y0144040D02*
X0193845Y0144040D01*
X0193845Y0144138D02*
X0186630Y0144138D01*
X0186630Y0144237D02*
X0193845Y0144237D01*
X0193845Y0144335D02*
X0186630Y0144335D01*
X0186630Y0144434D02*
X0193845Y0144434D01*
X0193845Y0144532D02*
X0186630Y0144532D01*
X0186630Y0144631D02*
X0193845Y0144631D01*
X0193845Y0144729D02*
X0186630Y0144729D01*
X0186630Y0144828D02*
X0193845Y0144828D01*
X0193845Y0144926D02*
X0186630Y0144926D01*
X0186630Y0145025D02*
X0193845Y0145025D01*
X0193845Y0145123D02*
X0186630Y0145123D01*
X0186630Y0145222D02*
X0193845Y0145222D01*
X0193845Y0145320D02*
X0186630Y0145320D01*
X0186630Y0145419D02*
X0193845Y0145419D01*
X0193845Y0145517D02*
X0186630Y0145517D01*
X0186630Y0145616D02*
X0193845Y0145616D01*
X0193845Y0145714D02*
X0186630Y0145714D01*
X0186630Y0145813D02*
X0193845Y0145813D01*
X0193845Y0145911D02*
X0186630Y0145911D01*
X0186630Y0146010D02*
X0193845Y0146010D01*
X0193845Y0146108D02*
X0186630Y0146108D01*
X0186630Y0146207D02*
X0193845Y0146207D01*
X0193845Y0146305D02*
X0186630Y0146305D01*
X0186630Y0146404D02*
X0193845Y0146404D01*
X0193845Y0146502D02*
X0186630Y0146502D01*
X0186630Y0146601D02*
X0193845Y0146601D01*
X0193845Y0146699D02*
X0186630Y0146699D01*
X0186630Y0146798D02*
X0193845Y0146798D01*
X0193845Y0146896D02*
X0186630Y0146896D01*
X0186630Y0146995D02*
X0193845Y0146995D01*
X0193845Y0147093D02*
X0186630Y0147093D01*
X0186630Y0147192D02*
X0193845Y0147192D01*
X0193845Y0147290D02*
X0186630Y0147290D01*
X0186630Y0147389D02*
X0193845Y0147389D01*
X0193845Y0147487D02*
X0186630Y0147487D01*
X0186630Y0147586D02*
X0193845Y0147586D01*
X0193845Y0147684D02*
X0186630Y0147684D01*
X0186630Y0147783D02*
X0193845Y0147783D01*
X0193845Y0147882D02*
X0186630Y0147882D01*
X0186630Y0147980D02*
X0193845Y0147980D01*
X0193845Y0148079D02*
X0186630Y0148079D01*
X0186630Y0148177D02*
X0193845Y0148177D01*
X0193845Y0148276D02*
X0186630Y0148276D01*
X0186630Y0148374D02*
X0193845Y0148374D01*
X0193845Y0148473D02*
X0186630Y0148473D01*
X0186630Y0148571D02*
X0193845Y0148571D01*
X0193845Y0148670D02*
X0186630Y0148670D01*
X0186630Y0148768D02*
X0193845Y0148768D01*
X0193845Y0148867D02*
X0186630Y0148867D01*
X0186630Y0148965D02*
X0193845Y0148965D01*
X0193845Y0149064D02*
X0186630Y0149064D01*
X0186630Y0149162D02*
X0193845Y0149162D01*
X0193845Y0149261D02*
X0186630Y0149261D01*
X0186630Y0149359D02*
X0193845Y0149359D01*
X0193845Y0149458D02*
X0186630Y0149458D01*
X0186630Y0149556D02*
X0193845Y0149556D01*
X0193845Y0149655D02*
X0186630Y0149655D01*
X0186630Y0149753D02*
X0193845Y0149753D01*
X0193845Y0149852D02*
X0186630Y0149852D01*
X0186630Y0149950D02*
X0193845Y0149950D01*
X0193845Y0150049D02*
X0186630Y0150049D01*
X0186630Y0150147D02*
X0193845Y0150147D01*
X0193845Y0150246D02*
X0186630Y0150246D01*
X0186630Y0150344D02*
X0193845Y0150344D01*
X0193845Y0150443D02*
X0186630Y0150443D01*
X0186630Y0150541D02*
X0193845Y0150541D01*
X0193845Y0150640D02*
X0186630Y0150640D01*
X0186630Y0150738D02*
X0193845Y0150738D01*
X0193845Y0150837D02*
X0186630Y0150837D01*
X0186630Y0150935D02*
X0193845Y0150935D01*
X0193845Y0151034D02*
X0186630Y0151034D01*
X0186630Y0151132D02*
X0193845Y0151132D01*
X0193845Y0151231D02*
X0186630Y0151231D01*
X0186630Y0151329D02*
X0193845Y0151329D01*
X0193845Y0151428D02*
X0186630Y0151428D01*
X0186630Y0151526D02*
X0193845Y0151526D01*
X0193845Y0151625D02*
X0186630Y0151625D01*
X0186630Y0151723D02*
X0193845Y0151723D01*
X0193845Y0151822D02*
X0186630Y0151822D01*
X0186630Y0151920D02*
X0193845Y0151920D01*
X0193845Y0152019D02*
X0186630Y0152019D01*
X0186630Y0152118D02*
X0193845Y0152118D01*
X0193845Y0152216D02*
X0186630Y0152216D01*
X0186630Y0152315D02*
X0193845Y0152315D01*
X0193845Y0152413D02*
X0186630Y0152413D01*
X0186630Y0152512D02*
X0193845Y0152512D01*
X0193845Y0152610D02*
X0186630Y0152610D01*
X0186630Y0152709D02*
X0193845Y0152709D01*
X0193845Y0152807D02*
X0186630Y0152807D01*
X0186630Y0152906D02*
X0193845Y0152906D01*
X0193845Y0153004D02*
X0186630Y0153004D01*
X0186630Y0153103D02*
X0193845Y0153103D01*
X0193845Y0153201D02*
X0186630Y0153201D01*
X0186630Y0153300D02*
X0193845Y0153300D01*
X0193845Y0153398D02*
X0186630Y0153398D01*
X0186630Y0153497D02*
X0193845Y0153497D01*
X0193845Y0153595D02*
X0186630Y0153595D01*
X0186630Y0153694D02*
X0193845Y0153694D01*
X0193845Y0157316D02*
X0193845Y0166352D01*
X0186630Y0166352D01*
X0186630Y0157316D01*
X0193845Y0157316D01*
X0193845Y0157339D02*
X0186630Y0157339D01*
X0186630Y0157437D02*
X0193845Y0157437D01*
X0193845Y0157536D02*
X0186630Y0157536D01*
X0186630Y0157634D02*
X0193845Y0157634D01*
X0193845Y0157733D02*
X0186630Y0157733D01*
X0186630Y0157831D02*
X0193845Y0157831D01*
X0193845Y0157930D02*
X0186630Y0157930D01*
X0186630Y0158028D02*
X0193845Y0158028D01*
X0193845Y0158127D02*
X0186630Y0158127D01*
X0186630Y0158225D02*
X0193845Y0158225D01*
X0193845Y0158324D02*
X0186630Y0158324D01*
X0186630Y0158422D02*
X0193845Y0158422D01*
X0193845Y0158521D02*
X0186630Y0158521D01*
X0186630Y0158619D02*
X0193845Y0158619D01*
X0193845Y0158718D02*
X0186630Y0158718D01*
X0186630Y0158816D02*
X0193845Y0158816D01*
X0193845Y0158915D02*
X0186630Y0158915D01*
X0186630Y0159013D02*
X0193845Y0159013D01*
X0193845Y0159112D02*
X0186630Y0159112D01*
X0186630Y0159210D02*
X0193845Y0159210D01*
X0193845Y0159309D02*
X0186630Y0159309D01*
X0186630Y0159407D02*
X0193845Y0159407D01*
X0193845Y0159506D02*
X0186630Y0159506D01*
X0186630Y0159604D02*
X0193845Y0159604D01*
X0193845Y0159703D02*
X0186630Y0159703D01*
X0186630Y0159801D02*
X0193845Y0159801D01*
X0193845Y0159900D02*
X0186630Y0159900D01*
X0186630Y0159998D02*
X0193845Y0159998D01*
X0193845Y0160097D02*
X0186630Y0160097D01*
X0186630Y0160195D02*
X0193845Y0160195D01*
X0193845Y0160294D02*
X0186630Y0160294D01*
X0186630Y0160392D02*
X0193845Y0160392D01*
X0193845Y0160491D02*
X0186630Y0160491D01*
X0186630Y0160589D02*
X0193845Y0160589D01*
X0193845Y0160688D02*
X0186630Y0160688D01*
X0186630Y0160787D02*
X0193845Y0160787D01*
X0193845Y0160885D02*
X0186630Y0160885D01*
X0186630Y0160984D02*
X0193845Y0160984D01*
X0193845Y0161082D02*
X0186630Y0161082D01*
X0186630Y0161181D02*
X0193845Y0161181D01*
X0193845Y0161279D02*
X0186630Y0161279D01*
X0186630Y0161378D02*
X0193845Y0161378D01*
X0193845Y0161476D02*
X0186630Y0161476D01*
X0186630Y0161575D02*
X0193845Y0161575D01*
X0193845Y0161673D02*
X0186630Y0161673D01*
X0186630Y0161772D02*
X0193845Y0161772D01*
X0193845Y0161870D02*
X0186630Y0161870D01*
X0186630Y0161969D02*
X0193845Y0161969D01*
X0193845Y0162067D02*
X0186630Y0162067D01*
X0186630Y0162166D02*
X0193845Y0162166D01*
X0193845Y0162264D02*
X0186630Y0162264D01*
X0186630Y0162363D02*
X0193845Y0162363D01*
X0193845Y0162461D02*
X0186630Y0162461D01*
X0186630Y0162560D02*
X0193845Y0162560D01*
X0193845Y0162658D02*
X0186630Y0162658D01*
X0186630Y0162757D02*
X0193845Y0162757D01*
X0193845Y0162855D02*
X0186630Y0162855D01*
X0186630Y0162954D02*
X0193845Y0162954D01*
X0193845Y0163052D02*
X0186630Y0163052D01*
X0186630Y0163151D02*
X0193845Y0163151D01*
X0193845Y0163249D02*
X0186630Y0163249D01*
X0186630Y0163348D02*
X0193845Y0163348D01*
X0193845Y0163446D02*
X0186630Y0163446D01*
X0186630Y0163545D02*
X0193845Y0163545D01*
X0193845Y0163643D02*
X0186630Y0163643D01*
X0186630Y0163742D02*
X0193845Y0163742D01*
X0193845Y0163840D02*
X0186630Y0163840D01*
X0186630Y0163939D02*
X0193845Y0163939D01*
X0193845Y0164037D02*
X0186630Y0164037D01*
X0186630Y0164136D02*
X0193845Y0164136D01*
X0193845Y0164234D02*
X0186630Y0164234D01*
X0186630Y0164333D02*
X0193845Y0164333D01*
X0193845Y0164431D02*
X0186630Y0164431D01*
X0186630Y0164530D02*
X0193845Y0164530D01*
X0193845Y0164628D02*
X0186630Y0164628D01*
X0186630Y0164727D02*
X0193845Y0164727D01*
X0193845Y0164825D02*
X0186630Y0164825D01*
X0186630Y0164924D02*
X0193845Y0164924D01*
X0193845Y0165022D02*
X0186630Y0165022D01*
X0186630Y0165121D02*
X0193845Y0165121D01*
X0193845Y0165220D02*
X0186630Y0165220D01*
X0186630Y0165318D02*
X0193845Y0165318D01*
X0193845Y0165417D02*
X0186630Y0165417D01*
X0186630Y0165515D02*
X0193845Y0165515D01*
X0193845Y0165614D02*
X0186630Y0165614D01*
X0186630Y0165712D02*
X0193845Y0165712D01*
X0193845Y0165811D02*
X0186630Y0165811D01*
X0186630Y0165909D02*
X0193845Y0165909D01*
X0193845Y0166008D02*
X0186630Y0166008D01*
X0186630Y0166106D02*
X0193845Y0166106D01*
X0193845Y0166205D02*
X0186630Y0166205D01*
X0186630Y0166303D02*
X0193845Y0166303D01*
X0173213Y0153595D02*
X0158666Y0153595D01*
X0158720Y0153617D02*
X0154475Y0151896D01*
X0154475Y0140837D01*
X0154475Y0140887D02*
X0173623Y0140887D01*
X0173623Y0140789D02*
X0154530Y0140789D01*
X0154641Y0140690D02*
X0173529Y0140690D01*
X0173419Y0140592D02*
X0154752Y0140592D01*
X0154864Y0140493D02*
X0173308Y0140493D01*
X0173197Y0140395D02*
X0154975Y0140395D01*
X0155087Y0140296D02*
X0173087Y0140296D01*
X0172976Y0140198D02*
X0155198Y0140198D01*
X0155309Y0140099D02*
X0172866Y0140099D01*
X0172755Y0140001D02*
X0155421Y0140001D01*
X0155532Y0139902D02*
X0172644Y0139902D01*
X0172534Y0139804D02*
X0155644Y0139804D01*
X0155755Y0139705D02*
X0172423Y0139705D01*
X0172312Y0139607D02*
X0155866Y0139607D01*
X0155978Y0139508D02*
X0172202Y0139508D01*
X0172091Y0139410D02*
X0156089Y0139410D01*
X0156201Y0139311D02*
X0171980Y0139311D01*
X0171870Y0139213D02*
X0156312Y0139213D01*
X0156423Y0139114D02*
X0171759Y0139114D01*
X0171648Y0139016D02*
X0156535Y0139016D01*
X0156646Y0138917D02*
X0171538Y0138917D01*
X0171427Y0138818D02*
X0156758Y0138818D01*
X0156869Y0138720D02*
X0171317Y0138720D01*
X0171206Y0138621D02*
X0156980Y0138621D01*
X0157092Y0138523D02*
X0171095Y0138523D01*
X0170985Y0138424D02*
X0157203Y0138424D01*
X0157315Y0138326D02*
X0170874Y0138326D01*
X0170763Y0138227D02*
X0157426Y0138227D01*
X0157537Y0138129D02*
X0170653Y0138129D01*
X0170542Y0138030D02*
X0157649Y0138030D01*
X0157760Y0137932D02*
X0170431Y0137932D01*
X0170321Y0137833D02*
X0157872Y0137833D01*
X0157983Y0137735D02*
X0170210Y0137735D01*
X0170099Y0137636D02*
X0158094Y0137636D01*
X0158206Y0137538D02*
X0169989Y0137538D01*
X0169878Y0137439D02*
X0158317Y0137439D01*
X0158429Y0137341D02*
X0169768Y0137341D01*
X0169657Y0137242D02*
X0158540Y0137242D01*
X0154475Y0140986D02*
X0173623Y0140986D01*
X0173623Y0141084D02*
X0154475Y0141084D01*
X0154475Y0141183D02*
X0173623Y0141183D01*
X0173623Y0141281D02*
X0154475Y0141281D01*
X0154475Y0141380D02*
X0173623Y0141380D01*
X0173623Y0141478D02*
X0154475Y0141478D01*
X0154475Y0141577D02*
X0173623Y0141577D01*
X0173623Y0141675D02*
X0154475Y0141675D01*
X0154475Y0141774D02*
X0173623Y0141774D01*
X0173623Y0141872D02*
X0154475Y0141872D01*
X0154475Y0141971D02*
X0173623Y0141971D01*
X0173623Y0142069D02*
X0154475Y0142069D01*
X0154475Y0142168D02*
X0173623Y0142168D01*
X0173623Y0142266D02*
X0154475Y0142266D01*
X0154475Y0142365D02*
X0173623Y0142365D01*
X0173623Y0142463D02*
X0154475Y0142463D01*
X0154475Y0142562D02*
X0173623Y0142562D01*
X0173623Y0142660D02*
X0154475Y0142660D01*
X0154475Y0142759D02*
X0173623Y0142759D01*
X0173623Y0142857D02*
X0154475Y0142857D01*
X0154475Y0142956D02*
X0173623Y0142956D01*
X0173623Y0143054D02*
X0154475Y0143054D01*
X0154475Y0143153D02*
X0173623Y0143153D01*
X0173623Y0143251D02*
X0154475Y0143251D01*
X0154475Y0143350D02*
X0173623Y0143350D01*
X0173623Y0143449D02*
X0154475Y0143449D01*
X0154475Y0143547D02*
X0162398Y0143547D01*
X0162307Y0143646D02*
X0154475Y0143646D01*
X0154475Y0143744D02*
X0162216Y0143744D01*
X0162125Y0143843D02*
X0154475Y0143843D01*
X0154475Y0143941D02*
X0162034Y0143941D01*
X0161943Y0144040D02*
X0154475Y0144040D01*
X0154475Y0144138D02*
X0161853Y0144138D01*
X0161762Y0144237D02*
X0154475Y0144237D01*
X0154475Y0144335D02*
X0161671Y0144335D01*
X0161580Y0144434D02*
X0154475Y0144434D01*
X0154475Y0144532D02*
X0161489Y0144532D01*
X0161453Y0144631D02*
X0154475Y0144631D01*
X0154475Y0144729D02*
X0161453Y0144729D01*
X0161453Y0144828D02*
X0154475Y0144828D01*
X0154475Y0144926D02*
X0161453Y0144926D01*
X0161453Y0145025D02*
X0154475Y0145025D01*
X0154475Y0145123D02*
X0161453Y0145123D01*
X0161453Y0145222D02*
X0154475Y0145222D01*
X0154475Y0145320D02*
X0161453Y0145320D01*
X0161453Y0145419D02*
X0154475Y0145419D01*
X0154475Y0145517D02*
X0161453Y0145517D01*
X0161453Y0145616D02*
X0154475Y0145616D01*
X0154475Y0145714D02*
X0161453Y0145714D01*
X0161453Y0145813D02*
X0154475Y0145813D01*
X0154475Y0145911D02*
X0161453Y0145911D01*
X0161453Y0146010D02*
X0154475Y0146010D01*
X0154475Y0146108D02*
X0161453Y0146108D01*
X0161453Y0146207D02*
X0154475Y0146207D01*
X0154475Y0146305D02*
X0161453Y0146305D01*
X0161453Y0146404D02*
X0154475Y0146404D01*
X0154475Y0146502D02*
X0161453Y0146502D01*
X0161453Y0146601D02*
X0154475Y0146601D01*
X0154475Y0146699D02*
X0161453Y0146699D01*
X0161453Y0146798D02*
X0154475Y0146798D01*
X0154475Y0146896D02*
X0161453Y0146896D01*
X0161453Y0146995D02*
X0154475Y0146995D01*
X0154475Y0147093D02*
X0161453Y0147093D01*
X0161453Y0147192D02*
X0154475Y0147192D01*
X0154475Y0147290D02*
X0161453Y0147290D01*
X0161453Y0147389D02*
X0154475Y0147389D01*
X0154475Y0147487D02*
X0161453Y0147487D01*
X0161453Y0147586D02*
X0154475Y0147586D01*
X0154475Y0147684D02*
X0161597Y0147684D01*
X0161758Y0147783D02*
X0154475Y0147783D01*
X0154475Y0147882D02*
X0161919Y0147882D01*
X0162079Y0147980D02*
X0154475Y0147980D01*
X0154475Y0148079D02*
X0162240Y0148079D01*
X0162401Y0148177D02*
X0154475Y0148177D01*
X0154475Y0148276D02*
X0162562Y0148276D01*
X0162723Y0148374D02*
X0154475Y0148374D01*
X0154475Y0148473D02*
X0162959Y0148473D01*
X0163209Y0148571D02*
X0154475Y0148571D01*
X0154475Y0148670D02*
X0163459Y0148670D01*
X0163709Y0148768D02*
X0154475Y0148768D01*
X0154475Y0148867D02*
X0163959Y0148867D01*
X0164209Y0148965D02*
X0154475Y0148965D01*
X0154475Y0149064D02*
X0164459Y0149064D01*
X0164709Y0149162D02*
X0154475Y0149162D01*
X0154475Y0149261D02*
X0164959Y0149261D01*
X0165209Y0149359D02*
X0154475Y0149359D01*
X0154475Y0149458D02*
X0165467Y0149458D01*
X0165726Y0149556D02*
X0154475Y0149556D01*
X0154475Y0149655D02*
X0165986Y0149655D01*
X0166245Y0149753D02*
X0154475Y0149753D01*
X0154475Y0149852D02*
X0166505Y0149852D01*
X0166764Y0149950D02*
X0154475Y0149950D01*
X0154475Y0150049D02*
X0167024Y0150049D01*
X0167283Y0150147D02*
X0154475Y0150147D01*
X0154475Y0150246D02*
X0167543Y0150246D01*
X0167802Y0150344D02*
X0154475Y0150344D01*
X0154475Y0150443D02*
X0168062Y0150443D01*
X0168321Y0150541D02*
X0154475Y0150541D01*
X0154475Y0150640D02*
X0168581Y0150640D01*
X0168840Y0150738D02*
X0154475Y0150738D01*
X0154475Y0150837D02*
X0169094Y0150837D01*
X0169345Y0150935D02*
X0154475Y0150935D01*
X0154475Y0151034D02*
X0169597Y0151034D01*
X0169848Y0151132D02*
X0154475Y0151132D01*
X0154475Y0151231D02*
X0170099Y0151231D01*
X0170351Y0151329D02*
X0154475Y0151329D01*
X0154475Y0151428D02*
X0170602Y0151428D01*
X0170853Y0151526D02*
X0154475Y0151526D01*
X0154475Y0151625D02*
X0171105Y0151625D01*
X0171356Y0151723D02*
X0154475Y0151723D01*
X0154475Y0151822D02*
X0171607Y0151822D01*
X0171859Y0151920D02*
X0154536Y0151920D01*
X0154779Y0152019D02*
X0172110Y0152019D01*
X0172361Y0152118D02*
X0155022Y0152118D01*
X0155265Y0152216D02*
X0172613Y0152216D01*
X0172864Y0152315D02*
X0155508Y0152315D01*
X0155751Y0152413D02*
X0173115Y0152413D01*
X0173213Y0152512D02*
X0155994Y0152512D01*
X0156237Y0152610D02*
X0173213Y0152610D01*
X0173213Y0152709D02*
X0156480Y0152709D01*
X0156722Y0152807D02*
X0173213Y0152807D01*
X0173213Y0152906D02*
X0156965Y0152906D01*
X0157208Y0153004D02*
X0173213Y0153004D01*
X0173213Y0153103D02*
X0157451Y0153103D01*
X0157694Y0153201D02*
X0173213Y0153201D01*
X0173213Y0153300D02*
X0157937Y0153300D01*
X0158180Y0153398D02*
X0173213Y0153398D01*
X0173213Y0153497D02*
X0158423Y0153497D01*
X0161580Y0157339D02*
X0154874Y0157339D01*
X0154863Y0157437D02*
X0161580Y0157437D01*
X0161580Y0157536D02*
X0154854Y0157536D01*
X0154847Y0157634D02*
X0161580Y0157634D01*
X0161580Y0157733D02*
X0154840Y0157733D01*
X0154839Y0157831D02*
X0161580Y0157831D01*
X0161580Y0157930D02*
X0154839Y0157930D01*
X0154839Y0158028D02*
X0161580Y0158028D01*
X0161580Y0158127D02*
X0154839Y0158127D01*
X0154839Y0158225D02*
X0161580Y0158225D01*
X0161580Y0158324D02*
X0154839Y0158324D01*
X0154839Y0158422D02*
X0161580Y0158422D01*
X0161580Y0158521D02*
X0154839Y0158521D01*
X0154839Y0158619D02*
X0161580Y0158619D01*
X0161580Y0158718D02*
X0154839Y0158718D01*
X0154839Y0158816D02*
X0161580Y0158816D01*
X0161580Y0158915D02*
X0154839Y0158915D01*
X0154839Y0159013D02*
X0161580Y0159013D01*
X0161580Y0159112D02*
X0154839Y0159112D01*
X0154839Y0159210D02*
X0161580Y0159210D01*
X0161580Y0159309D02*
X0154839Y0159309D01*
X0154839Y0159407D02*
X0161580Y0159407D01*
X0161628Y0159506D02*
X0154839Y0159506D01*
X0154839Y0159604D02*
X0161722Y0159604D01*
X0161816Y0159703D02*
X0154839Y0159703D01*
X0154839Y0159801D02*
X0161911Y0159801D01*
X0162005Y0159900D02*
X0154839Y0159900D01*
X0154839Y0159998D02*
X0162100Y0159998D01*
X0162194Y0160097D02*
X0154839Y0160097D01*
X0154839Y0160195D02*
X0162288Y0160195D01*
X0162383Y0160294D02*
X0154839Y0160294D01*
X0154839Y0160392D02*
X0162477Y0160392D01*
X0166681Y0146798D02*
X0173591Y0146798D01*
X0173604Y0146699D02*
X0166681Y0146699D01*
X0166681Y0146601D02*
X0173611Y0146601D01*
X0173617Y0146502D02*
X0166681Y0146502D01*
X0166681Y0146404D02*
X0173623Y0146404D01*
X0173623Y0146305D02*
X0166681Y0146305D01*
X0166681Y0146207D02*
X0173623Y0146207D01*
X0173623Y0146108D02*
X0166681Y0146108D01*
X0166681Y0146010D02*
X0173623Y0146010D01*
X0173623Y0145911D02*
X0166681Y0145911D01*
X0166681Y0145813D02*
X0173623Y0145813D01*
X0173623Y0145714D02*
X0166681Y0145714D01*
X0166681Y0145616D02*
X0173623Y0145616D01*
X0173623Y0145517D02*
X0166681Y0145517D01*
X0166681Y0145419D02*
X0173623Y0145419D01*
X0173623Y0145320D02*
X0166681Y0145320D01*
X0166681Y0145222D02*
X0173623Y0145222D01*
X0173623Y0145123D02*
X0166681Y0145123D01*
X0166681Y0145025D02*
X0173623Y0145025D01*
X0173623Y0144926D02*
X0166681Y0144926D01*
X0166681Y0144828D02*
X0173623Y0144828D01*
X0173623Y0144729D02*
X0166668Y0144729D01*
X0166582Y0144631D02*
X0173623Y0144631D01*
X0173623Y0144532D02*
X0166497Y0144532D01*
X0166412Y0144434D02*
X0173623Y0144434D01*
X0173623Y0144335D02*
X0166326Y0144335D01*
X0166241Y0144237D02*
X0173623Y0144237D01*
X0173623Y0144138D02*
X0166155Y0144138D01*
X0166070Y0144040D02*
X0173623Y0144040D01*
X0173623Y0143941D02*
X0165985Y0143941D01*
X0165899Y0143843D02*
X0173623Y0143843D01*
X0173623Y0143744D02*
X0165814Y0143744D01*
X0165729Y0143646D02*
X0173623Y0143646D01*
X0173623Y0143547D02*
X0165643Y0143547D01*
D12*
X0063316Y0143910D02*
X0038709Y0143910D01*
X0038709Y0144908D02*
X0063316Y0144908D01*
X0063316Y0145907D02*
X0038709Y0145907D01*
X0038709Y0146905D02*
X0063316Y0146905D01*
X0063316Y0147904D02*
X0038709Y0147904D01*
X0038709Y0148902D02*
X0063316Y0148902D01*
X0063316Y0149901D02*
X0051013Y0149901D01*
X0051013Y0149438D02*
X0051013Y0161741D01*
X0063316Y0161741D01*
X0063316Y0137135D01*
X0038709Y0137135D01*
X0038709Y0149438D01*
X0051013Y0149438D01*
X0051013Y0150899D02*
X0063316Y0150899D01*
X0063316Y0151898D02*
X0051013Y0151898D01*
X0051013Y0152896D02*
X0063316Y0152896D01*
X0063316Y0153895D02*
X0051013Y0153895D01*
X0051013Y0154893D02*
X0063316Y0154893D01*
X0063316Y0155892D02*
X0051013Y0155892D01*
X0051013Y0156890D02*
X0063316Y0156890D01*
X0063316Y0157889D02*
X0051013Y0157889D01*
X0051013Y0158887D02*
X0063316Y0158887D01*
X0063316Y0159886D02*
X0051013Y0159886D01*
X0051013Y0160884D02*
X0063316Y0160884D01*
X0063316Y0142911D02*
X0038709Y0142911D01*
X0038709Y0141913D02*
X0063316Y0141913D01*
X0063316Y0140914D02*
X0038709Y0140914D01*
X0038709Y0139916D02*
X0063316Y0139916D01*
X0063316Y0138917D02*
X0038709Y0138917D01*
X0038709Y0137919D02*
X0063316Y0137919D01*
M02*
