G75*
%MOIN*%
%OFA0B0*%
%FSLAX25Y25*%
%IPPOS*%
%LPD*%
%AMOC8*
5,1,8,0,0,1.08239X$1,22.5*
%
%ADD10C,0.01600*%
%ADD11C,0.06000*%
%ADD12C,0.30000*%
%ADD13R,0.06500X0.06500*%
%ADD14C,0.06500*%
%ADD15C,0.07400*%
%ADD16OC8,0.15000*%
%ADD17OC8,0.05200*%
%ADD18C,0.05200*%
%ADD19C,0.00500*%
D10*
X0087922Y0075619D02*
X0087922Y0087922D01*
X0075619Y0087922D01*
X0075619Y0100225D01*
X0063316Y0100225D01*
X0063316Y0124831D01*
X0051013Y0124831D01*
X0051013Y0174044D01*
X0063316Y0174044D01*
X0063316Y0186347D01*
X0075619Y0186347D01*
X0075619Y0198650D01*
X0124831Y0198650D01*
X0124831Y0186347D01*
X0137135Y0186347D01*
X0137135Y0174044D01*
X0161741Y0174044D01*
X0161741Y0186347D01*
X0174044Y0186347D01*
X0174044Y0198650D01*
X0223257Y0198650D01*
X0223257Y0186347D01*
X0235560Y0186347D01*
X0235560Y0174044D01*
X0247863Y0174044D01*
X0247863Y0124831D01*
X0235560Y0124831D01*
X0235560Y0100225D01*
X0223257Y0100225D01*
X0223257Y0087922D01*
X0210954Y0087922D01*
X0210954Y0075619D01*
X0198650Y0075619D01*
X0198650Y0063316D01*
X0186347Y0063316D01*
X0186347Y0051013D01*
X0174044Y0051013D01*
X0174044Y0038709D01*
X0161741Y0038709D01*
X0161741Y0026406D01*
X0137135Y0026406D01*
X0137135Y0038709D01*
X0124831Y0038709D01*
X0124831Y0051013D01*
X0112528Y0051013D01*
X0112528Y0063316D01*
X0100225Y0063316D01*
X0100225Y0075619D01*
X0087922Y0075619D01*
X0090522Y0078219D02*
X0090522Y0088439D01*
X0090126Y0089395D01*
X0089395Y0090126D01*
X0088439Y0090522D01*
X0078219Y0090522D01*
X0078219Y0100742D01*
X0077823Y0101698D01*
X0077092Y0102429D01*
X0076136Y0102825D01*
X0065916Y0102825D01*
X0065916Y0125349D01*
X0065520Y0126304D01*
X0064789Y0127036D01*
X0063833Y0127431D01*
X0053613Y0127431D01*
X0053613Y0171444D01*
X0062799Y0171444D01*
X0063833Y0171444D01*
X0064789Y0171840D01*
X0065520Y0172571D01*
X0065916Y0173527D01*
X0065916Y0183747D01*
X0076136Y0183747D01*
X0077092Y0184143D01*
X0077823Y0184874D01*
X0078219Y0185830D01*
X0078219Y0196050D01*
X0122231Y0196050D01*
X0122231Y0185830D01*
X0122627Y0184874D01*
X0123359Y0184143D01*
X0124314Y0183747D01*
X0134535Y0183747D01*
X0134535Y0173527D01*
X0134930Y0172571D01*
X0135662Y0171840D01*
X0136617Y0171444D01*
X0162258Y0171444D01*
X0163214Y0171840D01*
X0163945Y0172571D01*
X0164341Y0173527D01*
X0164341Y0183747D01*
X0174561Y0183747D01*
X0175517Y0184143D01*
X0176248Y0184874D01*
X0176644Y0185830D01*
X0176644Y0196050D01*
X0220657Y0196050D01*
X0220657Y0185830D01*
X0221053Y0184874D01*
X0221784Y0184143D01*
X0222740Y0183747D01*
X0232960Y0183747D01*
X0232960Y0173527D01*
X0233356Y0172571D01*
X0234087Y0171840D01*
X0235043Y0171444D01*
X0245263Y0171444D01*
X0245263Y0127431D01*
X0235043Y0127431D01*
X0234087Y0127036D01*
X0233356Y0126304D01*
X0232960Y0125349D01*
X0232960Y0102825D01*
X0222740Y0102825D01*
X0221784Y0102429D01*
X0221053Y0101698D01*
X0220657Y0100742D01*
X0220657Y0090522D01*
X0210436Y0090522D01*
X0209481Y0090126D01*
X0208749Y0089395D01*
X0208354Y0088439D01*
X0208354Y0078219D01*
X0198133Y0078219D01*
X0197178Y0077823D01*
X0196446Y0077092D01*
X0196050Y0076136D01*
X0196050Y0065916D01*
X0185830Y0065916D01*
X0184874Y0065520D01*
X0184143Y0064789D01*
X0183747Y0063833D01*
X0183747Y0053613D01*
X0173527Y0053613D01*
X0172571Y0053217D01*
X0171840Y0052485D01*
X0171444Y0051530D01*
X0171444Y0041309D01*
X0161224Y0041309D01*
X0160268Y0040914D01*
X0159537Y0040182D01*
X0159141Y0039227D01*
X0159141Y0029006D01*
X0139735Y0029006D01*
X0139735Y0039227D01*
X0139339Y0040182D01*
X0138607Y0040914D01*
X0137652Y0041309D01*
X0127431Y0041309D01*
X0127431Y0051530D01*
X0127036Y0052485D01*
X0126304Y0053217D01*
X0125349Y0053613D01*
X0115128Y0053613D01*
X0115128Y0063833D01*
X0114733Y0064789D01*
X0114001Y0065520D01*
X0113046Y0065916D01*
X0102825Y0065916D01*
X0102825Y0076136D01*
X0102429Y0077092D01*
X0101698Y0077823D01*
X0100742Y0078219D01*
X0090522Y0078219D01*
X0090522Y0079157D02*
X0131070Y0079157D01*
X0132668Y0077559D02*
X0101962Y0077559D01*
X0102825Y0075960D02*
X0134267Y0075960D01*
X0135865Y0074362D02*
X0102825Y0074362D01*
X0102825Y0072763D02*
X0137464Y0072763D01*
X0139062Y0071165D02*
X0102825Y0071165D01*
X0102825Y0069566D02*
X0140661Y0069566D01*
X0142259Y0067968D02*
X0102825Y0067968D01*
X0102825Y0066369D02*
X0143858Y0066369D01*
X0145456Y0064771D02*
X0114740Y0064771D01*
X0115128Y0063172D02*
X0147055Y0063172D01*
X0147963Y0062264D02*
X0147963Y0061776D01*
X0147937Y0061776D01*
X0145652Y0059491D01*
X0145652Y0056260D01*
X0147937Y0053976D01*
X0151167Y0053976D01*
X0153452Y0056260D01*
X0153452Y0058775D01*
X0155871Y0056356D01*
X0155960Y0056356D01*
X0156246Y0055667D01*
X0157343Y0054570D01*
X0158503Y0054089D01*
X0152183Y0047768D01*
X0151167Y0048784D01*
X0147937Y0048784D01*
X0145652Y0046499D01*
X0145652Y0043268D01*
X0147937Y0040984D01*
X0151167Y0040984D01*
X0153452Y0043268D01*
X0153452Y0044654D01*
X0219655Y0110856D01*
X0220563Y0111764D01*
X0220563Y0126875D01*
X0223127Y0126875D01*
X0223888Y0127637D01*
X0223888Y0135214D01*
X0223127Y0135975D01*
X0215550Y0135975D01*
X0214789Y0135214D01*
X0214789Y0127637D01*
X0215550Y0126875D01*
X0217463Y0126875D01*
X0217463Y0113048D01*
X0163339Y0058925D01*
X0162858Y0060085D01*
X0161761Y0061182D01*
X0160328Y0061776D01*
X0158776Y0061776D01*
X0157343Y0061182D01*
X0156386Y0060225D01*
X0124244Y0092367D01*
X0125758Y0092995D01*
X0126968Y0094204D01*
X0127622Y0095785D01*
X0127622Y0103495D01*
X0126968Y0105076D01*
X0125758Y0106285D01*
X0124178Y0106940D01*
X0122467Y0106940D01*
X0120887Y0106285D01*
X0119677Y0105076D01*
X0119022Y0103495D01*
X0119022Y0097589D01*
X0102563Y0114048D01*
X0102563Y0119333D01*
X0103845Y0119864D01*
X0105251Y0121271D01*
X0106013Y0123109D01*
X0106774Y0121271D01*
X0108180Y0119864D01*
X0110018Y0119103D01*
X0112007Y0119103D01*
X0113845Y0119864D01*
X0115251Y0121271D01*
X0116013Y0123109D01*
X0116013Y0125098D01*
X0115251Y0126935D01*
X0113845Y0128342D01*
X0112007Y0129103D01*
X0110018Y0129103D01*
X0108180Y0128342D01*
X0106774Y0126935D01*
X0106013Y0125098D01*
X0106013Y0123109D01*
X0106013Y0125098D01*
X0105251Y0126935D01*
X0103845Y0128342D01*
X0102007Y0129103D01*
X0100018Y0129103D01*
X0098180Y0128342D01*
X0096774Y0126935D01*
X0096013Y0125098D01*
X0096013Y0123109D01*
X0096774Y0121271D01*
X0098180Y0119864D01*
X0099463Y0119333D01*
X0099463Y0115148D01*
X0085957Y0128654D01*
X0085957Y0135048D01*
X0085196Y0135810D01*
X0077619Y0135810D01*
X0076857Y0135048D01*
X0076857Y0127472D01*
X0077619Y0126710D01*
X0083517Y0126710D01*
X0147963Y0062264D01*
X0147734Y0061574D02*
X0140816Y0061574D01*
X0140328Y0061776D02*
X0141761Y0061182D01*
X0142858Y0060085D01*
X0143452Y0058652D01*
X0143452Y0057100D01*
X0142858Y0055667D01*
X0141761Y0054570D01*
X0141063Y0054280D01*
X0141063Y0048479D01*
X0141761Y0048190D01*
X0142858Y0047093D01*
X0143452Y0045659D01*
X0143452Y0044108D01*
X0142858Y0042675D01*
X0141761Y0041577D01*
X0140328Y0040984D01*
X0138776Y0040984D01*
X0137343Y0041577D01*
X0136246Y0042675D01*
X0135652Y0044108D01*
X0135652Y0045659D01*
X0136246Y0047093D01*
X0137343Y0048190D01*
X0137963Y0048447D01*
X0137963Y0054313D01*
X0137343Y0054570D01*
X0136246Y0055667D01*
X0135652Y0057100D01*
X0135652Y0058652D01*
X0136246Y0060085D01*
X0137343Y0061182D01*
X0138776Y0061776D01*
X0140328Y0061776D01*
X0138288Y0061574D02*
X0115128Y0061574D01*
X0115128Y0059975D02*
X0136200Y0059975D01*
X0135652Y0058377D02*
X0115128Y0058377D01*
X0115128Y0056778D02*
X0135785Y0056778D01*
X0136733Y0055180D02*
X0115128Y0055180D01*
X0125425Y0053581D02*
X0137963Y0053581D01*
X0137963Y0051982D02*
X0127244Y0051982D01*
X0127431Y0050384D02*
X0137963Y0050384D01*
X0137963Y0048785D02*
X0127431Y0048785D01*
X0127431Y0047187D02*
X0136340Y0047187D01*
X0135652Y0045588D02*
X0127431Y0045588D01*
X0127431Y0043990D02*
X0135701Y0043990D01*
X0136529Y0042391D02*
X0127431Y0042391D01*
X0138728Y0040793D02*
X0160147Y0040793D01*
X0160328Y0040984D02*
X0161761Y0041577D01*
X0162858Y0042675D01*
X0163452Y0044108D01*
X0163452Y0045659D01*
X0162858Y0047093D01*
X0161761Y0048190D01*
X0160328Y0048784D01*
X0158776Y0048784D01*
X0157343Y0048190D01*
X0156246Y0047093D01*
X0155652Y0045659D01*
X0155652Y0044108D01*
X0156246Y0042675D01*
X0157343Y0041577D01*
X0158776Y0040984D01*
X0160328Y0040984D01*
X0159141Y0039194D02*
X0139735Y0039194D01*
X0139735Y0037596D02*
X0159141Y0037596D01*
X0159141Y0035997D02*
X0139735Y0035997D01*
X0139735Y0034399D02*
X0159141Y0034399D01*
X0159141Y0032800D02*
X0139735Y0032800D01*
X0139735Y0031202D02*
X0159141Y0031202D01*
X0159141Y0029603D02*
X0139735Y0029603D01*
X0142575Y0042391D02*
X0146529Y0042391D01*
X0145652Y0043990D02*
X0143403Y0043990D01*
X0143452Y0045588D02*
X0145652Y0045588D01*
X0146340Y0047187D02*
X0142764Y0047187D01*
X0141063Y0048785D02*
X0153200Y0048785D01*
X0154798Y0050384D02*
X0141063Y0050384D01*
X0141063Y0051982D02*
X0156397Y0051982D01*
X0157995Y0053581D02*
X0141063Y0053581D01*
X0142371Y0055180D02*
X0146733Y0055180D01*
X0145652Y0056778D02*
X0143319Y0056778D01*
X0143452Y0058377D02*
X0145652Y0058377D01*
X0146136Y0059975D02*
X0142904Y0059975D01*
X0150242Y0066369D02*
X0170783Y0066369D01*
X0169185Y0064771D02*
X0151840Y0064771D01*
X0153439Y0063172D02*
X0167586Y0063172D01*
X0165988Y0061574D02*
X0160816Y0061574D01*
X0158288Y0061574D02*
X0155037Y0061574D01*
X0153850Y0058377D02*
X0153452Y0058377D01*
X0153452Y0056778D02*
X0155449Y0056778D01*
X0156733Y0055180D02*
X0152371Y0055180D01*
X0157584Y0048785D02*
X0171444Y0048785D01*
X0171444Y0047187D02*
X0162764Y0047187D01*
X0163452Y0045588D02*
X0171444Y0045588D01*
X0171444Y0043990D02*
X0163403Y0043990D01*
X0162575Y0042391D02*
X0171444Y0042391D01*
X0171444Y0050384D02*
X0159182Y0050384D01*
X0160781Y0051982D02*
X0171632Y0051982D01*
X0173451Y0053581D02*
X0162379Y0053581D01*
X0163978Y0055180D02*
X0183747Y0055180D01*
X0183747Y0056778D02*
X0165576Y0056778D01*
X0167175Y0058377D02*
X0183747Y0058377D01*
X0183747Y0059975D02*
X0168773Y0059975D01*
X0170372Y0061574D02*
X0183747Y0061574D01*
X0183747Y0063172D02*
X0171970Y0063172D01*
X0173569Y0064771D02*
X0184136Y0064771D01*
X0178364Y0069566D02*
X0196050Y0069566D01*
X0196050Y0067968D02*
X0176766Y0067968D01*
X0175167Y0066369D02*
X0196050Y0066369D01*
X0196050Y0071165D02*
X0179963Y0071165D01*
X0181561Y0072763D02*
X0196050Y0072763D01*
X0196050Y0074362D02*
X0183160Y0074362D01*
X0184758Y0075960D02*
X0196050Y0075960D01*
X0196913Y0077559D02*
X0186357Y0077559D01*
X0187955Y0079157D02*
X0208354Y0079157D01*
X0208354Y0080756D02*
X0189554Y0080756D01*
X0191153Y0082354D02*
X0208354Y0082354D01*
X0208354Y0083953D02*
X0192751Y0083953D01*
X0194350Y0085551D02*
X0208354Y0085551D01*
X0208354Y0087150D02*
X0195948Y0087150D01*
X0197547Y0088748D02*
X0208482Y0088748D01*
X0210013Y0090347D02*
X0199145Y0090347D01*
X0200744Y0091945D02*
X0220657Y0091945D01*
X0220657Y0093544D02*
X0202342Y0093544D01*
X0203941Y0095142D02*
X0220657Y0095142D01*
X0220657Y0096741D02*
X0205539Y0096741D01*
X0207138Y0098339D02*
X0220657Y0098339D01*
X0220657Y0099938D02*
X0208736Y0099938D01*
X0210335Y0101536D02*
X0220986Y0101536D01*
X0215130Y0106332D02*
X0232960Y0106332D01*
X0232960Y0107930D02*
X0216729Y0107930D01*
X0218327Y0109529D02*
X0232960Y0109529D01*
X0232960Y0111127D02*
X0219926Y0111127D01*
X0220563Y0112726D02*
X0232960Y0112726D01*
X0232960Y0114324D02*
X0220563Y0114324D01*
X0220563Y0115923D02*
X0232960Y0115923D01*
X0232960Y0117521D02*
X0220563Y0117521D01*
X0220563Y0119120D02*
X0232960Y0119120D01*
X0232960Y0120718D02*
X0220563Y0120718D01*
X0220563Y0122317D02*
X0232960Y0122317D01*
X0232960Y0123915D02*
X0220563Y0123915D01*
X0220563Y0125514D02*
X0233028Y0125514D01*
X0234273Y0127113D02*
X0223364Y0127113D01*
X0223888Y0128711D02*
X0245263Y0128711D01*
X0245263Y0130310D02*
X0223888Y0130310D01*
X0223888Y0131908D02*
X0245263Y0131908D01*
X0245263Y0133507D02*
X0223888Y0133507D01*
X0223888Y0135105D02*
X0245263Y0135105D01*
X0245263Y0136704D02*
X0221154Y0136704D01*
X0221277Y0136744D02*
X0221985Y0137104D01*
X0222628Y0137572D01*
X0223190Y0138134D01*
X0223658Y0138777D01*
X0224019Y0139485D01*
X0224264Y0140241D01*
X0224388Y0141026D01*
X0224388Y0141349D01*
X0219414Y0141349D01*
X0219414Y0141499D01*
X0219263Y0141499D01*
X0219263Y0141349D01*
X0214289Y0141349D01*
X0214289Y0141026D01*
X0214413Y0140241D01*
X0214658Y0139485D01*
X0215019Y0138777D01*
X0215487Y0138134D01*
X0216049Y0137572D01*
X0216692Y0137104D01*
X0217400Y0136744D01*
X0218156Y0136498D01*
X0218941Y0136374D01*
X0219263Y0136374D01*
X0219263Y0141349D01*
X0219414Y0141349D01*
X0219414Y0136374D01*
X0219736Y0136374D01*
X0220521Y0136498D01*
X0221277Y0136744D01*
X0219414Y0136704D02*
X0219263Y0136704D01*
X0219263Y0138302D02*
X0219414Y0138302D01*
X0219414Y0139901D02*
X0219263Y0139901D01*
X0219263Y0141499D02*
X0214289Y0141499D01*
X0086457Y0141499D01*
X0086457Y0141656D02*
X0086333Y0142441D01*
X0086087Y0143197D01*
X0085726Y0143905D01*
X0085259Y0144548D01*
X0084697Y0145110D01*
X0084054Y0145578D01*
X0083346Y0145938D01*
X0082590Y0146184D01*
X0081805Y0146308D01*
X0081482Y0146308D01*
X0081482Y0141334D01*
X0081332Y0141334D01*
X0081332Y0146308D01*
X0081010Y0146308D01*
X0080225Y0146184D01*
X0079469Y0145938D01*
X0078760Y0145578D01*
X0078117Y0145110D01*
X0077555Y0144548D01*
X0077088Y0143905D01*
X0076727Y0143197D01*
X0076482Y0142441D01*
X0076357Y0141656D01*
X0076357Y0141333D01*
X0081332Y0141333D01*
X0081332Y0141183D01*
X0081482Y0141183D01*
X0081482Y0136208D01*
X0081805Y0136208D01*
X0082590Y0136333D01*
X0083346Y0136578D01*
X0084054Y0136939D01*
X0084697Y0137407D01*
X0085259Y0137969D01*
X0085726Y0138612D01*
X0086087Y0139320D01*
X0086333Y0140076D01*
X0086457Y0140861D01*
X0086457Y0141183D01*
X0081482Y0141183D01*
X0081482Y0141333D01*
X0086457Y0141333D01*
X0086457Y0141656D01*
X0086120Y0143098D02*
X0214573Y0143098D01*
X0214658Y0143362D02*
X0214413Y0142606D01*
X0214289Y0141821D01*
X0214289Y0141499D01*
X0214523Y0139901D02*
X0086276Y0139901D01*
X0085501Y0138302D02*
X0215364Y0138302D01*
X0217523Y0136704D02*
X0083591Y0136704D01*
X0081482Y0136704D02*
X0081332Y0136704D01*
X0081332Y0136208D02*
X0081332Y0141183D01*
X0076357Y0141183D01*
X0076357Y0140861D01*
X0076482Y0140076D01*
X0076727Y0139320D01*
X0077088Y0138612D01*
X0077555Y0137969D01*
X0078117Y0137407D01*
X0078760Y0136939D01*
X0079469Y0136578D01*
X0080225Y0136333D01*
X0081010Y0136208D01*
X0081332Y0136208D01*
X0081332Y0138302D02*
X0081482Y0138302D01*
X0081482Y0139901D02*
X0081332Y0139901D01*
X0081332Y0141499D02*
X0081482Y0141499D01*
X0081482Y0143098D02*
X0081332Y0143098D01*
X0081332Y0144696D02*
X0081482Y0144696D01*
X0081482Y0146295D02*
X0081332Y0146295D01*
X0080923Y0146295D02*
X0053613Y0146295D01*
X0053613Y0147893D02*
X0245263Y0147893D01*
X0245263Y0146295D02*
X0220689Y0146295D01*
X0220521Y0146349D02*
X0219736Y0146474D01*
X0219414Y0146474D01*
X0219414Y0141499D01*
X0224388Y0141499D01*
X0245263Y0141499D01*
X0245263Y0139901D02*
X0224154Y0139901D01*
X0224388Y0141499D02*
X0224388Y0141821D01*
X0224264Y0142606D01*
X0224019Y0143362D01*
X0223658Y0144070D01*
X0223190Y0144713D01*
X0222628Y0145276D01*
X0221985Y0145743D01*
X0221277Y0146104D01*
X0220521Y0146349D01*
X0219414Y0146295D02*
X0219263Y0146295D01*
X0219263Y0146474D02*
X0218941Y0146474D01*
X0218156Y0146349D01*
X0217400Y0146104D01*
X0216692Y0145743D01*
X0216049Y0145276D01*
X0215487Y0144713D01*
X0215019Y0144070D01*
X0214658Y0143362D01*
X0215474Y0144696D02*
X0085111Y0144696D01*
X0081892Y0146295D02*
X0217988Y0146295D01*
X0219263Y0146474D02*
X0219263Y0141499D01*
X0219414Y0141499D01*
X0219414Y0143098D02*
X0219263Y0143098D01*
X0219263Y0144696D02*
X0219414Y0144696D01*
X0223203Y0144696D02*
X0245263Y0144696D01*
X0245263Y0143098D02*
X0224104Y0143098D01*
X0223313Y0138302D02*
X0245263Y0138302D01*
X0245263Y0149492D02*
X0053613Y0149492D01*
X0053613Y0151090D02*
X0144932Y0151090D01*
X0145893Y0150129D02*
X0153183Y0150129D01*
X0158338Y0155284D01*
X0158338Y0162574D01*
X0153183Y0167729D01*
X0145893Y0167729D01*
X0140738Y0162574D01*
X0140738Y0155284D01*
X0145893Y0150129D01*
X0143334Y0152689D02*
X0053613Y0152689D01*
X0053613Y0154287D02*
X0141735Y0154287D01*
X0140738Y0155886D02*
X0053613Y0155886D01*
X0053613Y0157484D02*
X0140738Y0157484D01*
X0140738Y0159083D02*
X0053613Y0159083D01*
X0053613Y0160681D02*
X0097363Y0160681D01*
X0096774Y0161271D02*
X0098180Y0159864D01*
X0100018Y0159103D01*
X0102007Y0159103D01*
X0103845Y0159864D01*
X0105251Y0161271D01*
X0106013Y0163109D01*
X0106013Y0165098D01*
X0106013Y0163109D01*
X0106774Y0161271D01*
X0108180Y0159864D01*
X0110018Y0159103D01*
X0112007Y0159103D01*
X0113845Y0159864D01*
X0115251Y0161271D01*
X0116013Y0163109D01*
X0116013Y0165098D01*
X0115251Y0166935D01*
X0113845Y0168342D01*
X0112563Y0168873D01*
X0112563Y0181310D01*
X0113845Y0181841D01*
X0115251Y0183248D01*
X0116013Y0185085D01*
X0116013Y0187074D01*
X0115251Y0188912D01*
X0113845Y0190319D01*
X0112007Y0191080D01*
X0110018Y0191080D01*
X0108180Y0190319D01*
X0106774Y0188912D01*
X0106013Y0187074D01*
X0106013Y0185085D01*
X0106774Y0183248D01*
X0108180Y0181841D01*
X0109463Y0181310D01*
X0109463Y0168873D01*
X0108180Y0168342D01*
X0106774Y0166935D01*
X0106013Y0165098D01*
X0105251Y0166935D01*
X0103845Y0168342D01*
X0102563Y0168873D01*
X0102563Y0180310D01*
X0103845Y0180841D01*
X0105251Y0182248D01*
X0106013Y0184085D01*
X0106013Y0186074D01*
X0105251Y0187912D01*
X0103845Y0189319D01*
X0102007Y0190080D01*
X0100018Y0190080D01*
X0098180Y0189319D01*
X0096774Y0187912D01*
X0096424Y0187069D01*
X0096377Y0187368D01*
X0096110Y0188191D01*
X0095717Y0188963D01*
X0095208Y0189663D01*
X0094596Y0190275D01*
X0093895Y0190784D01*
X0093124Y0191177D01*
X0092301Y0191444D01*
X0091445Y0191580D01*
X0091213Y0191580D01*
X0091213Y0186280D01*
X0090813Y0186280D01*
X0090813Y0191580D01*
X0090580Y0191580D01*
X0089725Y0191444D01*
X0088901Y0191177D01*
X0088130Y0190784D01*
X0087430Y0190275D01*
X0086817Y0189663D01*
X0086309Y0188963D01*
X0085916Y0188191D01*
X0085648Y0187368D01*
X0085513Y0186513D01*
X0085513Y0186280D01*
X0090813Y0186280D01*
X0090813Y0185880D01*
X0091213Y0185880D01*
X0091213Y0180580D01*
X0091445Y0180580D01*
X0092301Y0180715D01*
X0093124Y0180983D01*
X0093895Y0181376D01*
X0094596Y0181885D01*
X0095208Y0182497D01*
X0095717Y0183197D01*
X0096083Y0183916D01*
X0096774Y0182248D01*
X0098180Y0180841D01*
X0099463Y0180310D01*
X0099463Y0168873D01*
X0098180Y0168342D01*
X0096774Y0166935D01*
X0096013Y0165098D01*
X0096013Y0163109D01*
X0096774Y0161271D01*
X0096356Y0162280D02*
X0053613Y0162280D01*
X0053613Y0163878D02*
X0096013Y0163878D01*
X0096170Y0165477D02*
X0053613Y0165477D01*
X0053613Y0167075D02*
X0096914Y0167075D01*
X0098982Y0168674D02*
X0053613Y0168674D01*
X0053613Y0170272D02*
X0099463Y0170272D01*
X0099463Y0171871D02*
X0064819Y0171871D01*
X0065892Y0173469D02*
X0099463Y0173469D01*
X0099463Y0175068D02*
X0065916Y0175068D01*
X0065916Y0176666D02*
X0099463Y0176666D01*
X0099463Y0178265D02*
X0065916Y0178265D01*
X0065916Y0179863D02*
X0099463Y0179863D01*
X0097560Y0181462D02*
X0094014Y0181462D01*
X0095617Y0183060D02*
X0096437Y0183060D01*
X0096219Y0187856D02*
X0096751Y0187856D01*
X0095359Y0189454D02*
X0098508Y0189454D01*
X0093367Y0191053D02*
X0109953Y0191053D01*
X0112072Y0191053D02*
X0122231Y0191053D01*
X0122231Y0192651D02*
X0078219Y0192651D01*
X0078219Y0191053D02*
X0088658Y0191053D01*
X0090813Y0191053D02*
X0091213Y0191053D01*
X0091213Y0189454D02*
X0090813Y0189454D01*
X0090813Y0187856D02*
X0091213Y0187856D01*
X0090813Y0186257D02*
X0078219Y0186257D01*
X0078219Y0187856D02*
X0085807Y0187856D01*
X0086666Y0189454D02*
X0078219Y0189454D01*
X0078219Y0194250D02*
X0122231Y0194250D01*
X0122231Y0195848D02*
X0078219Y0195848D01*
X0085513Y0185880D02*
X0085513Y0185647D01*
X0085648Y0184792D01*
X0085916Y0183969D01*
X0086309Y0183197D01*
X0086817Y0182497D01*
X0087430Y0181885D01*
X0088130Y0181376D01*
X0088901Y0180983D01*
X0089725Y0180715D01*
X0090580Y0180580D01*
X0090813Y0180580D01*
X0090813Y0185880D01*
X0085513Y0185880D01*
X0085691Y0184659D02*
X0077608Y0184659D01*
X0086408Y0183060D02*
X0065916Y0183060D01*
X0065916Y0181462D02*
X0088012Y0181462D01*
X0090813Y0181462D02*
X0091213Y0181462D01*
X0091213Y0183060D02*
X0090813Y0183060D01*
X0090813Y0184659D02*
X0091213Y0184659D01*
X0102563Y0179863D02*
X0109463Y0179863D01*
X0109463Y0178265D02*
X0102563Y0178265D01*
X0102563Y0176666D02*
X0109463Y0176666D01*
X0109463Y0175068D02*
X0102563Y0175068D01*
X0102563Y0173469D02*
X0109463Y0173469D01*
X0109463Y0171871D02*
X0102563Y0171871D01*
X0102563Y0170272D02*
X0109463Y0170272D01*
X0108982Y0168674D02*
X0103044Y0168674D01*
X0105112Y0167075D02*
X0106914Y0167075D01*
X0106170Y0165477D02*
X0105856Y0165477D01*
X0106013Y0163878D02*
X0106013Y0163878D01*
X0105669Y0162280D02*
X0106356Y0162280D01*
X0107363Y0160681D02*
X0104662Y0160681D01*
X0114662Y0160681D02*
X0140738Y0160681D01*
X0140738Y0162280D02*
X0115669Y0162280D01*
X0116013Y0163878D02*
X0142042Y0163878D01*
X0143641Y0165477D02*
X0115856Y0165477D01*
X0115112Y0167075D02*
X0145239Y0167075D01*
X0135631Y0171871D02*
X0112563Y0171871D01*
X0112563Y0173469D02*
X0134558Y0173469D01*
X0134535Y0175068D02*
X0112563Y0175068D01*
X0112563Y0176666D02*
X0134535Y0176666D01*
X0134535Y0178265D02*
X0112563Y0178265D01*
X0112563Y0179863D02*
X0134535Y0179863D01*
X0134535Y0181462D02*
X0112929Y0181462D01*
X0115064Y0183060D02*
X0134535Y0183060D01*
X0122843Y0184659D02*
X0115836Y0184659D01*
X0116013Y0186257D02*
X0122231Y0186257D01*
X0122231Y0187856D02*
X0115689Y0187856D01*
X0114709Y0189454D02*
X0122231Y0189454D01*
X0107316Y0189454D02*
X0103517Y0189454D01*
X0105275Y0187856D02*
X0106336Y0187856D01*
X0106013Y0186257D02*
X0105937Y0186257D01*
X0106013Y0184659D02*
X0106189Y0184659D01*
X0105588Y0183060D02*
X0106961Y0183060D01*
X0109096Y0181462D02*
X0104466Y0181462D01*
X0112563Y0170272D02*
X0245263Y0170272D01*
X0245263Y0168674D02*
X0113044Y0168674D01*
X0077703Y0144696D02*
X0053613Y0144696D01*
X0053613Y0143098D02*
X0076695Y0143098D01*
X0076357Y0141499D02*
X0053613Y0141499D01*
X0053613Y0139901D02*
X0076539Y0139901D01*
X0077313Y0138302D02*
X0053613Y0138302D01*
X0053613Y0136704D02*
X0079223Y0136704D01*
X0076914Y0135105D02*
X0053613Y0135105D01*
X0053613Y0133507D02*
X0076857Y0133507D01*
X0076857Y0131908D02*
X0053613Y0131908D01*
X0053613Y0130310D02*
X0076857Y0130310D01*
X0076857Y0128711D02*
X0053613Y0128711D01*
X0064603Y0127113D02*
X0077216Y0127113D01*
X0084713Y0125514D02*
X0065847Y0125514D01*
X0065916Y0123915D02*
X0086311Y0123915D01*
X0087910Y0122317D02*
X0065916Y0122317D01*
X0065916Y0120718D02*
X0089508Y0120718D01*
X0091107Y0119120D02*
X0065916Y0119120D01*
X0065916Y0117521D02*
X0092705Y0117521D01*
X0094304Y0115923D02*
X0065916Y0115923D01*
X0065916Y0114324D02*
X0095902Y0114324D01*
X0097501Y0112726D02*
X0065916Y0112726D01*
X0065916Y0111127D02*
X0099099Y0111127D01*
X0100698Y0109529D02*
X0065916Y0109529D01*
X0065916Y0107930D02*
X0102296Y0107930D01*
X0103895Y0106332D02*
X0065916Y0106332D01*
X0065916Y0104733D02*
X0105494Y0104733D01*
X0107092Y0103135D02*
X0065916Y0103135D01*
X0077890Y0101536D02*
X0108691Y0101536D01*
X0110289Y0099938D02*
X0078219Y0099938D01*
X0078219Y0098339D02*
X0111888Y0098339D01*
X0113486Y0096741D02*
X0078219Y0096741D01*
X0078219Y0095142D02*
X0115085Y0095142D01*
X0116683Y0093544D02*
X0078219Y0093544D01*
X0078219Y0091945D02*
X0118282Y0091945D01*
X0119880Y0090347D02*
X0088862Y0090347D01*
X0090394Y0088748D02*
X0121479Y0088748D01*
X0123077Y0087150D02*
X0090522Y0087150D01*
X0090522Y0085551D02*
X0124676Y0085551D01*
X0126274Y0083953D02*
X0090522Y0083953D01*
X0090522Y0082354D02*
X0127873Y0082354D01*
X0129471Y0080756D02*
X0090522Y0080756D01*
X0115075Y0101536D02*
X0119022Y0101536D01*
X0119022Y0099938D02*
X0116673Y0099938D01*
X0118272Y0098339D02*
X0119022Y0098339D01*
X0119022Y0103135D02*
X0113476Y0103135D01*
X0111878Y0104733D02*
X0119535Y0104733D01*
X0120999Y0106332D02*
X0110279Y0106332D01*
X0108681Y0107930D02*
X0135210Y0107930D01*
X0134906Y0107405D02*
X0134286Y0106075D01*
X0133785Y0104697D01*
X0133405Y0103280D01*
X0133150Y0101835D01*
X0133028Y0100440D01*
X0149022Y0100440D01*
X0149022Y0098840D01*
X0133028Y0098840D01*
X0133150Y0097445D01*
X0133405Y0096000D01*
X0133785Y0094583D01*
X0134286Y0093205D01*
X0134906Y0091875D01*
X0135640Y0090605D01*
X0136481Y0089403D01*
X0137424Y0088279D01*
X0138462Y0087242D01*
X0139585Y0086299D01*
X0140787Y0085458D01*
X0142058Y0084724D01*
X0143387Y0084104D01*
X0144766Y0083602D01*
X0146183Y0083223D01*
X0147627Y0082968D01*
X0149022Y0082846D01*
X0149022Y0098840D01*
X0150622Y0098840D01*
X0150622Y0082846D01*
X0152017Y0082968D01*
X0153462Y0083223D01*
X0154879Y0083602D01*
X0156257Y0084104D01*
X0157587Y0084724D01*
X0158858Y0085458D01*
X0160059Y0086299D01*
X0161183Y0087242D01*
X0162220Y0088279D01*
X0163163Y0089403D01*
X0164005Y0090605D01*
X0164738Y0091875D01*
X0165358Y0093205D01*
X0165860Y0094583D01*
X0166240Y0096000D01*
X0166494Y0097445D01*
X0166616Y0098840D01*
X0150622Y0098840D01*
X0150622Y0100440D01*
X0149022Y0100440D01*
X0149022Y0116434D01*
X0147627Y0116312D01*
X0146183Y0116057D01*
X0144766Y0115678D01*
X0143387Y0115176D01*
X0142058Y0114556D01*
X0140787Y0113822D01*
X0139585Y0112981D01*
X0138462Y0112038D01*
X0137424Y0111001D01*
X0136481Y0109877D01*
X0135640Y0108675D01*
X0134906Y0107405D01*
X0134406Y0106332D02*
X0125646Y0106332D01*
X0127109Y0104733D02*
X0133798Y0104733D01*
X0133379Y0103135D02*
X0127622Y0103135D01*
X0127622Y0101536D02*
X0133124Y0101536D01*
X0133072Y0098339D02*
X0127622Y0098339D01*
X0127622Y0096741D02*
X0133274Y0096741D01*
X0133635Y0095142D02*
X0127356Y0095142D01*
X0126307Y0093544D02*
X0134163Y0093544D01*
X0134874Y0091945D02*
X0124666Y0091945D01*
X0126264Y0090347D02*
X0135820Y0090347D01*
X0137031Y0088748D02*
X0127863Y0088748D01*
X0129461Y0087150D02*
X0138571Y0087150D01*
X0140653Y0085551D02*
X0131060Y0085551D01*
X0132658Y0083953D02*
X0143803Y0083953D01*
X0149022Y0083953D02*
X0150622Y0083953D01*
X0150622Y0085551D02*
X0149022Y0085551D01*
X0149022Y0087150D02*
X0150622Y0087150D01*
X0150622Y0088748D02*
X0149022Y0088748D01*
X0149022Y0090347D02*
X0150622Y0090347D01*
X0150622Y0091945D02*
X0149022Y0091945D01*
X0149022Y0093544D02*
X0150622Y0093544D01*
X0150622Y0095142D02*
X0149022Y0095142D01*
X0149022Y0096741D02*
X0150622Y0096741D01*
X0150622Y0098339D02*
X0149022Y0098339D01*
X0149022Y0099938D02*
X0127622Y0099938D01*
X0136238Y0109529D02*
X0107082Y0109529D01*
X0105484Y0111127D02*
X0137551Y0111127D01*
X0139281Y0112726D02*
X0103885Y0112726D01*
X0102563Y0114324D02*
X0141656Y0114324D01*
X0145681Y0115923D02*
X0102563Y0115923D01*
X0102563Y0117521D02*
X0217463Y0117521D01*
X0217463Y0115923D02*
X0153964Y0115923D01*
X0153462Y0116057D02*
X0154879Y0115678D01*
X0156257Y0115176D01*
X0157587Y0114556D01*
X0158858Y0113822D01*
X0160059Y0112981D01*
X0161183Y0112038D01*
X0162220Y0111001D01*
X0163163Y0109877D01*
X0164005Y0108675D01*
X0164738Y0107405D01*
X0165358Y0106075D01*
X0165860Y0104697D01*
X0166240Y0103280D01*
X0166494Y0101835D01*
X0166616Y0100440D01*
X0150622Y0100440D01*
X0150622Y0116434D01*
X0152017Y0116312D01*
X0153462Y0116057D01*
X0150622Y0115923D02*
X0149022Y0115923D01*
X0149022Y0114324D02*
X0150622Y0114324D01*
X0150622Y0112726D02*
X0149022Y0112726D01*
X0149022Y0111127D02*
X0150622Y0111127D01*
X0150622Y0109529D02*
X0149022Y0109529D01*
X0149022Y0107930D02*
X0150622Y0107930D01*
X0150622Y0106332D02*
X0149022Y0106332D01*
X0149022Y0104733D02*
X0150622Y0104733D01*
X0150622Y0103135D02*
X0149022Y0103135D01*
X0149022Y0101536D02*
X0150622Y0101536D01*
X0150622Y0099938D02*
X0172022Y0099938D01*
X0172022Y0101536D02*
X0166521Y0101536D01*
X0166265Y0103135D02*
X0172022Y0103135D01*
X0172022Y0103495D02*
X0172022Y0095785D01*
X0172677Y0094204D01*
X0173887Y0092995D01*
X0175467Y0092340D01*
X0177178Y0092340D01*
X0178758Y0092995D01*
X0179968Y0094204D01*
X0180622Y0095785D01*
X0180622Y0103495D01*
X0179968Y0105076D01*
X0178758Y0106285D01*
X0177178Y0106940D01*
X0175467Y0106940D01*
X0173887Y0106285D01*
X0172677Y0105076D01*
X0172022Y0103495D01*
X0172535Y0104733D02*
X0165847Y0104733D01*
X0165239Y0106332D02*
X0173999Y0106332D01*
X0178646Y0106332D02*
X0210746Y0106332D01*
X0209148Y0104733D02*
X0180109Y0104733D01*
X0180622Y0103135D02*
X0207549Y0103135D01*
X0205951Y0101536D02*
X0180622Y0101536D01*
X0180622Y0099938D02*
X0204352Y0099938D01*
X0202754Y0098339D02*
X0180622Y0098339D01*
X0180622Y0096741D02*
X0201155Y0096741D01*
X0199557Y0095142D02*
X0180356Y0095142D01*
X0179307Y0093544D02*
X0197958Y0093544D01*
X0196360Y0091945D02*
X0164771Y0091945D01*
X0165482Y0093544D02*
X0173337Y0093544D01*
X0172288Y0095142D02*
X0166010Y0095142D01*
X0166370Y0096741D02*
X0172022Y0096741D01*
X0172022Y0098339D02*
X0166573Y0098339D01*
X0163824Y0090347D02*
X0194761Y0090347D01*
X0193163Y0088748D02*
X0162614Y0088748D01*
X0161073Y0087150D02*
X0191564Y0087150D01*
X0189965Y0085551D02*
X0158991Y0085551D01*
X0155842Y0083953D02*
X0188367Y0083953D01*
X0186768Y0082354D02*
X0134257Y0082354D01*
X0135855Y0080756D02*
X0185170Y0080756D01*
X0183571Y0079157D02*
X0137454Y0079157D01*
X0139052Y0077559D02*
X0181973Y0077559D01*
X0180374Y0075960D02*
X0140651Y0075960D01*
X0142249Y0074362D02*
X0178776Y0074362D01*
X0177177Y0072763D02*
X0143848Y0072763D01*
X0145446Y0071165D02*
X0175579Y0071165D01*
X0173980Y0069566D02*
X0147045Y0069566D01*
X0148643Y0067968D02*
X0172382Y0067968D01*
X0164389Y0059975D02*
X0162904Y0059975D01*
X0156340Y0047187D02*
X0155985Y0047187D01*
X0155652Y0045588D02*
X0154387Y0045588D01*
X0153452Y0043990D02*
X0155701Y0043990D01*
X0156529Y0042391D02*
X0152575Y0042391D01*
X0211933Y0103135D02*
X0232960Y0103135D01*
X0232960Y0104733D02*
X0213532Y0104733D01*
X0212345Y0107930D02*
X0164435Y0107930D01*
X0163407Y0109529D02*
X0213943Y0109529D01*
X0215542Y0111127D02*
X0162094Y0111127D01*
X0160363Y0112726D02*
X0217140Y0112726D01*
X0217463Y0114324D02*
X0157988Y0114324D01*
X0154144Y0151090D02*
X0245263Y0151090D01*
X0245263Y0152689D02*
X0155743Y0152689D01*
X0157341Y0154287D02*
X0245263Y0154287D01*
X0245263Y0155886D02*
X0158338Y0155886D01*
X0158338Y0157484D02*
X0245263Y0157484D01*
X0245263Y0159083D02*
X0158338Y0159083D01*
X0158338Y0160681D02*
X0245263Y0160681D01*
X0245263Y0162280D02*
X0158338Y0162280D01*
X0157035Y0163878D02*
X0245263Y0163878D01*
X0245263Y0165477D02*
X0155436Y0165477D01*
X0153838Y0167075D02*
X0245263Y0167075D01*
X0234056Y0171871D02*
X0163245Y0171871D01*
X0164317Y0173469D02*
X0232984Y0173469D01*
X0232960Y0175068D02*
X0164341Y0175068D01*
X0164341Y0176666D02*
X0232960Y0176666D01*
X0232960Y0178265D02*
X0164341Y0178265D01*
X0164341Y0179863D02*
X0232960Y0179863D01*
X0232960Y0181462D02*
X0164341Y0181462D01*
X0164341Y0183060D02*
X0232960Y0183060D01*
X0221268Y0184659D02*
X0176033Y0184659D01*
X0176644Y0186257D02*
X0220657Y0186257D01*
X0220657Y0187856D02*
X0176644Y0187856D01*
X0176644Y0189454D02*
X0220657Y0189454D01*
X0220657Y0191053D02*
X0176644Y0191053D01*
X0176644Y0192651D02*
X0220657Y0192651D01*
X0220657Y0194250D02*
X0176644Y0194250D01*
X0176644Y0195848D02*
X0220657Y0195848D01*
X0214789Y0135105D02*
X0085901Y0135105D01*
X0085957Y0133507D02*
X0214789Y0133507D01*
X0214789Y0131908D02*
X0085957Y0131908D01*
X0085957Y0130310D02*
X0214789Y0130310D01*
X0214789Y0128711D02*
X0112954Y0128711D01*
X0115074Y0127113D02*
X0215313Y0127113D01*
X0217463Y0125514D02*
X0115840Y0125514D01*
X0116013Y0123915D02*
X0217463Y0123915D01*
X0217463Y0122317D02*
X0115685Y0122317D01*
X0114699Y0120718D02*
X0217463Y0120718D01*
X0217463Y0119120D02*
X0112048Y0119120D01*
X0109977Y0119120D02*
X0102563Y0119120D01*
X0104699Y0120718D02*
X0107326Y0120718D01*
X0106340Y0122317D02*
X0105685Y0122317D01*
X0106013Y0123915D02*
X0106013Y0123915D01*
X0105840Y0125514D02*
X0106185Y0125514D01*
X0106951Y0127113D02*
X0105074Y0127113D01*
X0102954Y0128711D02*
X0109071Y0128711D01*
X0099071Y0128711D02*
X0085957Y0128711D01*
X0087498Y0127113D02*
X0096951Y0127113D01*
X0096185Y0125514D02*
X0089097Y0125514D01*
X0090695Y0123915D02*
X0096013Y0123915D01*
X0096340Y0122317D02*
X0092294Y0122317D01*
X0093892Y0120718D02*
X0097326Y0120718D01*
X0095491Y0119120D02*
X0099463Y0119120D01*
X0099463Y0117521D02*
X0097089Y0117521D01*
X0098688Y0115923D02*
X0099463Y0115923D01*
D11*
X0123322Y0102640D02*
X0123322Y0096640D01*
X0176322Y0096640D02*
X0176322Y0102640D01*
D12*
X0149822Y0099640D03*
D13*
X0081407Y0131260D03*
X0219339Y0131425D03*
D14*
X0219339Y0141424D03*
X0081407Y0141258D03*
D15*
X0101013Y0124103D03*
X0111013Y0124103D03*
X0111013Y0164103D03*
X0101013Y0164103D03*
X0101013Y0185080D03*
X0091013Y0186080D03*
X0111013Y0186080D03*
D16*
X0149538Y0158929D03*
D17*
X0149552Y0057876D03*
X0149552Y0044884D03*
D18*
X0139552Y0044884D03*
X0139552Y0057876D03*
X0159552Y0057876D03*
X0159552Y0044884D03*
D19*
X0151513Y0044906D02*
X0219013Y0112406D01*
X0219013Y0131406D01*
X0219339Y0131425D01*
X0219013Y0141406D02*
X0219339Y0141424D01*
X0219013Y0141406D02*
X0191513Y0141406D01*
X0150013Y0099906D01*
X0149822Y0099640D01*
X0149513Y0099906D01*
X0108513Y0140906D01*
X0081513Y0140906D01*
X0081407Y0141258D01*
X0081513Y0141406D01*
X0081513Y0176406D01*
X0091013Y0185906D01*
X0091013Y0186080D01*
X0101013Y0185080D02*
X0101013Y0164103D01*
X0111013Y0164103D02*
X0111013Y0186080D01*
X0081407Y0131260D02*
X0081513Y0130906D01*
X0149513Y0062906D01*
X0149513Y0057906D01*
X0149552Y0057876D01*
X0156513Y0057906D02*
X0101013Y0113406D01*
X0101013Y0124103D01*
X0139552Y0057876D02*
X0139513Y0057406D01*
X0139513Y0044906D01*
X0139552Y0044884D01*
X0149552Y0044884D02*
X0150013Y0044906D01*
X0151513Y0044906D01*
X0156513Y0057906D02*
X0159513Y0057906D01*
X0159552Y0057876D01*
M02*
