%
M48
M72
T01C0.02500
T02C0.03200
T03C0.03500
T04C0.03543
T05C0.04000
T06C0.05500
%
T01
X123322Y99640
X176322Y99640
T02
X139552Y57876
X149552Y57876
X159552Y57876
X159552Y44884
X149552Y44884
X139552Y44884
T03
X81407Y131260
X81407Y141258
X219339Y141424
X219339Y131425
T04
X101013Y124103
X111013Y124103
X111013Y164103
X101013Y164103
T05
X101013Y185080
X91013Y186080
X111013Y186080
T06
X149538Y158929
M30
