G75*
%MOIN*%
%OFA0B0*%
%FSLAX25Y25*%
%IPPOS*%
%LPD*%
%AMOC8*
5,1,8,0,0,1.08239X$1,22.5*
%
%ADD10C,0.01600*%
%ADD11C,0.00300*%
%ADD12C,0.00400*%
%ADD13R,0.10000X0.05000*%
%ADD14R,0.02835X0.10000*%
%ADD15C,0.00500*%
%ADD16C,0.00800*%
%ADD17C,0.00600*%
%ADD18C,0.00655*%
%ADD19R,0.19239X0.01392*%
%ADD20R,0.06631X0.02292*%
%ADD21R,0.02293X0.02210*%
D10*
X0087922Y0075619D02*
X0087922Y0087922D01*
X0075619Y0087922D01*
X0075619Y0100225D01*
X0063316Y0100225D01*
X0063316Y0124831D01*
X0051013Y0124831D01*
X0051013Y0174044D01*
X0063316Y0174044D01*
X0063316Y0186347D01*
X0075619Y0186347D01*
X0075619Y0198650D01*
X0124831Y0198650D01*
X0124831Y0186347D01*
X0137135Y0186347D01*
X0137135Y0174044D01*
X0161741Y0174044D01*
X0161741Y0186347D01*
X0174044Y0186347D01*
X0174044Y0198650D01*
X0223257Y0198650D01*
X0223257Y0186347D01*
X0235560Y0186347D01*
X0235560Y0174044D01*
X0247863Y0174044D01*
X0247863Y0124831D01*
X0235560Y0124831D01*
X0235560Y0100225D01*
X0223257Y0100225D01*
X0223257Y0087922D01*
X0210954Y0087922D01*
X0210954Y0075619D01*
X0198650Y0075619D01*
X0198650Y0063316D01*
X0186347Y0063316D01*
X0186347Y0051013D01*
X0174044Y0051013D01*
X0174044Y0038709D01*
X0161741Y0038709D01*
X0161741Y0026406D01*
X0137135Y0026406D01*
X0137135Y0038709D01*
X0124831Y0038709D01*
X0124831Y0051013D01*
X0112528Y0051013D01*
X0112528Y0063316D01*
X0100225Y0063316D01*
X0100225Y0075619D01*
X0087922Y0075619D01*
D11*
X0175152Y0175633D02*
X0175769Y0175633D01*
X0176386Y0176250D01*
X0176386Y0179336D01*
X0177601Y0179336D02*
X0177601Y0177485D01*
X0178218Y0176868D01*
X0180069Y0176868D01*
X0180069Y0179336D01*
X0181284Y0179336D02*
X0181284Y0176868D01*
X0181284Y0178102D02*
X0182518Y0179336D01*
X0183135Y0179336D01*
X0184353Y0180571D02*
X0184970Y0180571D01*
X0184970Y0176868D01*
X0184353Y0176868D02*
X0185587Y0176868D01*
X0186808Y0176868D02*
X0187426Y0176868D01*
X0187426Y0177485D01*
X0186808Y0177485D01*
X0186808Y0176868D01*
X0188650Y0177485D02*
X0189267Y0176868D01*
X0191119Y0176868D01*
X0192333Y0177485D02*
X0192333Y0178719D01*
X0192950Y0179336D01*
X0194185Y0179336D01*
X0194802Y0178719D01*
X0194802Y0177485D01*
X0194185Y0176868D01*
X0192950Y0176868D01*
X0192333Y0177485D01*
X0191119Y0179336D02*
X0189267Y0179336D01*
X0188650Y0178719D01*
X0188650Y0177485D01*
X0196016Y0176868D02*
X0196016Y0179336D01*
X0196633Y0179336D01*
X0197251Y0178719D01*
X0197868Y0179336D01*
X0198485Y0178719D01*
X0198485Y0176868D01*
X0199699Y0176868D02*
X0202168Y0180571D01*
X0203383Y0179336D02*
X0204000Y0179336D01*
X0204000Y0176868D01*
X0203383Y0176868D02*
X0204617Y0176868D01*
X0205838Y0176868D02*
X0207072Y0176868D01*
X0206455Y0176868D02*
X0206455Y0179336D01*
X0205838Y0179336D01*
X0206455Y0180571D02*
X0206455Y0181188D01*
X0204000Y0181188D02*
X0204000Y0180571D01*
X0208293Y0178719D02*
X0208911Y0179336D01*
X0210762Y0179336D01*
X0211977Y0179336D02*
X0213828Y0179336D01*
X0214445Y0178719D01*
X0214445Y0177485D01*
X0213828Y0176868D01*
X0211977Y0176868D01*
X0211977Y0180571D01*
X0210145Y0178102D02*
X0208911Y0178102D01*
X0208293Y0178719D01*
X0208293Y0176868D02*
X0210145Y0176868D01*
X0210762Y0177485D01*
X0210145Y0178102D01*
X0215660Y0177485D02*
X0216277Y0178102D01*
X0218128Y0178102D01*
X0218128Y0178719D02*
X0218128Y0176868D01*
X0216277Y0176868D01*
X0215660Y0177485D01*
X0216277Y0179336D02*
X0217511Y0179336D01*
X0218128Y0178719D01*
X0219343Y0178719D02*
X0219960Y0179336D01*
X0221812Y0179336D01*
X0221812Y0180571D02*
X0221812Y0176868D01*
X0219960Y0176868D01*
X0219343Y0177485D01*
X0219343Y0178719D01*
X0223026Y0178719D02*
X0223026Y0177485D01*
X0223643Y0176868D01*
X0225495Y0176868D01*
X0225495Y0176250D02*
X0225495Y0179336D01*
X0223643Y0179336D01*
X0223026Y0178719D01*
X0225495Y0176250D02*
X0224878Y0175633D01*
X0224260Y0175633D01*
X0226709Y0177485D02*
X0226709Y0178719D01*
X0227326Y0179336D01*
X0228561Y0179336D01*
X0229178Y0178719D01*
X0229178Y0178102D01*
X0226709Y0178102D01*
X0226709Y0177485D02*
X0227326Y0176868D01*
X0228561Y0176868D01*
X0197251Y0176868D02*
X0197251Y0178719D01*
X0176386Y0176868D02*
X0174535Y0176868D01*
X0173917Y0177485D01*
X0173917Y0179336D01*
X0172703Y0178719D02*
X0172703Y0176868D01*
X0172703Y0178719D02*
X0172086Y0179336D01*
X0170234Y0179336D01*
X0170234Y0176868D01*
X0169013Y0176868D02*
X0167779Y0176868D01*
X0168396Y0176868D02*
X0168396Y0179336D01*
X0167779Y0179336D01*
X0166558Y0179336D02*
X0165323Y0179336D01*
X0165941Y0179954D02*
X0165941Y0177485D01*
X0166558Y0176868D01*
X0168396Y0180571D02*
X0168396Y0181188D01*
D12*
X0203536Y0131193D02*
X0203536Y0129124D01*
X0205087Y0129124D01*
X0204570Y0130159D01*
X0204570Y0130676D01*
X0205087Y0131193D01*
X0206121Y0131193D01*
X0206639Y0130676D01*
X0206639Y0129641D01*
X0206121Y0129124D01*
X0165851Y0071943D02*
X0164817Y0071943D01*
X0164300Y0071426D01*
X0165851Y0071943D02*
X0166368Y0071426D01*
X0166368Y0070908D01*
X0164300Y0068840D01*
X0166368Y0068840D01*
X0141821Y0064165D02*
X0141821Y0063648D01*
X0141303Y0063131D01*
X0141821Y0062614D01*
X0141821Y0062097D01*
X0141303Y0061580D01*
X0140269Y0061580D01*
X0139752Y0062097D01*
X0140786Y0063131D02*
X0141303Y0063131D01*
X0141821Y0064165D02*
X0141303Y0064682D01*
X0140269Y0064682D01*
X0139752Y0064165D01*
X0068707Y0130511D02*
X0065605Y0130511D01*
X0067156Y0128959D01*
X0067156Y0131028D01*
D13*
X0149822Y0077140D03*
D14*
X0128405Y0099640D03*
X0171240Y0099640D03*
D15*
X0167465Y0058270D02*
X0167465Y0044490D01*
X0167269Y0044490D02*
X0162544Y0044490D01*
X0157032Y0044490D02*
X0152308Y0044490D01*
X0152505Y0044490D02*
X0152505Y0031892D01*
X0146599Y0031892D01*
X0146599Y0044490D01*
X0146796Y0044490D02*
X0142465Y0044490D01*
X0136560Y0044490D02*
X0131836Y0044490D01*
X0131639Y0044490D02*
X0131639Y0058270D01*
X0136560Y0058270D01*
X0142465Y0058270D02*
X0146402Y0058270D01*
X0152308Y0058270D02*
X0156639Y0058270D01*
X0162544Y0058270D02*
X0167269Y0058270D01*
X0219339Y0118924D02*
X0219339Y0121424D01*
X0221839Y0121424D01*
X0219339Y0121424D02*
X0219339Y0123924D01*
X0219339Y0121424D02*
X0216839Y0121424D01*
X0212839Y0143924D02*
X0212657Y0143763D01*
X0212479Y0143597D01*
X0212305Y0143426D01*
X0212136Y0143252D01*
X0211970Y0143073D01*
X0211810Y0142890D01*
X0211653Y0142704D01*
X0211502Y0142513D01*
X0211355Y0142319D01*
X0211213Y0142122D01*
X0211075Y0141921D01*
X0210943Y0141717D01*
X0210816Y0141509D01*
X0210694Y0141299D01*
X0210577Y0141085D01*
X0210465Y0140869D01*
X0210359Y0140650D01*
X0210258Y0140429D01*
X0210162Y0140205D01*
X0210072Y0139979D01*
X0209988Y0139751D01*
X0209909Y0139520D01*
X0209836Y0139288D01*
X0209769Y0139054D01*
X0209707Y0138819D01*
X0209651Y0138582D01*
X0209601Y0138344D01*
X0209557Y0138104D01*
X0209519Y0137864D01*
X0209487Y0137623D01*
X0209460Y0137381D01*
X0209440Y0137139D01*
X0209425Y0136896D01*
X0209417Y0136652D01*
X0209414Y0136409D01*
X0209417Y0136166D01*
X0209427Y0135923D01*
X0209442Y0135680D01*
X0209463Y0135437D01*
X0209490Y0135195D01*
X0209523Y0134954D01*
X0209562Y0134714D01*
X0209607Y0134475D01*
X0209658Y0134237D01*
X0209715Y0134000D01*
X0209777Y0133765D01*
X0209845Y0133531D01*
X0209919Y0133299D01*
X0209998Y0133069D01*
X0210083Y0132841D01*
X0210174Y0132616D01*
X0210270Y0132392D01*
X0210371Y0132171D01*
X0210478Y0131952D01*
X0210591Y0131736D01*
X0210708Y0131523D01*
X0210831Y0131313D01*
X0210959Y0131106D01*
X0211092Y0130902D01*
X0211230Y0130702D01*
X0211372Y0130505D01*
X0211520Y0130311D01*
X0211672Y0130121D01*
X0211829Y0129935D01*
X0211990Y0129753D01*
X0212156Y0129575D01*
X0212326Y0129401D01*
X0212501Y0129231D01*
X0212679Y0129065D01*
X0212861Y0128904D01*
X0213048Y0128748D01*
X0213238Y0128596D01*
X0213432Y0128449D01*
X0213629Y0128306D01*
X0213830Y0128169D01*
X0214034Y0128036D01*
X0214241Y0127908D01*
X0214451Y0127786D01*
X0214664Y0127669D01*
X0214881Y0127557D01*
X0215099Y0127450D01*
X0215321Y0127349D01*
X0215544Y0127253D01*
X0215770Y0127163D01*
X0215998Y0127078D01*
X0216229Y0126999D01*
X0216461Y0126926D01*
X0216694Y0126858D01*
X0216930Y0126796D01*
X0217166Y0126740D01*
X0217405Y0126689D01*
X0217644Y0126645D01*
X0217884Y0126606D01*
X0218125Y0126573D01*
X0218367Y0126547D01*
X0218610Y0126526D01*
X0218852Y0126511D01*
X0219096Y0126502D01*
X0219339Y0126499D01*
X0219582Y0126502D01*
X0219826Y0126511D01*
X0220068Y0126526D01*
X0220311Y0126547D01*
X0220553Y0126573D01*
X0220794Y0126606D01*
X0221034Y0126645D01*
X0221273Y0126689D01*
X0221512Y0126740D01*
X0221748Y0126796D01*
X0221984Y0126858D01*
X0222217Y0126926D01*
X0222449Y0126999D01*
X0222680Y0127078D01*
X0222908Y0127163D01*
X0223134Y0127253D01*
X0223357Y0127349D01*
X0223579Y0127450D01*
X0223797Y0127557D01*
X0224014Y0127669D01*
X0224227Y0127786D01*
X0224437Y0127908D01*
X0224644Y0128036D01*
X0224848Y0128169D01*
X0225049Y0128306D01*
X0225246Y0128449D01*
X0225440Y0128596D01*
X0225630Y0128748D01*
X0225817Y0128904D01*
X0225999Y0129065D01*
X0226177Y0129231D01*
X0226352Y0129401D01*
X0226522Y0129575D01*
X0226688Y0129753D01*
X0226849Y0129935D01*
X0227006Y0130121D01*
X0227158Y0130311D01*
X0227306Y0130505D01*
X0227448Y0130702D01*
X0227586Y0130902D01*
X0227719Y0131106D01*
X0227847Y0131313D01*
X0227970Y0131523D01*
X0228087Y0131736D01*
X0228200Y0131952D01*
X0228307Y0132171D01*
X0228408Y0132392D01*
X0228504Y0132616D01*
X0228595Y0132841D01*
X0228680Y0133069D01*
X0228759Y0133299D01*
X0228833Y0133531D01*
X0228901Y0133765D01*
X0228963Y0134000D01*
X0229020Y0134237D01*
X0229071Y0134475D01*
X0229116Y0134714D01*
X0229155Y0134954D01*
X0229188Y0135195D01*
X0229215Y0135437D01*
X0229236Y0135680D01*
X0229251Y0135923D01*
X0229261Y0136166D01*
X0229264Y0136409D01*
X0229261Y0136652D01*
X0229253Y0136896D01*
X0229238Y0137139D01*
X0229218Y0137381D01*
X0229191Y0137623D01*
X0229159Y0137864D01*
X0229121Y0138104D01*
X0229077Y0138344D01*
X0229027Y0138582D01*
X0228971Y0138819D01*
X0228909Y0139054D01*
X0228842Y0139288D01*
X0228769Y0139520D01*
X0228690Y0139751D01*
X0228606Y0139979D01*
X0228516Y0140205D01*
X0228420Y0140429D01*
X0228319Y0140650D01*
X0228213Y0140869D01*
X0228101Y0141085D01*
X0227984Y0141299D01*
X0227862Y0141509D01*
X0227735Y0141717D01*
X0227603Y0141921D01*
X0227465Y0142122D01*
X0227323Y0142319D01*
X0227176Y0142513D01*
X0227025Y0142704D01*
X0226868Y0142890D01*
X0226708Y0143073D01*
X0226542Y0143252D01*
X0226373Y0143426D01*
X0226199Y0143597D01*
X0226021Y0143763D01*
X0225839Y0143924D01*
X0212839Y0143924D01*
X0145291Y0168179D02*
X0142288Y0168179D01*
X0143790Y0168179D02*
X0143790Y0172683D01*
X0142288Y0171182D01*
X0121463Y0155258D02*
X0121463Y0154357D01*
X0121012Y0153907D01*
X0120111Y0153907D02*
X0119661Y0154807D01*
X0119661Y0155258D01*
X0120111Y0155708D01*
X0121012Y0155708D01*
X0121463Y0155258D01*
X0120111Y0153907D02*
X0118760Y0153907D01*
X0118760Y0155708D01*
X0119211Y0152762D02*
X0118760Y0152311D01*
X0118760Y0151410D01*
X0119211Y0150960D01*
X0119211Y0149815D02*
X0118760Y0149365D01*
X0118760Y0148464D01*
X0119211Y0148014D01*
X0119661Y0148014D01*
X0120111Y0148464D01*
X0120111Y0149815D01*
X0119211Y0149815D02*
X0121012Y0149815D01*
X0121463Y0149365D01*
X0121463Y0148464D01*
X0121012Y0148014D01*
X0121012Y0146869D02*
X0119211Y0146869D01*
X0121012Y0145067D01*
X0121463Y0145517D01*
X0121463Y0146418D01*
X0121012Y0146869D01*
X0119211Y0146869D02*
X0118760Y0146418D01*
X0118760Y0145517D01*
X0119211Y0145067D01*
X0121012Y0145067D01*
X0121012Y0143922D02*
X0120111Y0143922D01*
X0119661Y0143472D01*
X0119661Y0143021D01*
X0120111Y0142121D01*
X0118760Y0142121D01*
X0118760Y0143922D01*
X0121012Y0143922D02*
X0121463Y0143472D01*
X0121463Y0142571D01*
X0121012Y0142121D01*
X0121463Y0140976D02*
X0121463Y0139174D01*
X0121463Y0140075D02*
X0118760Y0140075D01*
X0119661Y0139174D01*
X0119211Y0138029D02*
X0121012Y0136228D01*
X0121463Y0136678D01*
X0121463Y0137579D01*
X0121012Y0138029D01*
X0119211Y0138029D01*
X0118760Y0137579D01*
X0118760Y0136678D01*
X0119211Y0136228D01*
X0121012Y0136228D01*
X0121463Y0135083D02*
X0121463Y0133281D01*
X0119661Y0135083D01*
X0119211Y0135083D01*
X0118760Y0134632D01*
X0118760Y0133731D01*
X0119211Y0133281D01*
X0111463Y0133772D02*
X0108760Y0133772D01*
X0108760Y0135123D01*
X0109211Y0135574D01*
X0110111Y0135574D01*
X0110562Y0135123D01*
X0110562Y0133772D01*
X0110562Y0134673D02*
X0111463Y0135574D01*
X0111463Y0136719D02*
X0111463Y0138070D01*
X0111012Y0138520D01*
X0109211Y0138520D01*
X0108760Y0138070D01*
X0108760Y0136719D01*
X0111463Y0136719D01*
X0111012Y0139665D02*
X0109211Y0139665D01*
X0108760Y0140116D01*
X0108760Y0141016D01*
X0109211Y0141467D01*
X0110111Y0141467D01*
X0110562Y0141016D01*
X0109661Y0141016D01*
X0109661Y0140116D01*
X0110562Y0140116D01*
X0110562Y0141016D01*
X0111012Y0141467D02*
X0111463Y0141016D01*
X0111463Y0140116D01*
X0111012Y0139665D01*
X0111463Y0142612D02*
X0111463Y0143512D01*
X0111463Y0143062D02*
X0108760Y0143062D01*
X0108760Y0142612D02*
X0108760Y0143512D01*
X0108760Y0144576D02*
X0108760Y0145477D01*
X0108760Y0145026D02*
X0111463Y0145026D01*
X0111463Y0144576D02*
X0111463Y0145477D01*
X0111012Y0146540D02*
X0111463Y0146991D01*
X0111463Y0147891D01*
X0111012Y0148342D01*
X0110562Y0148342D01*
X0110111Y0147891D01*
X0110111Y0146991D01*
X0109661Y0146540D01*
X0109211Y0146540D01*
X0108760Y0146991D01*
X0108760Y0147891D01*
X0109211Y0148342D01*
X0111012Y0149487D02*
X0111012Y0149937D01*
X0111463Y0149937D01*
X0111463Y0149487D01*
X0111012Y0149487D01*
X0111012Y0150960D02*
X0111463Y0151410D01*
X0111463Y0152311D01*
X0111012Y0152762D01*
X0110562Y0152762D01*
X0110111Y0152311D01*
X0110111Y0151410D01*
X0109661Y0150960D01*
X0109211Y0150960D01*
X0108760Y0151410D01*
X0108760Y0152311D01*
X0109211Y0152762D01*
X0108760Y0153907D02*
X0111463Y0153907D01*
X0111463Y0155708D01*
X0110111Y0154807D02*
X0110111Y0153907D01*
X0108760Y0153907D02*
X0108760Y0155708D01*
X0119211Y0152762D02*
X0119661Y0152762D01*
X0121463Y0150960D01*
X0121463Y0152762D01*
X0087907Y0143759D02*
X0074907Y0143759D01*
X0074725Y0143598D01*
X0074547Y0143432D01*
X0074373Y0143261D01*
X0074204Y0143087D01*
X0074038Y0142908D01*
X0073878Y0142725D01*
X0073721Y0142539D01*
X0073570Y0142348D01*
X0073423Y0142154D01*
X0073281Y0141957D01*
X0073143Y0141756D01*
X0073011Y0141552D01*
X0072884Y0141344D01*
X0072762Y0141134D01*
X0072645Y0140920D01*
X0072533Y0140704D01*
X0072427Y0140485D01*
X0072326Y0140264D01*
X0072230Y0140040D01*
X0072140Y0139814D01*
X0072056Y0139586D01*
X0071977Y0139355D01*
X0071904Y0139123D01*
X0071837Y0138889D01*
X0071775Y0138654D01*
X0071719Y0138417D01*
X0071669Y0138179D01*
X0071625Y0137939D01*
X0071587Y0137699D01*
X0071555Y0137458D01*
X0071528Y0137216D01*
X0071508Y0136974D01*
X0071493Y0136731D01*
X0071485Y0136487D01*
X0071482Y0136244D01*
X0071485Y0136001D01*
X0071495Y0135758D01*
X0071510Y0135515D01*
X0071531Y0135272D01*
X0071558Y0135030D01*
X0071591Y0134789D01*
X0071630Y0134549D01*
X0071675Y0134310D01*
X0071726Y0134072D01*
X0071783Y0133835D01*
X0071845Y0133600D01*
X0071913Y0133366D01*
X0071987Y0133134D01*
X0072066Y0132904D01*
X0072151Y0132676D01*
X0072242Y0132451D01*
X0072338Y0132227D01*
X0072439Y0132006D01*
X0072546Y0131787D01*
X0072659Y0131571D01*
X0072776Y0131358D01*
X0072899Y0131148D01*
X0073027Y0130941D01*
X0073160Y0130737D01*
X0073298Y0130537D01*
X0073440Y0130340D01*
X0073588Y0130146D01*
X0073740Y0129956D01*
X0073897Y0129770D01*
X0074058Y0129588D01*
X0074224Y0129410D01*
X0074394Y0129236D01*
X0074569Y0129066D01*
X0074747Y0128900D01*
X0074929Y0128739D01*
X0075116Y0128583D01*
X0075306Y0128431D01*
X0075500Y0128284D01*
X0075697Y0128141D01*
X0075898Y0128004D01*
X0076102Y0127871D01*
X0076309Y0127743D01*
X0076519Y0127621D01*
X0076732Y0127504D01*
X0076949Y0127392D01*
X0077167Y0127285D01*
X0077389Y0127184D01*
X0077612Y0127088D01*
X0077838Y0126998D01*
X0078066Y0126913D01*
X0078297Y0126834D01*
X0078529Y0126761D01*
X0078762Y0126693D01*
X0078998Y0126631D01*
X0079234Y0126575D01*
X0079473Y0126524D01*
X0079712Y0126480D01*
X0079952Y0126441D01*
X0080193Y0126408D01*
X0080435Y0126382D01*
X0080678Y0126361D01*
X0080920Y0126346D01*
X0081164Y0126337D01*
X0081407Y0126334D01*
X0081650Y0126337D01*
X0081894Y0126346D01*
X0082136Y0126361D01*
X0082379Y0126382D01*
X0082621Y0126408D01*
X0082862Y0126441D01*
X0083102Y0126480D01*
X0083341Y0126524D01*
X0083580Y0126575D01*
X0083816Y0126631D01*
X0084052Y0126693D01*
X0084285Y0126761D01*
X0084517Y0126834D01*
X0084748Y0126913D01*
X0084976Y0126998D01*
X0085202Y0127088D01*
X0085425Y0127184D01*
X0085647Y0127285D01*
X0085865Y0127392D01*
X0086082Y0127504D01*
X0086295Y0127621D01*
X0086505Y0127743D01*
X0086712Y0127871D01*
X0086916Y0128004D01*
X0087117Y0128141D01*
X0087314Y0128284D01*
X0087508Y0128431D01*
X0087698Y0128583D01*
X0087885Y0128739D01*
X0088067Y0128900D01*
X0088245Y0129066D01*
X0088420Y0129236D01*
X0088590Y0129410D01*
X0088756Y0129588D01*
X0088917Y0129770D01*
X0089074Y0129956D01*
X0089226Y0130146D01*
X0089374Y0130340D01*
X0089516Y0130537D01*
X0089654Y0130737D01*
X0089787Y0130941D01*
X0089915Y0131148D01*
X0090038Y0131358D01*
X0090155Y0131571D01*
X0090268Y0131787D01*
X0090375Y0132006D01*
X0090476Y0132227D01*
X0090572Y0132451D01*
X0090663Y0132676D01*
X0090748Y0132904D01*
X0090827Y0133134D01*
X0090901Y0133366D01*
X0090969Y0133600D01*
X0091031Y0133835D01*
X0091088Y0134072D01*
X0091139Y0134310D01*
X0091184Y0134549D01*
X0091223Y0134789D01*
X0091256Y0135030D01*
X0091283Y0135272D01*
X0091304Y0135515D01*
X0091319Y0135758D01*
X0091329Y0136001D01*
X0091332Y0136244D01*
X0091329Y0136487D01*
X0091321Y0136731D01*
X0091306Y0136974D01*
X0091286Y0137216D01*
X0091259Y0137458D01*
X0091227Y0137699D01*
X0091189Y0137939D01*
X0091145Y0138179D01*
X0091095Y0138417D01*
X0091039Y0138654D01*
X0090977Y0138889D01*
X0090910Y0139123D01*
X0090837Y0139355D01*
X0090758Y0139586D01*
X0090674Y0139814D01*
X0090584Y0140040D01*
X0090488Y0140264D01*
X0090387Y0140485D01*
X0090281Y0140704D01*
X0090169Y0140920D01*
X0090052Y0141134D01*
X0089930Y0141344D01*
X0089803Y0141552D01*
X0089671Y0141756D01*
X0089533Y0141957D01*
X0089391Y0142154D01*
X0089244Y0142348D01*
X0089093Y0142539D01*
X0088936Y0142725D01*
X0088776Y0142908D01*
X0088610Y0143087D01*
X0088441Y0143261D01*
X0088267Y0143432D01*
X0088089Y0143598D01*
X0087907Y0143759D01*
X0081407Y0123759D02*
X0081407Y0121259D01*
X0083907Y0121259D01*
X0081407Y0121259D02*
X0081407Y0118759D01*
X0081407Y0121259D02*
X0078907Y0121259D01*
X0086713Y0193030D02*
X0088215Y0193030D01*
X0088965Y0193781D01*
X0088965Y0195282D01*
X0087464Y0195282D01*
X0088965Y0196783D02*
X0088215Y0197534D01*
X0086713Y0197534D01*
X0085963Y0196783D01*
X0085963Y0193781D01*
X0086713Y0193030D01*
X0090567Y0193030D02*
X0090567Y0197534D01*
X0093569Y0197534D01*
X0095170Y0197534D02*
X0095170Y0193030D01*
X0098173Y0193030D01*
X0099774Y0193030D02*
X0099774Y0197534D01*
X0098173Y0197534D02*
X0095170Y0197534D01*
X0095170Y0195282D02*
X0096672Y0195282D01*
X0099774Y0194531D02*
X0102777Y0197534D01*
X0104378Y0197534D02*
X0106630Y0197534D01*
X0107381Y0196783D01*
X0107381Y0195282D01*
X0106630Y0194531D01*
X0104378Y0194531D01*
X0104378Y0193030D02*
X0104378Y0197534D01*
X0108982Y0197534D02*
X0111234Y0197534D01*
X0111985Y0196783D01*
X0111985Y0195282D01*
X0111234Y0194531D01*
X0108982Y0194531D01*
X0108982Y0193030D02*
X0108982Y0197534D01*
X0110484Y0194531D02*
X0111985Y0193030D01*
X0115087Y0193030D02*
X0115087Y0197534D01*
X0113586Y0197534D02*
X0116589Y0197534D01*
X0102777Y0193030D02*
X0100525Y0195282D01*
X0093569Y0193030D02*
X0090567Y0193030D01*
X0090567Y0195282D02*
X0092068Y0195282D01*
D16*
X0093513Y0190580D02*
X0088513Y0190580D01*
X0086013Y0188080D01*
X0086013Y0183080D01*
X0088513Y0180580D01*
X0093513Y0180580D01*
X0096013Y0183080D01*
X0098513Y0180580D01*
X0103513Y0180580D01*
X0106013Y0183080D01*
X0108513Y0180580D01*
X0113513Y0180580D01*
X0116013Y0183080D01*
X0116013Y0188080D01*
X0113513Y0190580D01*
X0108513Y0190580D01*
X0106013Y0188080D01*
X0103513Y0190580D01*
X0098513Y0190580D01*
X0096013Y0188080D01*
X0093513Y0190580D01*
X0096288Y0156505D02*
X0096288Y0131702D01*
X0105737Y0131702D01*
X0105737Y0156505D01*
X0096288Y0156505D01*
X0106288Y0156505D02*
X0106288Y0131702D01*
X0115737Y0131702D01*
X0115737Y0156505D01*
X0106288Y0156505D01*
D17*
X0142038Y0153929D02*
X0142038Y0151429D01*
X0144538Y0151429D01*
X0154538Y0151429D02*
X0157038Y0151429D01*
X0157038Y0153929D01*
X0157038Y0163929D02*
X0157038Y0166429D01*
X0154538Y0166429D01*
X0144538Y0166429D02*
X0142038Y0166429D01*
X0142038Y0163929D01*
X0208479Y0160352D02*
X0208479Y0157752D01*
X0211479Y0157252D01*
X0212479Y0154552D02*
X0210879Y0152152D01*
X0212679Y0150252D01*
X0215079Y0151952D01*
X0216079Y0151352D01*
X0218079Y0155852D01*
X0221279Y0155852D02*
X0223179Y0151352D01*
X0224179Y0151952D01*
X0226579Y0150252D01*
X0228479Y0152152D01*
X0226779Y0154552D01*
X0227779Y0157252D02*
X0230779Y0157752D01*
X0230779Y0160352D01*
X0227779Y0160952D01*
X0226679Y0163452D02*
X0228479Y0166052D01*
X0226579Y0167852D01*
X0223979Y0166052D01*
X0221479Y0167052D02*
X0220979Y0170252D01*
X0218279Y0170252D01*
X0217779Y0167052D01*
X0215279Y0166052D02*
X0212679Y0167852D01*
X0210779Y0166052D01*
X0212579Y0163452D01*
X0211479Y0160952D02*
X0208479Y0160352D01*
X0215314Y0166088D02*
X0215486Y0166188D01*
X0215661Y0166285D01*
X0215837Y0166377D01*
X0216016Y0166465D01*
X0216197Y0166549D01*
X0216380Y0166628D01*
X0216564Y0166703D01*
X0216751Y0166774D01*
X0216939Y0166840D01*
X0217128Y0166901D01*
X0217319Y0166958D01*
X0217512Y0167011D01*
X0217705Y0167058D01*
X0218079Y0155952D02*
X0217972Y0156007D01*
X0217866Y0156064D01*
X0217763Y0156126D01*
X0217661Y0156190D01*
X0217562Y0156258D01*
X0217465Y0156329D01*
X0217370Y0156403D01*
X0217278Y0156480D01*
X0217188Y0156561D01*
X0217101Y0156644D01*
X0217017Y0156730D01*
X0216936Y0156818D01*
X0216858Y0156910D01*
X0216782Y0157004D01*
X0216710Y0157100D01*
X0216641Y0157198D01*
X0216575Y0157299D01*
X0216513Y0157402D01*
X0216454Y0157507D01*
X0216398Y0157613D01*
X0216346Y0157722D01*
X0216298Y0157832D01*
X0216253Y0157944D01*
X0216212Y0158057D01*
X0216175Y0158171D01*
X0216141Y0158287D01*
X0216112Y0158403D01*
X0216086Y0158521D01*
X0216064Y0158639D01*
X0216045Y0158758D01*
X0216031Y0158877D01*
X0216021Y0158997D01*
X0216014Y0159117D01*
X0216012Y0159238D01*
X0216014Y0159358D01*
X0216019Y0159478D01*
X0216028Y0159598D01*
X0216042Y0159718D01*
X0216059Y0159837D01*
X0216080Y0159955D01*
X0216105Y0160073D01*
X0216134Y0160190D01*
X0216167Y0160305D01*
X0216203Y0160420D01*
X0216243Y0160533D01*
X0216287Y0160645D01*
X0216335Y0160756D01*
X0216386Y0160865D01*
X0216440Y0160972D01*
X0216499Y0161077D01*
X0216560Y0161181D01*
X0216625Y0161282D01*
X0216693Y0161381D01*
X0216765Y0161478D01*
X0216839Y0161572D01*
X0216917Y0161664D01*
X0216997Y0161753D01*
X0217081Y0161840D01*
X0217167Y0161924D01*
X0217256Y0162005D01*
X0217348Y0162083D01*
X0217442Y0162158D01*
X0217538Y0162229D01*
X0217637Y0162298D01*
X0217738Y0162363D01*
X0217841Y0162425D01*
X0217946Y0162484D01*
X0218053Y0162539D01*
X0218162Y0162591D01*
X0218272Y0162638D01*
X0218384Y0162683D01*
X0218497Y0162723D01*
X0218612Y0162760D01*
X0218728Y0162793D01*
X0218844Y0162823D01*
X0218962Y0162848D01*
X0219080Y0162870D01*
X0219199Y0162887D01*
X0219319Y0162901D01*
X0219439Y0162911D01*
X0219559Y0162917D01*
X0219679Y0162919D01*
X0219799Y0162917D01*
X0219919Y0162911D01*
X0220039Y0162901D01*
X0220159Y0162887D01*
X0220278Y0162870D01*
X0220396Y0162848D01*
X0220514Y0162823D01*
X0220630Y0162793D01*
X0220746Y0162760D01*
X0220861Y0162723D01*
X0220974Y0162683D01*
X0221086Y0162638D01*
X0221196Y0162591D01*
X0221305Y0162539D01*
X0221412Y0162484D01*
X0221517Y0162425D01*
X0221620Y0162363D01*
X0221721Y0162298D01*
X0221820Y0162229D01*
X0221916Y0162158D01*
X0222010Y0162083D01*
X0222102Y0162005D01*
X0222191Y0161924D01*
X0222277Y0161840D01*
X0222361Y0161753D01*
X0222441Y0161664D01*
X0222519Y0161572D01*
X0222593Y0161478D01*
X0222665Y0161381D01*
X0222733Y0161282D01*
X0222798Y0161181D01*
X0222859Y0161077D01*
X0222918Y0160972D01*
X0222972Y0160865D01*
X0223023Y0160756D01*
X0223071Y0160645D01*
X0223115Y0160533D01*
X0223155Y0160420D01*
X0223191Y0160305D01*
X0223224Y0160190D01*
X0223253Y0160073D01*
X0223278Y0159955D01*
X0223299Y0159837D01*
X0223316Y0159718D01*
X0223330Y0159598D01*
X0223339Y0159478D01*
X0223344Y0159358D01*
X0223346Y0159238D01*
X0223344Y0159117D01*
X0223337Y0158997D01*
X0223327Y0158877D01*
X0223313Y0158758D01*
X0223294Y0158639D01*
X0223272Y0158521D01*
X0223246Y0158403D01*
X0223217Y0158287D01*
X0223183Y0158171D01*
X0223146Y0158057D01*
X0223105Y0157944D01*
X0223060Y0157832D01*
X0223012Y0157722D01*
X0222960Y0157613D01*
X0222904Y0157507D01*
X0222845Y0157402D01*
X0222783Y0157299D01*
X0222717Y0157198D01*
X0222648Y0157100D01*
X0222576Y0157004D01*
X0222500Y0156910D01*
X0222422Y0156818D01*
X0222341Y0156730D01*
X0222257Y0156644D01*
X0222170Y0156561D01*
X0222080Y0156480D01*
X0221988Y0156403D01*
X0221893Y0156329D01*
X0221796Y0156258D01*
X0221697Y0156190D01*
X0221595Y0156126D01*
X0221492Y0156064D01*
X0221386Y0156007D01*
X0221279Y0155952D01*
X0226780Y0154547D02*
X0226876Y0154713D01*
X0226969Y0154880D01*
X0227057Y0155050D01*
X0227141Y0155222D01*
X0227221Y0155395D01*
X0227297Y0155571D01*
X0227369Y0155748D01*
X0227436Y0155927D01*
X0227500Y0156108D01*
X0227559Y0156290D01*
X0227613Y0156473D01*
X0227664Y0156658D01*
X0227710Y0156843D01*
X0227751Y0157030D01*
X0227788Y0157218D01*
X0227769Y0160953D02*
X0227719Y0161141D01*
X0227664Y0161328D01*
X0227605Y0161514D01*
X0227541Y0161698D01*
X0227473Y0161881D01*
X0227400Y0162062D01*
X0227323Y0162241D01*
X0227242Y0162418D01*
X0227156Y0162594D01*
X0227067Y0162767D01*
X0226973Y0162938D01*
X0226875Y0163106D01*
X0226773Y0163273D01*
X0226668Y0163436D01*
X0224016Y0166069D02*
X0223851Y0166167D01*
X0223683Y0166261D01*
X0223513Y0166351D01*
X0223341Y0166438D01*
X0223168Y0166520D01*
X0222992Y0166599D01*
X0222815Y0166673D01*
X0222636Y0166743D01*
X0222455Y0166809D01*
X0222273Y0166871D01*
X0222090Y0166929D01*
X0221905Y0166983D01*
X0221719Y0167032D01*
X0221532Y0167077D01*
X0212588Y0163398D02*
X0212488Y0163236D01*
X0212391Y0163071D01*
X0212298Y0162904D01*
X0212210Y0162735D01*
X0212125Y0162565D01*
X0212044Y0162392D01*
X0211967Y0162217D01*
X0211894Y0162041D01*
X0211825Y0161863D01*
X0211760Y0161683D01*
X0211699Y0161503D01*
X0211643Y0161320D01*
X0211590Y0161137D01*
X0211542Y0160952D01*
X0211486Y0157236D02*
X0211529Y0157036D01*
X0211576Y0156838D01*
X0211628Y0156641D01*
X0211686Y0156445D01*
X0211747Y0156250D01*
X0211814Y0156057D01*
X0211885Y0155866D01*
X0211961Y0155676D01*
X0212042Y0155489D01*
X0212127Y0155303D01*
X0212217Y0155120D01*
X0212311Y0154939D01*
X0212410Y0154760D01*
X0212513Y0154584D01*
D18*
X0203736Y0168465D02*
X0166077Y0129823D01*
X0177866Y0136045D02*
X0175901Y0161261D01*
X0175901Y0161915D01*
X0178193Y0161915D02*
X0178521Y0161915D01*
X0178684Y0164863D01*
X0178686Y0164897D01*
X0178684Y0164932D01*
X0178679Y0164966D01*
X0178670Y0164999D01*
X0178658Y0165032D01*
X0178642Y0165063D01*
X0178624Y0165092D01*
X0178602Y0165118D01*
X0178578Y0165143D01*
X0178551Y0165165D01*
X0178522Y0165184D01*
X0178491Y0165199D01*
X0178459Y0165212D01*
X0178426Y0165221D01*
X0178392Y0165226D01*
X0178357Y0165228D01*
X0178322Y0165226D01*
X0178288Y0165221D01*
X0178255Y0165212D01*
X0178223Y0165199D01*
X0178192Y0165184D01*
X0178163Y0165165D01*
X0178136Y0165143D01*
X0178112Y0165118D01*
X0178090Y0165092D01*
X0178072Y0165063D01*
X0178056Y0165032D01*
X0178044Y0164999D01*
X0178035Y0164966D01*
X0178030Y0164932D01*
X0178028Y0164897D01*
X0178030Y0164863D01*
X0178193Y0161915D01*
X0175901Y0161915D02*
X0175903Y0162010D01*
X0175908Y0162104D01*
X0175917Y0162199D01*
X0175930Y0162293D01*
X0175947Y0162386D01*
X0175967Y0162479D01*
X0175990Y0162571D01*
X0176017Y0162662D01*
X0176048Y0162752D01*
X0176082Y0162840D01*
X0176119Y0162928D01*
X0176160Y0163013D01*
X0176204Y0163097D01*
X0176252Y0163179D01*
X0176302Y0163260D01*
X0176355Y0163338D01*
X0176412Y0163414D01*
X0176471Y0163488D01*
X0176533Y0163560D01*
X0176598Y0163629D01*
X0176666Y0163696D01*
X0176736Y0163760D01*
X0176808Y0163821D01*
X0176883Y0163880D01*
X0176884Y0163880D02*
X0176974Y0163945D01*
X0177066Y0164008D01*
X0177161Y0164067D01*
X0177257Y0164123D01*
X0177355Y0164176D01*
X0177455Y0164226D01*
X0177556Y0164273D01*
X0177659Y0164316D01*
X0177763Y0164355D01*
X0177869Y0164392D01*
X0177975Y0164424D01*
X0178083Y0164454D01*
X0178191Y0164479D01*
X0178300Y0164501D01*
X0178410Y0164520D01*
X0178521Y0164535D01*
X0182778Y0164208D02*
X0182778Y0164863D01*
X0182778Y0165518D01*
X0187035Y0165518D01*
X0187035Y0164208D01*
X0182778Y0164208D01*
X0187362Y0164863D02*
X0187690Y0164863D01*
X0192602Y0163225D02*
X0192647Y0163158D01*
X0192689Y0163089D01*
X0192728Y0163018D01*
X0192764Y0162946D01*
X0192796Y0162872D01*
X0192825Y0162797D01*
X0192851Y0162720D01*
X0192873Y0162642D01*
X0192891Y0162564D01*
X0192906Y0162484D01*
X0192918Y0162404D01*
X0192925Y0162324D01*
X0192929Y0162243D01*
X0192930Y0162243D02*
X0191292Y0140302D01*
X0189328Y0136127D02*
X0189330Y0136207D01*
X0189336Y0136287D01*
X0189346Y0136367D01*
X0189359Y0136446D01*
X0189377Y0136525D01*
X0189398Y0136602D01*
X0189424Y0136678D01*
X0189453Y0136753D01*
X0189485Y0136827D01*
X0189521Y0136899D01*
X0189561Y0136969D01*
X0189604Y0137036D01*
X0189650Y0137102D01*
X0189700Y0137166D01*
X0189752Y0137226D01*
X0189807Y0137285D01*
X0189866Y0137340D01*
X0189926Y0137392D01*
X0189990Y0137442D01*
X0190056Y0137488D01*
X0190123Y0137531D01*
X0190193Y0137571D01*
X0190265Y0137607D01*
X0190339Y0137639D01*
X0190414Y0137668D01*
X0190490Y0137694D01*
X0190567Y0137715D01*
X0190646Y0137733D01*
X0190725Y0137746D01*
X0190805Y0137756D01*
X0190885Y0137762D01*
X0190965Y0137764D01*
X0191045Y0137762D01*
X0191125Y0137756D01*
X0191205Y0137746D01*
X0191284Y0137733D01*
X0191363Y0137715D01*
X0191440Y0137694D01*
X0191516Y0137668D01*
X0191591Y0137639D01*
X0191665Y0137607D01*
X0191737Y0137571D01*
X0191807Y0137531D01*
X0191874Y0137488D01*
X0191940Y0137442D01*
X0192004Y0137392D01*
X0192064Y0137340D01*
X0192123Y0137285D01*
X0192178Y0137226D01*
X0192230Y0137166D01*
X0192280Y0137102D01*
X0192326Y0137036D01*
X0192369Y0136969D01*
X0192409Y0136899D01*
X0192445Y0136827D01*
X0192477Y0136753D01*
X0192506Y0136678D01*
X0192532Y0136602D01*
X0192553Y0136525D01*
X0192571Y0136446D01*
X0192584Y0136367D01*
X0192594Y0136287D01*
X0192600Y0136207D01*
X0192602Y0136127D01*
X0192600Y0136047D01*
X0192594Y0135967D01*
X0192584Y0135887D01*
X0192571Y0135808D01*
X0192553Y0135729D01*
X0192532Y0135652D01*
X0192506Y0135576D01*
X0192477Y0135501D01*
X0192445Y0135427D01*
X0192409Y0135355D01*
X0192369Y0135285D01*
X0192326Y0135218D01*
X0192280Y0135152D01*
X0192230Y0135088D01*
X0192178Y0135028D01*
X0192123Y0134969D01*
X0192064Y0134914D01*
X0192004Y0134862D01*
X0191940Y0134812D01*
X0191874Y0134766D01*
X0191807Y0134723D01*
X0191737Y0134683D01*
X0191665Y0134647D01*
X0191591Y0134615D01*
X0191516Y0134586D01*
X0191440Y0134560D01*
X0191363Y0134539D01*
X0191284Y0134521D01*
X0191205Y0134508D01*
X0191125Y0134498D01*
X0191045Y0134492D01*
X0190965Y0134490D01*
X0190885Y0134492D01*
X0190805Y0134498D01*
X0190725Y0134508D01*
X0190646Y0134521D01*
X0190567Y0134539D01*
X0190490Y0134560D01*
X0190414Y0134586D01*
X0190339Y0134615D01*
X0190265Y0134647D01*
X0190193Y0134683D01*
X0190123Y0134723D01*
X0190056Y0134766D01*
X0189990Y0134812D01*
X0189926Y0134862D01*
X0189866Y0134914D01*
X0189807Y0134969D01*
X0189752Y0135028D01*
X0189700Y0135088D01*
X0189650Y0135152D01*
X0189604Y0135218D01*
X0189561Y0135285D01*
X0189521Y0135355D01*
X0189485Y0135427D01*
X0189453Y0135501D01*
X0189424Y0135576D01*
X0189398Y0135652D01*
X0189377Y0135729D01*
X0189359Y0135808D01*
X0189346Y0135887D01*
X0189336Y0135967D01*
X0189330Y0136047D01*
X0189328Y0136127D01*
X0188013Y0136127D02*
X0188015Y0136235D01*
X0188021Y0136344D01*
X0188031Y0136452D01*
X0188045Y0136559D01*
X0188063Y0136666D01*
X0188084Y0136773D01*
X0188110Y0136878D01*
X0188140Y0136982D01*
X0188173Y0137086D01*
X0188210Y0137187D01*
X0188251Y0137288D01*
X0188295Y0137387D01*
X0188343Y0137484D01*
X0188395Y0137579D01*
X0188450Y0137673D01*
X0188509Y0137764D01*
X0188570Y0137853D01*
X0188635Y0137940D01*
X0188704Y0138025D01*
X0188775Y0138106D01*
X0188849Y0138185D01*
X0188926Y0138262D01*
X0189006Y0138335D01*
X0189088Y0138406D01*
X0189173Y0138473D01*
X0189261Y0138537D01*
X0189350Y0138598D01*
X0189442Y0138656D01*
X0189536Y0138710D01*
X0189632Y0138761D01*
X0189730Y0138808D01*
X0189829Y0138852D01*
X0189930Y0138892D01*
X0190032Y0138928D01*
X0190136Y0138960D01*
X0190240Y0138989D01*
X0190346Y0139013D01*
X0190452Y0139034D01*
X0190560Y0139051D01*
X0190667Y0139064D01*
X0190775Y0139073D01*
X0190884Y0139078D01*
X0190992Y0139079D01*
X0191101Y0139076D01*
X0191209Y0139069D01*
X0191317Y0139058D01*
X0191424Y0139043D01*
X0191531Y0139024D01*
X0191637Y0139001D01*
X0191742Y0138975D01*
X0191846Y0138944D01*
X0191949Y0138910D01*
X0192051Y0138872D01*
X0192151Y0138830D01*
X0192249Y0138785D01*
X0192346Y0138736D01*
X0192441Y0138684D01*
X0192534Y0138628D01*
X0192625Y0138568D01*
X0192713Y0138506D01*
X0192799Y0138440D01*
X0192883Y0138371D01*
X0192964Y0138299D01*
X0193043Y0138224D01*
X0193118Y0138146D01*
X0193191Y0138066D01*
X0193261Y0137983D01*
X0193327Y0137897D01*
X0193391Y0137809D01*
X0193451Y0137719D01*
X0193508Y0137626D01*
X0193561Y0137532D01*
X0193611Y0137436D01*
X0193657Y0137338D01*
X0193700Y0137238D01*
X0193739Y0137137D01*
X0193774Y0137034D01*
X0193806Y0136930D01*
X0193833Y0136825D01*
X0193857Y0136720D01*
X0193877Y0136613D01*
X0193893Y0136506D01*
X0193905Y0136398D01*
X0193913Y0136290D01*
X0193917Y0136181D01*
X0193917Y0136073D01*
X0193913Y0135964D01*
X0193905Y0135856D01*
X0193893Y0135748D01*
X0193877Y0135641D01*
X0193857Y0135534D01*
X0193833Y0135429D01*
X0193806Y0135324D01*
X0193774Y0135220D01*
X0193739Y0135117D01*
X0193700Y0135016D01*
X0193657Y0134916D01*
X0193611Y0134818D01*
X0193561Y0134722D01*
X0193508Y0134628D01*
X0193451Y0134535D01*
X0193391Y0134445D01*
X0193327Y0134357D01*
X0193261Y0134271D01*
X0193191Y0134188D01*
X0193118Y0134108D01*
X0193043Y0134030D01*
X0192964Y0133955D01*
X0192883Y0133883D01*
X0192799Y0133814D01*
X0192713Y0133748D01*
X0192625Y0133686D01*
X0192534Y0133626D01*
X0192441Y0133570D01*
X0192346Y0133518D01*
X0192249Y0133469D01*
X0192151Y0133424D01*
X0192051Y0133382D01*
X0191949Y0133344D01*
X0191846Y0133310D01*
X0191742Y0133279D01*
X0191637Y0133253D01*
X0191531Y0133230D01*
X0191424Y0133211D01*
X0191317Y0133196D01*
X0191209Y0133185D01*
X0191101Y0133178D01*
X0190992Y0133175D01*
X0190884Y0133176D01*
X0190775Y0133181D01*
X0190667Y0133190D01*
X0190560Y0133203D01*
X0190452Y0133220D01*
X0190346Y0133241D01*
X0190240Y0133265D01*
X0190136Y0133294D01*
X0190032Y0133326D01*
X0189930Y0133362D01*
X0189829Y0133402D01*
X0189730Y0133446D01*
X0189632Y0133493D01*
X0189536Y0133544D01*
X0189442Y0133598D01*
X0189350Y0133656D01*
X0189261Y0133717D01*
X0189173Y0133781D01*
X0189088Y0133848D01*
X0189006Y0133919D01*
X0188926Y0133992D01*
X0188849Y0134069D01*
X0188775Y0134148D01*
X0188704Y0134229D01*
X0188635Y0134314D01*
X0188570Y0134401D01*
X0188509Y0134490D01*
X0188450Y0134581D01*
X0188395Y0134675D01*
X0188343Y0134770D01*
X0188295Y0134867D01*
X0188251Y0134966D01*
X0188210Y0135067D01*
X0188173Y0135168D01*
X0188140Y0135272D01*
X0188110Y0135376D01*
X0188084Y0135481D01*
X0188063Y0135588D01*
X0188045Y0135695D01*
X0188031Y0135802D01*
X0188021Y0135910D01*
X0188015Y0136019D01*
X0188013Y0136127D01*
X0187690Y0135063D02*
X0178848Y0135063D01*
X0178848Y0135062D02*
X0178786Y0135064D01*
X0178724Y0135070D01*
X0178663Y0135079D01*
X0178603Y0135093D01*
X0178544Y0135110D01*
X0178486Y0135131D01*
X0178429Y0135156D01*
X0178374Y0135184D01*
X0178321Y0135215D01*
X0178270Y0135250D01*
X0178221Y0135288D01*
X0178175Y0135329D01*
X0178131Y0135372D01*
X0178090Y0135419D01*
X0178053Y0135467D01*
X0178018Y0135518D01*
X0177987Y0135572D01*
X0177959Y0135627D01*
X0177934Y0135683D01*
X0177913Y0135741D01*
X0177896Y0135801D01*
X0177882Y0135861D01*
X0177873Y0135922D01*
X0177867Y0135983D01*
X0177865Y0136045D01*
X0187689Y0164862D02*
X0187987Y0164859D01*
X0188283Y0164849D01*
X0188580Y0164832D01*
X0188876Y0164809D01*
X0189172Y0164780D01*
X0189467Y0164744D01*
X0189761Y0164701D01*
X0190054Y0164652D01*
X0190346Y0164596D01*
X0190637Y0164534D01*
X0192929Y0162407D02*
X0192931Y0162484D01*
X0192937Y0162560D01*
X0192947Y0162636D01*
X0192961Y0162711D01*
X0192978Y0162785D01*
X0193000Y0162859D01*
X0193025Y0162931D01*
X0193054Y0163002D01*
X0193087Y0163071D01*
X0193123Y0163138D01*
X0193163Y0163204D01*
X0193206Y0163267D01*
X0193252Y0163328D01*
X0193302Y0163387D01*
X0193354Y0163442D01*
X0193409Y0163496D01*
X0193467Y0163546D01*
X0193527Y0163593D01*
X0193590Y0163637D01*
X0193655Y0163677D01*
X0193722Y0163714D01*
X0193791Y0163748D01*
X0193861Y0163778D01*
X0193933Y0163804D01*
X0194006Y0163827D01*
X0194080Y0163845D01*
X0194155Y0163860D01*
X0194231Y0163871D01*
X0194307Y0163878D01*
X0194384Y0163881D01*
X0194460Y0163880D01*
X0194537Y0163875D01*
X0194613Y0163866D01*
X0194688Y0163853D01*
X0194763Y0163836D01*
X0194837Y0163816D01*
X0194909Y0163791D01*
X0194980Y0163763D01*
X0195050Y0163731D01*
X0195118Y0163696D01*
X0195184Y0163657D01*
X0195248Y0163615D01*
X0195309Y0163570D01*
X0195368Y0163521D01*
X0195425Y0163469D01*
X0195479Y0163415D01*
X0195529Y0163358D01*
X0195577Y0163298D01*
X0195622Y0163236D01*
X0195663Y0163171D01*
X0195701Y0163105D01*
X0195736Y0163037D01*
X0195767Y0162967D01*
X0195794Y0162895D01*
X0195817Y0162822D01*
X0195837Y0162748D01*
X0195853Y0162673D01*
X0195865Y0162598D01*
X0195873Y0162522D01*
X0195877Y0162445D01*
X0195877Y0162369D01*
X0195873Y0162292D01*
X0195865Y0162216D01*
X0195853Y0162141D01*
X0195837Y0162066D01*
X0195817Y0161992D01*
X0195794Y0161919D01*
X0195767Y0161847D01*
X0195736Y0161777D01*
X0195701Y0161709D01*
X0195663Y0161643D01*
X0195622Y0161578D01*
X0195577Y0161516D01*
X0195529Y0161456D01*
X0195479Y0161399D01*
X0195425Y0161345D01*
X0195368Y0161293D01*
X0195309Y0161244D01*
X0195248Y0161199D01*
X0195184Y0161157D01*
X0195118Y0161118D01*
X0195050Y0161083D01*
X0194980Y0161051D01*
X0194909Y0161023D01*
X0194837Y0160998D01*
X0194763Y0160978D01*
X0194688Y0160961D01*
X0194613Y0160948D01*
X0194537Y0160939D01*
X0194460Y0160934D01*
X0194384Y0160933D01*
X0194307Y0160936D01*
X0194231Y0160943D01*
X0194155Y0160954D01*
X0194080Y0160969D01*
X0194006Y0160987D01*
X0193933Y0161010D01*
X0193861Y0161036D01*
X0193791Y0161066D01*
X0193722Y0161100D01*
X0193655Y0161137D01*
X0193590Y0161177D01*
X0193527Y0161221D01*
X0193467Y0161268D01*
X0193409Y0161318D01*
X0193354Y0161372D01*
X0193302Y0161427D01*
X0193252Y0161486D01*
X0193206Y0161547D01*
X0193163Y0161610D01*
X0193123Y0161676D01*
X0193087Y0161743D01*
X0193054Y0161812D01*
X0193025Y0161883D01*
X0193000Y0161955D01*
X0192978Y0162029D01*
X0192961Y0162103D01*
X0192947Y0162178D01*
X0192937Y0162254D01*
X0192931Y0162330D01*
X0192929Y0162407D01*
X0192602Y0163225D02*
X0192537Y0163313D01*
X0192469Y0163400D01*
X0192399Y0163484D01*
X0192325Y0163565D01*
X0192249Y0163644D01*
X0192170Y0163721D01*
X0192089Y0163795D01*
X0192006Y0163866D01*
X0191920Y0163934D01*
X0191831Y0163999D01*
X0191741Y0164062D01*
X0191649Y0164121D01*
X0191554Y0164177D01*
X0191458Y0164231D01*
X0191361Y0164280D01*
X0191261Y0164327D01*
X0191160Y0164370D01*
X0191058Y0164410D01*
X0190954Y0164446D01*
X0190850Y0164479D01*
X0190744Y0164509D01*
X0190637Y0164535D01*
X0193011Y0159050D02*
X0194894Y0159050D01*
X0194894Y0155693D01*
X0192848Y0155693D01*
X0201116Y0129496D02*
X0165094Y0168137D01*
X0178521Y0164534D02*
X0179582Y0164649D01*
X0180646Y0164741D01*
X0181711Y0164813D01*
X0182778Y0164862D01*
D19*
X0183392Y0161711D03*
D20*
X0185602Y0154383D03*
D21*
X0179339Y0133957D03*
M02*
