G75*
%MOIN*%
%OFA0B0*%
%FSLAX25Y25*%
%IPPOS*%
%LPD*%
%AMOC8*
5,1,8,0,0,1.08239X$1,22.5*
%
%ADD10C,0.01600*%
%ADD11C,0.00100*%
%ADD12C,0.00300*%
D10*
X0087922Y0075619D02*
X0087922Y0087922D01*
X0075619Y0087922D01*
X0075619Y0100225D01*
X0063316Y0100225D01*
X0063316Y0124831D01*
X0051013Y0124831D01*
X0051013Y0174044D01*
X0063316Y0174044D01*
X0063316Y0186347D01*
X0075619Y0186347D01*
X0075619Y0198650D01*
X0124831Y0198650D01*
X0124831Y0186347D01*
X0137135Y0186347D01*
X0137135Y0174044D01*
X0161741Y0174044D01*
X0161741Y0186347D01*
X0174044Y0186347D01*
X0174044Y0198650D01*
X0223257Y0198650D01*
X0223257Y0186347D01*
X0235560Y0186347D01*
X0235560Y0174044D01*
X0247863Y0174044D01*
X0247863Y0124831D01*
X0235560Y0124831D01*
X0235560Y0100225D01*
X0223257Y0100225D01*
X0223257Y0087922D01*
X0210954Y0087922D01*
X0210954Y0075619D01*
X0198650Y0075619D01*
X0198650Y0063316D01*
X0186347Y0063316D01*
X0186347Y0051013D01*
X0174044Y0051013D01*
X0174044Y0038709D01*
X0161741Y0038709D01*
X0161741Y0026406D01*
X0137135Y0026406D01*
X0137135Y0038709D01*
X0124831Y0038709D01*
X0124831Y0051013D01*
X0112528Y0051013D01*
X0112528Y0063316D01*
X0100225Y0063316D01*
X0100225Y0075619D01*
X0087922Y0075619D01*
D11*
X0122345Y0097361D02*
X0122543Y0097163D01*
X0122780Y0097014D01*
X0123044Y0096921D01*
X0123322Y0096890D01*
X0123600Y0096921D01*
X0123865Y0097014D01*
X0124102Y0097163D01*
X0124300Y0097361D01*
X0124448Y0097598D01*
X0124541Y0097862D01*
X0124572Y0098140D01*
X0124572Y0101140D01*
X0124541Y0101418D01*
X0124448Y0101682D01*
X0124300Y0101919D01*
X0124102Y0102117D01*
X0123865Y0102266D01*
X0123600Y0102359D01*
X0123322Y0102390D01*
X0123044Y0102359D01*
X0122780Y0102266D01*
X0122543Y0102117D01*
X0122345Y0101919D01*
X0122196Y0101682D01*
X0122104Y0101418D01*
X0122072Y0101140D01*
X0122072Y0098140D01*
X0122104Y0097862D01*
X0122196Y0097598D01*
X0122345Y0097361D01*
X0122371Y0097334D02*
X0124273Y0097334D01*
X0124345Y0097433D02*
X0122300Y0097433D01*
X0122238Y0097531D02*
X0124407Y0097531D01*
X0124460Y0097630D02*
X0122185Y0097630D01*
X0122150Y0097728D02*
X0124494Y0097728D01*
X0124529Y0097827D02*
X0122116Y0097827D01*
X0122096Y0097926D02*
X0124548Y0097926D01*
X0124559Y0098024D02*
X0122085Y0098024D01*
X0122074Y0098123D02*
X0124570Y0098123D01*
X0124572Y0098221D02*
X0122072Y0098221D01*
X0122072Y0098320D02*
X0124572Y0098320D01*
X0124572Y0098418D02*
X0122072Y0098418D01*
X0122072Y0098517D02*
X0124572Y0098517D01*
X0124572Y0098615D02*
X0122072Y0098615D01*
X0122072Y0098714D02*
X0124572Y0098714D01*
X0124572Y0098812D02*
X0122072Y0098812D01*
X0122072Y0098911D02*
X0124572Y0098911D01*
X0124572Y0099009D02*
X0122072Y0099009D01*
X0122072Y0099108D02*
X0124572Y0099108D01*
X0124572Y0099206D02*
X0122072Y0099206D01*
X0122072Y0099305D02*
X0124572Y0099305D01*
X0124572Y0099403D02*
X0122072Y0099403D01*
X0122072Y0099502D02*
X0124572Y0099502D01*
X0124572Y0099600D02*
X0122072Y0099600D01*
X0122072Y0099699D02*
X0124572Y0099699D01*
X0124572Y0099797D02*
X0122072Y0099797D01*
X0122072Y0099896D02*
X0124572Y0099896D01*
X0124572Y0099994D02*
X0122072Y0099994D01*
X0122072Y0100093D02*
X0124572Y0100093D01*
X0124572Y0100191D02*
X0122072Y0100191D01*
X0122072Y0100290D02*
X0124572Y0100290D01*
X0124572Y0100388D02*
X0122072Y0100388D01*
X0122072Y0100487D02*
X0124572Y0100487D01*
X0124572Y0100585D02*
X0122072Y0100585D01*
X0122072Y0100684D02*
X0124572Y0100684D01*
X0124572Y0100782D02*
X0122072Y0100782D01*
X0122072Y0100881D02*
X0124572Y0100881D01*
X0124572Y0100979D02*
X0122072Y0100979D01*
X0122072Y0101078D02*
X0124572Y0101078D01*
X0124568Y0101176D02*
X0122076Y0101176D01*
X0122087Y0101275D02*
X0124557Y0101275D01*
X0124546Y0101373D02*
X0122099Y0101373D01*
X0122122Y0101472D02*
X0124522Y0101472D01*
X0124488Y0101570D02*
X0122157Y0101570D01*
X0122191Y0101669D02*
X0124453Y0101669D01*
X0124395Y0101767D02*
X0122250Y0101767D01*
X0122311Y0101866D02*
X0124333Y0101866D01*
X0124254Y0101964D02*
X0122390Y0101964D01*
X0122489Y0102063D02*
X0124156Y0102063D01*
X0124031Y0102162D02*
X0122613Y0102162D01*
X0122770Y0102260D02*
X0123874Y0102260D01*
X0123601Y0102359D02*
X0123044Y0102359D01*
X0123322Y0107140D02*
X0122822Y0108140D01*
X0123822Y0108140D02*
X0123322Y0107140D01*
X0123322Y0110140D01*
X0124322Y0111140D01*
X0124175Y0097236D02*
X0122470Y0097236D01*
X0122583Y0097137D02*
X0124061Y0097137D01*
X0123905Y0097039D02*
X0122740Y0097039D01*
X0122990Y0096940D02*
X0123655Y0096940D01*
X0175072Y0098140D02*
X0175072Y0101140D01*
X0175104Y0101418D01*
X0175196Y0101682D01*
X0175345Y0101919D01*
X0175543Y0102117D01*
X0175780Y0102266D01*
X0176044Y0102359D01*
X0176322Y0102390D01*
X0176600Y0102359D01*
X0176865Y0102266D01*
X0177102Y0102117D01*
X0177300Y0101919D01*
X0177448Y0101682D01*
X0177541Y0101418D01*
X0177572Y0101140D01*
X0177572Y0098140D01*
X0177541Y0097862D01*
X0177448Y0097598D01*
X0177300Y0097361D01*
X0177102Y0097163D01*
X0176865Y0097014D01*
X0176600Y0096921D01*
X0176322Y0096890D01*
X0176044Y0096921D01*
X0175780Y0097014D01*
X0175543Y0097163D01*
X0175345Y0097361D01*
X0175196Y0097598D01*
X0175104Y0097862D01*
X0175072Y0098140D01*
X0175074Y0098123D02*
X0177570Y0098123D01*
X0177572Y0098221D02*
X0175072Y0098221D01*
X0175072Y0098320D02*
X0177572Y0098320D01*
X0177572Y0098418D02*
X0175072Y0098418D01*
X0175072Y0098517D02*
X0177572Y0098517D01*
X0177572Y0098615D02*
X0175072Y0098615D01*
X0175072Y0098714D02*
X0177572Y0098714D01*
X0177572Y0098812D02*
X0175072Y0098812D01*
X0175072Y0098911D02*
X0177572Y0098911D01*
X0177572Y0099009D02*
X0175072Y0099009D01*
X0175072Y0099108D02*
X0177572Y0099108D01*
X0177572Y0099206D02*
X0175072Y0099206D01*
X0175072Y0099305D02*
X0177572Y0099305D01*
X0177572Y0099403D02*
X0175072Y0099403D01*
X0175072Y0099502D02*
X0177572Y0099502D01*
X0177572Y0099600D02*
X0175072Y0099600D01*
X0175072Y0099699D02*
X0177572Y0099699D01*
X0177572Y0099797D02*
X0175072Y0099797D01*
X0175072Y0099896D02*
X0177572Y0099896D01*
X0177572Y0099994D02*
X0175072Y0099994D01*
X0175072Y0100093D02*
X0177572Y0100093D01*
X0177572Y0100191D02*
X0175072Y0100191D01*
X0175072Y0100290D02*
X0177572Y0100290D01*
X0177572Y0100388D02*
X0175072Y0100388D01*
X0175072Y0100487D02*
X0177572Y0100487D01*
X0177572Y0100585D02*
X0175072Y0100585D01*
X0175072Y0100684D02*
X0177572Y0100684D01*
X0177572Y0100782D02*
X0175072Y0100782D01*
X0175072Y0100881D02*
X0177572Y0100881D01*
X0177572Y0100979D02*
X0175072Y0100979D01*
X0175072Y0101078D02*
X0177572Y0101078D01*
X0177568Y0101176D02*
X0175076Y0101176D01*
X0175087Y0101275D02*
X0177557Y0101275D01*
X0177546Y0101373D02*
X0175099Y0101373D01*
X0175122Y0101472D02*
X0177522Y0101472D01*
X0177488Y0101570D02*
X0175157Y0101570D01*
X0175191Y0101669D02*
X0177453Y0101669D01*
X0177395Y0101767D02*
X0175250Y0101767D01*
X0175311Y0101866D02*
X0177333Y0101866D01*
X0177254Y0101964D02*
X0175390Y0101964D01*
X0175489Y0102063D02*
X0177156Y0102063D01*
X0177031Y0102162D02*
X0175613Y0102162D01*
X0175770Y0102260D02*
X0176874Y0102260D01*
X0176601Y0102359D02*
X0176044Y0102359D01*
X0175085Y0098024D02*
X0177559Y0098024D01*
X0177548Y0097926D02*
X0175096Y0097926D01*
X0175116Y0097827D02*
X0177529Y0097827D01*
X0177494Y0097728D02*
X0175150Y0097728D01*
X0175185Y0097630D02*
X0177460Y0097630D01*
X0177407Y0097531D02*
X0175238Y0097531D01*
X0175300Y0097433D02*
X0177345Y0097433D01*
X0177273Y0097334D02*
X0175371Y0097334D01*
X0175470Y0097236D02*
X0177175Y0097236D01*
X0177061Y0097137D02*
X0175583Y0097137D01*
X0175740Y0097039D02*
X0176905Y0097039D01*
X0176655Y0096940D02*
X0175990Y0096940D01*
X0176322Y0107140D02*
X0175822Y0108140D01*
X0176822Y0108140D02*
X0176322Y0107140D01*
X0176322Y0110140D01*
X0175322Y0111140D01*
D12*
X0175017Y0111090D02*
X0175017Y0113025D01*
X0175984Y0113025D02*
X0175017Y0112057D01*
X0174005Y0112057D02*
X0172070Y0112057D01*
X0172070Y0111574D02*
X0172070Y0112541D01*
X0172554Y0113025D01*
X0173522Y0113025D01*
X0174005Y0112541D01*
X0174005Y0112057D01*
X0173522Y0111090D02*
X0172554Y0111090D01*
X0172070Y0111574D01*
X0171059Y0111574D02*
X0170575Y0111090D01*
X0169124Y0111090D01*
X0169124Y0110123D02*
X0169124Y0113025D01*
X0170575Y0113025D01*
X0171059Y0112541D01*
X0171059Y0111574D01*
X0168112Y0111574D02*
X0167629Y0111090D01*
X0166177Y0111090D01*
X0166177Y0110123D02*
X0166177Y0113025D01*
X0167629Y0113025D01*
X0168112Y0112541D01*
X0168112Y0111574D01*
X0165166Y0111574D02*
X0164682Y0111090D01*
X0163715Y0111090D01*
X0163231Y0111574D01*
X0163231Y0112541D01*
X0163715Y0113025D01*
X0164682Y0113025D01*
X0165166Y0112541D01*
X0165166Y0111574D01*
X0162219Y0111090D02*
X0160768Y0111090D01*
X0160284Y0111574D01*
X0160284Y0112541D01*
X0160768Y0113025D01*
X0162219Y0113025D01*
X0156326Y0112541D02*
X0156326Y0111090D01*
X0156326Y0112541D02*
X0155842Y0113025D01*
X0154875Y0113025D01*
X0154391Y0112541D01*
X0153394Y0113025D02*
X0152427Y0113025D01*
X0152911Y0113509D02*
X0152911Y0111574D01*
X0153394Y0111090D01*
X0154391Y0111090D02*
X0154391Y0113992D01*
X0150946Y0113992D02*
X0150946Y0114476D01*
X0150946Y0113025D02*
X0150463Y0113025D01*
X0150946Y0113025D02*
X0150946Y0111090D01*
X0150463Y0111090D02*
X0151430Y0111090D01*
X0149451Y0111574D02*
X0149451Y0113025D01*
X0149451Y0111574D02*
X0148967Y0111090D01*
X0148483Y0111574D01*
X0148000Y0111090D01*
X0147516Y0111574D01*
X0147516Y0113025D01*
X0143573Y0111090D02*
X0142605Y0111090D01*
X0143089Y0111090D02*
X0143089Y0113992D01*
X0142605Y0113992D01*
X0141125Y0113992D02*
X0141125Y0111090D01*
X0141608Y0111090D02*
X0140641Y0111090D01*
X0139644Y0111090D02*
X0138676Y0111090D01*
X0139160Y0111090D02*
X0139160Y0113025D01*
X0138676Y0113025D01*
X0137672Y0113025D02*
X0137189Y0113025D01*
X0136221Y0112057D01*
X0136221Y0111090D02*
X0136221Y0113025D01*
X0135209Y0113025D02*
X0133758Y0113025D01*
X0133275Y0112541D01*
X0133275Y0111574D01*
X0133758Y0111090D01*
X0135209Y0111090D01*
X0135209Y0113992D01*
X0139160Y0113992D02*
X0139160Y0114476D01*
X0140641Y0113992D02*
X0141125Y0113992D01*
X0129331Y0113025D02*
X0128364Y0113025D01*
X0128847Y0113509D02*
X0128847Y0111574D01*
X0129331Y0111090D01*
X0127352Y0111574D02*
X0127352Y0112541D01*
X0126868Y0113025D01*
X0125901Y0113025D01*
X0125417Y0112541D01*
X0125417Y0111574D01*
X0125901Y0111090D01*
X0126868Y0111090D01*
X0127352Y0111574D01*
X0124420Y0111090D02*
X0123453Y0111090D01*
X0123937Y0111090D02*
X0123937Y0113992D01*
X0123453Y0113992D01*
X0122441Y0113025D02*
X0120990Y0113025D01*
X0120506Y0112541D01*
X0120990Y0112057D01*
X0121957Y0112057D01*
X0122441Y0111574D01*
X0121957Y0111090D01*
X0120506Y0111090D01*
X0175984Y0113025D02*
X0176468Y0113025D01*
M02*
