G75*
%MOIN*%
%OFA0B0*%
%FSLAX25Y25*%
%IPPOS*%
%LPD*%
%AMOC8*
5,1,8,0,0,1.08239X$1,22.5*
%
%ADD10C,0.01600*%
%ADD11C,0.01000*%
D10*
X0087922Y0075619D02*
X0087922Y0087922D01*
X0075619Y0087922D01*
X0075619Y0100225D01*
X0063316Y0100225D01*
X0063316Y0124831D01*
X0051013Y0124831D01*
X0051013Y0174044D01*
X0063316Y0174044D01*
X0063316Y0186347D01*
X0075619Y0186347D01*
X0075619Y0198650D01*
X0124831Y0198650D01*
X0124831Y0186347D01*
X0137135Y0186347D01*
X0137135Y0174044D01*
X0161741Y0174044D01*
X0161741Y0186347D01*
X0174044Y0186347D01*
X0174044Y0198650D01*
X0223257Y0198650D01*
X0223257Y0186347D01*
X0235560Y0186347D01*
X0235560Y0174044D01*
X0247863Y0174044D01*
X0247863Y0124831D01*
X0235560Y0124831D01*
X0235560Y0100225D01*
X0223257Y0100225D01*
X0223257Y0087922D01*
X0210954Y0087922D01*
X0210954Y0075619D01*
X0198650Y0075619D01*
X0198650Y0063316D01*
X0186347Y0063316D01*
X0186347Y0051013D01*
X0174044Y0051013D01*
X0174044Y0038709D01*
X0161741Y0038709D01*
X0161741Y0026406D01*
X0137135Y0026406D01*
X0137135Y0038709D01*
X0124831Y0038709D01*
X0124831Y0051013D01*
X0112528Y0051013D01*
X0112528Y0063316D01*
X0100225Y0063316D01*
X0100225Y0075619D01*
X0087922Y0075619D01*
D11*
X0087922Y0149438D02*
X0063316Y0149438D01*
X0063316Y0161741D01*
X0075619Y0161741D01*
X0075619Y0174044D01*
X0087922Y0174044D01*
X0087922Y0149438D01*
X0087922Y0150222D02*
X0063316Y0150222D01*
X0063316Y0151220D02*
X0087922Y0151220D01*
X0087922Y0152219D02*
X0063316Y0152219D01*
X0063316Y0153217D02*
X0087922Y0153217D01*
X0087922Y0154216D02*
X0063316Y0154216D01*
X0063316Y0155214D02*
X0087922Y0155214D01*
X0087922Y0156213D02*
X0063316Y0156213D01*
X0063316Y0157211D02*
X0087922Y0157211D01*
X0087922Y0158210D02*
X0063316Y0158210D01*
X0063316Y0159208D02*
X0087922Y0159208D01*
X0087922Y0160207D02*
X0063316Y0160207D01*
X0063316Y0161205D02*
X0087922Y0161205D01*
X0087922Y0162204D02*
X0075619Y0162204D01*
X0075619Y0163202D02*
X0087922Y0163202D01*
X0087922Y0164201D02*
X0075619Y0164201D01*
X0075619Y0165199D02*
X0087922Y0165199D01*
X0087922Y0166198D02*
X0075619Y0166198D01*
X0075619Y0167196D02*
X0087922Y0167196D01*
X0087922Y0168195D02*
X0075619Y0168195D01*
X0075619Y0169193D02*
X0087922Y0169193D01*
X0087922Y0170192D02*
X0075619Y0170192D01*
X0075619Y0171190D02*
X0087922Y0171190D01*
X0087922Y0172189D02*
X0075619Y0172189D01*
X0075619Y0173187D02*
X0087922Y0173187D01*
M02*
