G75*
%MOIN*%
%OFA0B0*%
%FSLAX25Y25*%
%IPPOS*%
%LPD*%
%AMOC8*
5,1,8,0,0,1.08239X$1,22.5*
%
%ADD10C,0.01600*%
D10*
X0087922Y0075619D02*
X0087922Y0087922D01*
X0075619Y0087922D01*
X0075619Y0100225D01*
X0063316Y0100225D01*
X0063316Y0124831D01*
X0051013Y0124831D01*
X0051013Y0174044D01*
X0063316Y0174044D01*
X0063316Y0186347D01*
X0075619Y0186347D01*
X0075619Y0198650D01*
X0124831Y0198650D01*
X0124831Y0186347D01*
X0137135Y0186347D01*
X0137135Y0174044D01*
X0161741Y0174044D01*
X0161741Y0186347D01*
X0174044Y0186347D01*
X0174044Y0198650D01*
X0223257Y0198650D01*
X0223257Y0186347D01*
X0235560Y0186347D01*
X0235560Y0174044D01*
X0247863Y0174044D01*
X0247863Y0124831D01*
X0235560Y0124831D01*
X0235560Y0100225D01*
X0223257Y0100225D01*
X0223257Y0087922D01*
X0210954Y0087922D01*
X0210954Y0075619D01*
X0198650Y0075619D01*
X0198650Y0063316D01*
X0186347Y0063316D01*
X0186347Y0051013D01*
X0174044Y0051013D01*
X0174044Y0038709D01*
X0161741Y0038709D01*
X0161741Y0026406D01*
X0137135Y0026406D01*
X0137135Y0038709D01*
X0124831Y0038709D01*
X0124831Y0051013D01*
X0112528Y0051013D01*
X0112528Y0063316D01*
X0100225Y0063316D01*
X0100225Y0075619D01*
X0087922Y0075619D01*
M02*
