G75*
%MOIN*%
%OFA0B0*%
%FSLAX25Y25*%
%IPPOS*%
%LPD*%
%AMOC8*
5,1,8,0,0,1.08239X$1,22.5*
%
%ADD10C,0.01600*%
%ADD11C,0.06400*%
%ADD12R,0.06900X0.06900*%
%ADD13C,0.06900*%
%ADD14C,0.07800*%
%ADD15OC8,0.15400*%
%ADD16OC8,0.05600*%
%ADD17C,0.05600*%
D10*
X0087922Y0075619D02*
X0087922Y0087922D01*
X0075619Y0087922D01*
X0075619Y0100225D01*
X0063316Y0100225D01*
X0063316Y0124831D01*
X0051013Y0124831D01*
X0051013Y0174044D01*
X0063316Y0174044D01*
X0063316Y0186347D01*
X0075619Y0186347D01*
X0075619Y0198650D01*
X0124831Y0198650D01*
X0124831Y0186347D01*
X0137135Y0186347D01*
X0137135Y0174044D01*
X0161741Y0174044D01*
X0161741Y0186347D01*
X0174044Y0186347D01*
X0174044Y0198650D01*
X0223257Y0198650D01*
X0223257Y0186347D01*
X0235560Y0186347D01*
X0235560Y0174044D01*
X0247863Y0174044D01*
X0247863Y0124831D01*
X0235560Y0124831D01*
X0235560Y0100225D01*
X0223257Y0100225D01*
X0223257Y0087922D01*
X0210954Y0087922D01*
X0210954Y0075619D01*
X0198650Y0075619D01*
X0198650Y0063316D01*
X0186347Y0063316D01*
X0186347Y0051013D01*
X0174044Y0051013D01*
X0174044Y0038709D01*
X0161741Y0038709D01*
X0161741Y0026406D01*
X0137135Y0026406D01*
X0137135Y0038709D01*
X0124831Y0038709D01*
X0124831Y0051013D01*
X0112528Y0051013D01*
X0112528Y0063316D01*
X0100225Y0063316D01*
X0100225Y0075619D01*
X0087922Y0075619D01*
D11*
X0123322Y0096640D02*
X0123322Y0102640D01*
X0176322Y0102640D02*
X0176322Y0096640D01*
D12*
X0219339Y0131425D03*
X0081407Y0131260D03*
D13*
X0081407Y0141258D03*
X0219339Y0141424D03*
D14*
X0111013Y0124103D03*
X0101013Y0124103D03*
X0101013Y0164103D03*
X0111013Y0164103D03*
X0101013Y0185080D03*
X0091013Y0186080D03*
X0111013Y0186080D03*
D15*
X0149538Y0158929D03*
D16*
X0149552Y0057876D03*
X0149552Y0044884D03*
D17*
X0139552Y0044884D03*
X0139552Y0057876D03*
X0159552Y0057876D03*
X0159552Y0044884D03*
M02*
